%TF.GenerationSoftware,KiCad,Pcbnew,8.0.7*%
%TF.CreationDate,2025-03-22T07:57:52+02:00*%
%TF.ProjectId,Open_Source_Chronograph-with_TCRT5000,4f70656e-5f53-46f7-9572-63655f436872,rev?*%
%TF.SameCoordinates,Original*%
%TF.FileFunction,Legend,Top*%
%TF.FilePolarity,Positive*%
%FSLAX46Y46*%
G04 Gerber Fmt 4.6, Leading zero omitted, Abs format (unit mm)*
G04 Created by KiCad (PCBNEW 8.0.7) date 2025-03-22 07:57:52*
%MOMM*%
%LPD*%
G01*
G04 APERTURE LIST*
%ADD10C,0.100000*%
%ADD11C,0.150000*%
%ADD12C,0.120000*%
%ADD13C,0.010000*%
%ADD14C,0.350000*%
G04 APERTURE END LIST*
D10*
G36*
X141344592Y-83470000D02*
G01*
X141077879Y-83470000D01*
X140952827Y-83094842D01*
X140205443Y-83094842D01*
X140078926Y-83470000D01*
X139824913Y-83470000D01*
X140023727Y-82876001D01*
X140275785Y-82876001D01*
X140882973Y-82876001D01*
X140579135Y-81913684D01*
X140275785Y-82876001D01*
X140023727Y-82876001D01*
X140421354Y-81688004D01*
X140756455Y-81688004D01*
X141344592Y-83470000D01*
G37*
G36*
X141568807Y-82094424D02*
G01*
X141781787Y-82094424D01*
X141791557Y-82316196D01*
X141857914Y-82241647D01*
X141907816Y-82194563D01*
X141988009Y-82134887D01*
X142018702Y-82116894D01*
X142111593Y-82079478D01*
X142129100Y-82075373D01*
X142227503Y-82063459D01*
X142246337Y-82063161D01*
X142346324Y-82071038D01*
X142443263Y-82098730D01*
X142531667Y-82152883D01*
X142568249Y-82189190D01*
X142625951Y-82280361D01*
X142659611Y-82383624D01*
X142674998Y-82492282D01*
X142677670Y-82568255D01*
X142677670Y-83470000D01*
X142438312Y-83470000D01*
X142438312Y-82585352D01*
X142431154Y-82483285D01*
X142404240Y-82388706D01*
X142377739Y-82344528D01*
X142297081Y-82283544D01*
X142197977Y-82266371D01*
X142112003Y-82279560D01*
X142025053Y-82324989D01*
X141949299Y-82389675D01*
X141926379Y-82412916D01*
X141859081Y-82488109D01*
X141807677Y-82550669D01*
X141807677Y-83470000D01*
X141568807Y-83470000D01*
X141568807Y-82094424D01*
G37*
G36*
X143772971Y-82068490D02*
G01*
X143874515Y-82086028D01*
X143893510Y-82091004D01*
X143986323Y-82125687D01*
X144063503Y-82175024D01*
X144131338Y-82247495D01*
X144169993Y-82316685D01*
X144198961Y-82415679D01*
X144207118Y-82517452D01*
X144207118Y-83470000D01*
X143992673Y-83470000D01*
X143987300Y-83285352D01*
X143909318Y-83356433D01*
X143823325Y-83416860D01*
X143758200Y-83450460D01*
X143662120Y-83483353D01*
X143562010Y-83499477D01*
X143514446Y-83501263D01*
X143411134Y-83494608D01*
X143312212Y-83470976D01*
X143223352Y-83427090D01*
X143174460Y-83387934D01*
X143113527Y-83306179D01*
X143094836Y-83263370D01*
X143072437Y-83164074D01*
X143069435Y-83108032D01*
X143070585Y-83096308D01*
X143322471Y-83096308D01*
X143334683Y-83172512D01*
X143374250Y-83236992D01*
X143446058Y-83281933D01*
X143545234Y-83297990D01*
X143553036Y-83298053D01*
X143653483Y-83282287D01*
X143742080Y-83248227D01*
X143830538Y-83197753D01*
X143915626Y-83134132D01*
X143966783Y-83089469D01*
X143966783Y-82844738D01*
X143662945Y-82844738D01*
X143560936Y-82851798D01*
X143509072Y-82862812D01*
X143419448Y-82901707D01*
X143403071Y-82913614D01*
X143342010Y-82992749D01*
X143322547Y-83089149D01*
X143322471Y-83096308D01*
X143070585Y-83096308D01*
X143079083Y-83009663D01*
X143113000Y-82912573D01*
X143171338Y-82829858D01*
X143223797Y-82782700D01*
X143310442Y-82731195D01*
X143415527Y-82694406D01*
X143522604Y-82674287D01*
X143625621Y-82666010D01*
X143681019Y-82664975D01*
X143966783Y-82664975D01*
X143966783Y-82541388D01*
X143951730Y-82441598D01*
X143902192Y-82356053D01*
X143888137Y-82341598D01*
X143803948Y-82290173D01*
X143706632Y-82269015D01*
X143649268Y-82266371D01*
X143547768Y-82271046D01*
X143447576Y-82285071D01*
X143419191Y-82290795D01*
X143318532Y-82316093D01*
X143222385Y-82346617D01*
X143184718Y-82360160D01*
X143184718Y-82141318D01*
X143278913Y-82114270D01*
X143285834Y-82112498D01*
X143383980Y-82091027D01*
X143403071Y-82087585D01*
X143503284Y-82073012D01*
X143532520Y-82070000D01*
X143634186Y-82063588D01*
X143668319Y-82063161D01*
X143772971Y-82068490D01*
G37*
G36*
X144700489Y-82094424D02*
G01*
X144919330Y-82094424D01*
X144926169Y-82351367D01*
X144994592Y-82272559D01*
X145069983Y-82200584D01*
X145152142Y-82140364D01*
X145166993Y-82131549D01*
X145256363Y-82089875D01*
X145353955Y-82066433D01*
X145406839Y-82063161D01*
X145507559Y-82072015D01*
X145605322Y-82103141D01*
X145694643Y-82164011D01*
X145731682Y-82204822D01*
X145784627Y-82295402D01*
X145815860Y-82394214D01*
X145830967Y-82494799D01*
X145834667Y-82608567D01*
X145834264Y-82625896D01*
X145592464Y-82625896D01*
X145589832Y-82527789D01*
X145573497Y-82430235D01*
X145539219Y-82351856D01*
X145463986Y-82285154D01*
X145372645Y-82266371D01*
X145275436Y-82284445D01*
X145188188Y-82332530D01*
X145175297Y-82342086D01*
X145101539Y-82406671D01*
X145065876Y-82443203D01*
X144998402Y-82520792D01*
X144942289Y-82592679D01*
X144942289Y-83470000D01*
X144700489Y-83470000D01*
X144700489Y-82094424D01*
G37*
G36*
X147425262Y-83470000D02*
G01*
X147108235Y-83470000D01*
X146735520Y-82943900D01*
X146367690Y-83470000D01*
X146058479Y-83470000D01*
X146592882Y-82779281D01*
X146083392Y-82094424D01*
X146389672Y-82094424D01*
X146752129Y-82624919D01*
X147108235Y-82094424D01*
X147403280Y-82094424D01*
X146885485Y-82785143D01*
X147425262Y-83470000D01*
G37*
G36*
X148828681Y-83470000D02*
G01*
X148614236Y-83470000D01*
X148605932Y-83248227D01*
X148538544Y-83322776D01*
X148488695Y-83369860D01*
X148408897Y-83429788D01*
X148377809Y-83448018D01*
X148284790Y-83484957D01*
X148267411Y-83489050D01*
X148168918Y-83500964D01*
X148149686Y-83501263D01*
X148049730Y-83493447D01*
X147952898Y-83465969D01*
X147864704Y-83412236D01*
X147828263Y-83376210D01*
X147771076Y-83285297D01*
X147737716Y-83182184D01*
X147722466Y-83073595D01*
X147719819Y-82997634D01*
X147719819Y-82094424D01*
X147958688Y-82094424D01*
X147958688Y-82979560D01*
X147967103Y-83087798D01*
X147998192Y-83185771D01*
X148061771Y-83260418D01*
X148155270Y-83295253D01*
X148198046Y-83298053D01*
X148283531Y-83284863D01*
X148371459Y-83239434D01*
X148447844Y-83175046D01*
X148470621Y-83151995D01*
X148537919Y-83076286D01*
X148589323Y-83012777D01*
X148589323Y-82094424D01*
X148828681Y-82094424D01*
X148828681Y-83470000D01*
G37*
G36*
X150349826Y-83097773D02*
G01*
X150336956Y-83195280D01*
X150324913Y-83229176D01*
X150272970Y-83314459D01*
X150257502Y-83331758D01*
X150179413Y-83396080D01*
X150158828Y-83408450D01*
X150070168Y-83450033D01*
X150038660Y-83461207D01*
X149940750Y-83485936D01*
X149907258Y-83491493D01*
X149807973Y-83500652D01*
X149775367Y-83501263D01*
X149673449Y-83499477D01*
X149570324Y-83493511D01*
X149517935Y-83488562D01*
X149416194Y-83474884D01*
X149316137Y-83455223D01*
X149287858Y-83448506D01*
X149287858Y-83228199D01*
X149385730Y-83253321D01*
X149483279Y-83273123D01*
X149528193Y-83280467D01*
X149632632Y-83292488D01*
X149736509Y-83297778D01*
X149766085Y-83298053D01*
X149864565Y-83293473D01*
X149966629Y-83273827D01*
X150020098Y-83251158D01*
X150089027Y-83180941D01*
X150102652Y-83116824D01*
X150089463Y-83049902D01*
X150042080Y-82993237D01*
X149953069Y-82944244D01*
X149935590Y-82937062D01*
X149837565Y-82901856D01*
X149738242Y-82870628D01*
X149643108Y-82839357D01*
X149565806Y-82808101D01*
X149479647Y-82761278D01*
X149429030Y-82724082D01*
X149361318Y-82649737D01*
X149338172Y-82610753D01*
X149309311Y-82515384D01*
X149305443Y-82457369D01*
X149321842Y-82359982D01*
X149332310Y-82330362D01*
X149383771Y-82243528D01*
X149423657Y-82201402D01*
X149505370Y-82143872D01*
X149598535Y-82102728D01*
X149696866Y-82077110D01*
X149794173Y-82065634D01*
X149873064Y-82063161D01*
X149975556Y-82066433D01*
X150052827Y-82072442D01*
X150153943Y-82084654D01*
X150252289Y-82102314D01*
X150258968Y-82103705D01*
X150258968Y-82320104D01*
X150162810Y-82298880D01*
X150064557Y-82282157D01*
X150045499Y-82279560D01*
X149945645Y-82269269D01*
X149870133Y-82266371D01*
X149769688Y-82271714D01*
X149719679Y-82280048D01*
X149625798Y-82314710D01*
X149621005Y-82317662D01*
X149566783Y-82373349D01*
X149550175Y-82442226D01*
X149564341Y-82510125D01*
X149618074Y-82568743D01*
X149705929Y-82616554D01*
X149727007Y-82625408D01*
X149819588Y-82658827D01*
X149910189Y-82686957D01*
X150009659Y-82719241D01*
X150105249Y-82757740D01*
X150115841Y-82762672D01*
X150204421Y-82812350D01*
X150252129Y-82850111D01*
X150313770Y-82929795D01*
X150326867Y-82959532D01*
X150348010Y-83055437D01*
X150349826Y-83097773D01*
G37*
G36*
X151759596Y-82844738D02*
G01*
X150938451Y-82844738D01*
X150938451Y-82618080D01*
X151759596Y-82618080D01*
X151759596Y-82844738D01*
G37*
G36*
X153466365Y-83470000D02*
G01*
X152433217Y-83470000D01*
X152433217Y-81688004D01*
X152681857Y-81688004D01*
X152681857Y-83258974D01*
X153466365Y-83258974D01*
X153466365Y-83470000D01*
G37*
G36*
X155079833Y-81899030D02*
G01*
X154548360Y-81899030D01*
X154548360Y-83470000D01*
X154300698Y-83470000D01*
X154300698Y-81899030D01*
X153769226Y-81899030D01*
X153769226Y-81688004D01*
X155079833Y-81688004D01*
X155079833Y-81899030D01*
G37*
G36*
X139933534Y-85022942D02*
G01*
X140037616Y-85044089D01*
X140131193Y-85080244D01*
X140221433Y-85135130D01*
X140299446Y-85205266D01*
X140344661Y-85260495D01*
X140398237Y-85347214D01*
X140437927Y-85436668D01*
X140469030Y-85536235D01*
X140471668Y-85546748D01*
X140491975Y-85645181D01*
X140505636Y-85750337D01*
X140512201Y-85849454D01*
X140513677Y-85927278D01*
X140510943Y-86029910D01*
X140501119Y-86139476D01*
X140484152Y-86240798D01*
X140456525Y-86344933D01*
X140421444Y-86439022D01*
X140374942Y-86532235D01*
X140320522Y-86613522D01*
X140302652Y-86635582D01*
X140232231Y-86707241D01*
X140146456Y-86769614D01*
X140075994Y-86805575D01*
X139976778Y-86839510D01*
X139873303Y-86857782D01*
X139801954Y-86861263D01*
X139698217Y-86855157D01*
X139594135Y-86834335D01*
X139500558Y-86798736D01*
X139410387Y-86744079D01*
X139332580Y-86673898D01*
X139287578Y-86618485D01*
X139234559Y-86531153D01*
X139195174Y-86441241D01*
X139164186Y-86341311D01*
X139161549Y-86330767D01*
X139141714Y-86231746D01*
X139128370Y-86125924D01*
X139121959Y-86026150D01*
X139120516Y-85947794D01*
X139120891Y-85933628D01*
X139375017Y-85933628D01*
X139377903Y-86040156D01*
X139386562Y-86140103D01*
X139399442Y-86225254D01*
X139424278Y-86325972D01*
X139461304Y-86420914D01*
X139477111Y-86451423D01*
X139537683Y-86535198D01*
X139613887Y-86597969D01*
X139706333Y-86637170D01*
X139808306Y-86650186D01*
X139815631Y-86650237D01*
X139917083Y-86638001D01*
X140009681Y-86597975D01*
X140014934Y-86594549D01*
X140091504Y-86528482D01*
X140149757Y-86448576D01*
X140153175Y-86442630D01*
X140195196Y-86352684D01*
X140224504Y-86258112D01*
X140233287Y-86218904D01*
X140249361Y-86120077D01*
X140258016Y-86016304D01*
X140259665Y-85944375D01*
X140256779Y-85838739D01*
X140248121Y-85739453D01*
X140235241Y-85654703D01*
X140210875Y-85553588D01*
X140173636Y-85458219D01*
X140157571Y-85427557D01*
X140100785Y-85347701D01*
X140025070Y-85283343D01*
X140019818Y-85280034D01*
X139926518Y-85240833D01*
X139823077Y-85227817D01*
X139815631Y-85227766D01*
X139714638Y-85240110D01*
X139622528Y-85280486D01*
X139617306Y-85283942D01*
X139541591Y-85349644D01*
X139483917Y-85429428D01*
X139480530Y-85435373D01*
X139439083Y-85525506D01*
X139409806Y-85620587D01*
X139400907Y-85660076D01*
X139385130Y-85758766D01*
X139376635Y-85862126D01*
X139375017Y-85933628D01*
X139120891Y-85933628D01*
X139123204Y-85846304D01*
X139132860Y-85737700D01*
X139149537Y-85636973D01*
X139176692Y-85533070D01*
X139211734Y-85439020D01*
X139258102Y-85345941D01*
X139318143Y-85257438D01*
X139330077Y-85242909D01*
X139400659Y-85170973D01*
X139486217Y-85108428D01*
X139556245Y-85072428D01*
X139655164Y-85038493D01*
X139758479Y-85020221D01*
X139829797Y-85016741D01*
X139933534Y-85022942D01*
G37*
G36*
X141598339Y-85432791D02*
G01*
X141691010Y-85464483D01*
X141708025Y-85473475D01*
X141790091Y-85533681D01*
X141853718Y-85608978D01*
X141857502Y-85614647D01*
X141904705Y-85701441D01*
X141938156Y-85795096D01*
X141948360Y-85834466D01*
X141966815Y-85935010D01*
X141976250Y-86034537D01*
X141978646Y-86121207D01*
X141974550Y-86222422D01*
X141960392Y-86326092D01*
X141933137Y-86429439D01*
X141926867Y-86447027D01*
X141886929Y-86536862D01*
X141832695Y-86622225D01*
X141784717Y-86677592D01*
X141705810Y-86744630D01*
X141615938Y-86796512D01*
X141570760Y-86815345D01*
X141475116Y-86843326D01*
X141373565Y-86858393D01*
X141302582Y-86861263D01*
X141203938Y-86855492D01*
X141171179Y-86851004D01*
X141072352Y-86827649D01*
X141038800Y-86816322D01*
X141038800Y-87392735D01*
X140799930Y-87392735D01*
X140799930Y-85927766D01*
X141038800Y-85927766D01*
X141038800Y-86605785D01*
X141132707Y-86638528D01*
X141177529Y-86649748D01*
X141276663Y-86664294D01*
X141320656Y-86665868D01*
X141423095Y-86655358D01*
X141521326Y-86619027D01*
X141603147Y-86556745D01*
X141624494Y-86533000D01*
X141677624Y-86447597D01*
X141710253Y-86353777D01*
X141729144Y-86243105D01*
X141734403Y-86132442D01*
X141730861Y-86033373D01*
X141718283Y-85930697D01*
X141694670Y-85835729D01*
X141667969Y-85773405D01*
X141608721Y-85694199D01*
X141580042Y-85671311D01*
X141488359Y-85636507D01*
X141452547Y-85634187D01*
X141360223Y-85648841D01*
X141269777Y-85693492D01*
X141263503Y-85697690D01*
X141185467Y-85761345D01*
X141157990Y-85788060D01*
X141089106Y-85864412D01*
X141038800Y-85927766D01*
X140799930Y-85927766D01*
X140799930Y-85454424D01*
X141012910Y-85454424D01*
X141028053Y-85684501D01*
X141093808Y-85602574D01*
X141169223Y-85531960D01*
X141247871Y-85481779D01*
X141345873Y-85443826D01*
X141450164Y-85425221D01*
X141500419Y-85423161D01*
X141598339Y-85432791D01*
G37*
G36*
X143008778Y-85429480D02*
G01*
X143110489Y-85450590D01*
X143160781Y-85468101D01*
X143251502Y-85514196D01*
X143328759Y-85574690D01*
X143348360Y-85594619D01*
X143407932Y-85673252D01*
X143453293Y-85765536D01*
X143463643Y-85794410D01*
X143488945Y-85894260D01*
X143500851Y-85994586D01*
X143502721Y-86056727D01*
X143501256Y-86141235D01*
X143497348Y-86204738D01*
X142528681Y-86204738D01*
X142536069Y-86307808D01*
X142562044Y-86408581D01*
X142612839Y-86501699D01*
X142646894Y-86540816D01*
X142730939Y-86602640D01*
X142823954Y-86638704D01*
X142920453Y-86655190D01*
X142987369Y-86658053D01*
X143085799Y-86654828D01*
X143108513Y-86653168D01*
X143207599Y-86641666D01*
X143225262Y-86639002D01*
X143323068Y-86621460D01*
X143332728Y-86619462D01*
X143428472Y-86595526D01*
X143428472Y-86790921D01*
X143331299Y-86817654D01*
X143230534Y-86837956D01*
X143207676Y-86841723D01*
X143106524Y-86854374D01*
X143002308Y-86860576D01*
X142953175Y-86861263D01*
X142847168Y-86856540D01*
X142741690Y-86840436D01*
X142647871Y-86812903D01*
X142558639Y-86770519D01*
X142476389Y-86710805D01*
X142438311Y-86672707D01*
X142379044Y-86590922D01*
X142333804Y-86495593D01*
X142317655Y-86447027D01*
X142295406Y-86351188D01*
X142282393Y-86247038D01*
X142278576Y-86145143D01*
X142283540Y-86046297D01*
X142288253Y-86017159D01*
X142528681Y-86017159D01*
X143254082Y-86017159D01*
X143249596Y-85915936D01*
X143236008Y-85853028D01*
X143194470Y-85760422D01*
X143168109Y-85725045D01*
X143090241Y-85659916D01*
X143053315Y-85641025D01*
X142959052Y-85614998D01*
X142894068Y-85610739D01*
X142797166Y-85623572D01*
X142750942Y-85640537D01*
X142667336Y-85695286D01*
X142639567Y-85723579D01*
X142584071Y-85807181D01*
X142564340Y-85852051D01*
X142537865Y-85946549D01*
X142528681Y-86017159D01*
X142288253Y-86017159D01*
X142300279Y-85942811D01*
X142320586Y-85868171D01*
X142357451Y-85774519D01*
X142409482Y-85683296D01*
X142442707Y-85638583D01*
X142514161Y-85564785D01*
X142597546Y-85504532D01*
X142640056Y-85481290D01*
X142732082Y-85445868D01*
X142833038Y-85426794D01*
X142905303Y-85423161D01*
X143008778Y-85429480D01*
G37*
G36*
X143875436Y-85454424D02*
G01*
X144088416Y-85454424D01*
X144098185Y-85676196D01*
X144164543Y-85601647D01*
X144214445Y-85554563D01*
X144294638Y-85494887D01*
X144325331Y-85476894D01*
X144418222Y-85439478D01*
X144435729Y-85435373D01*
X144534132Y-85423459D01*
X144552966Y-85423161D01*
X144652953Y-85431038D01*
X144749892Y-85458730D01*
X144838296Y-85512883D01*
X144874878Y-85549190D01*
X144932580Y-85640361D01*
X144966240Y-85743624D01*
X144981627Y-85852282D01*
X144984298Y-85928255D01*
X144984298Y-86830000D01*
X144744940Y-86830000D01*
X144744940Y-85945352D01*
X144737783Y-85843285D01*
X144710869Y-85748706D01*
X144684368Y-85704528D01*
X144603710Y-85643544D01*
X144504606Y-85626371D01*
X144418632Y-85639560D01*
X144331682Y-85684989D01*
X144255928Y-85749675D01*
X144233007Y-85772916D01*
X144165710Y-85848109D01*
X144114305Y-85910669D01*
X144114305Y-86830000D01*
X143875436Y-86830000D01*
X143875436Y-85454424D01*
G37*
G36*
X148043196Y-86457773D02*
G01*
X148030326Y-86555280D01*
X148018283Y-86589176D01*
X147966340Y-86674459D01*
X147950872Y-86691758D01*
X147872783Y-86756080D01*
X147852198Y-86768450D01*
X147763538Y-86810033D01*
X147732031Y-86821207D01*
X147634120Y-86845936D01*
X147600628Y-86851493D01*
X147501343Y-86860652D01*
X147468737Y-86861263D01*
X147366819Y-86859477D01*
X147263694Y-86853511D01*
X147211305Y-86848562D01*
X147109564Y-86834884D01*
X147009507Y-86815223D01*
X146981228Y-86808506D01*
X146981228Y-86588199D01*
X147079100Y-86613321D01*
X147176649Y-86633123D01*
X147221563Y-86640467D01*
X147326002Y-86652488D01*
X147429879Y-86657778D01*
X147459455Y-86658053D01*
X147557935Y-86653473D01*
X147659999Y-86633827D01*
X147713468Y-86611158D01*
X147782397Y-86540941D01*
X147796022Y-86476824D01*
X147782833Y-86409902D01*
X147735450Y-86353237D01*
X147646439Y-86304244D01*
X147628960Y-86297062D01*
X147530935Y-86261856D01*
X147431612Y-86230628D01*
X147336478Y-86199357D01*
X147259176Y-86168101D01*
X147173017Y-86121278D01*
X147122400Y-86084082D01*
X147054688Y-86009737D01*
X147031542Y-85970753D01*
X147002681Y-85875384D01*
X146998813Y-85817369D01*
X147015212Y-85719982D01*
X147025680Y-85690362D01*
X147077142Y-85603528D01*
X147117027Y-85561402D01*
X147198740Y-85503872D01*
X147291905Y-85462728D01*
X147390236Y-85437110D01*
X147487543Y-85425634D01*
X147566434Y-85423161D01*
X147668926Y-85426433D01*
X147746197Y-85432442D01*
X147847313Y-85444654D01*
X147945659Y-85462314D01*
X147952338Y-85463705D01*
X147952338Y-85680104D01*
X147856180Y-85658880D01*
X147757927Y-85642157D01*
X147738869Y-85639560D01*
X147639015Y-85629269D01*
X147563503Y-85626371D01*
X147463058Y-85631714D01*
X147413049Y-85640048D01*
X147319169Y-85674710D01*
X147314375Y-85677662D01*
X147260153Y-85733349D01*
X147243545Y-85802226D01*
X147257711Y-85870125D01*
X147311444Y-85928743D01*
X147399299Y-85976554D01*
X147420377Y-85985408D01*
X147512958Y-86018827D01*
X147603559Y-86046957D01*
X147703029Y-86079241D01*
X147798619Y-86117740D01*
X147809211Y-86122672D01*
X147897791Y-86172350D01*
X147945499Y-86210111D01*
X148007140Y-86289795D01*
X148020237Y-86319532D01*
X148041380Y-86415437D01*
X148043196Y-86457773D01*
G37*
G36*
X149154436Y-85428644D02*
G01*
X149253183Y-85447134D01*
X149321563Y-85469567D01*
X149411249Y-85514366D01*
X149494490Y-85578480D01*
X149520865Y-85605366D01*
X149581094Y-85684856D01*
X149628424Y-85778858D01*
X149645917Y-85827138D01*
X149670669Y-85922767D01*
X149685147Y-86027631D01*
X149689393Y-86130976D01*
X149684956Y-86229666D01*
X149669828Y-86332053D01*
X149643964Y-86427976D01*
X149604556Y-86523666D01*
X149553746Y-86608502D01*
X149513538Y-86659030D01*
X149438270Y-86729807D01*
X149350588Y-86786557D01*
X149305931Y-86808018D01*
X149209669Y-86840464D01*
X149113222Y-86857051D01*
X149028472Y-86861263D01*
X148930293Y-86855779D01*
X148831351Y-86837289D01*
X148762735Y-86814856D01*
X148673285Y-86769976D01*
X148595444Y-86710746D01*
X148563433Y-86678569D01*
X148503440Y-86598526D01*
X148456024Y-86504456D01*
X148438381Y-86456308D01*
X148413907Y-86360228D01*
X148399592Y-86254682D01*
X148395394Y-86150516D01*
X148395787Y-86141723D01*
X148639637Y-86141723D01*
X148644313Y-86240947D01*
X148661329Y-86342613D01*
X148667969Y-86367404D01*
X148704689Y-86461070D01*
X148748081Y-86528604D01*
X148822002Y-86596801D01*
X148874599Y-86625812D01*
X148969486Y-86652732D01*
X149042149Y-86658053D01*
X149141800Y-86647550D01*
X149225820Y-86616043D01*
X149306668Y-86555760D01*
X149350872Y-86503203D01*
X149397481Y-86416409D01*
X149422191Y-86339071D01*
X149439410Y-86242840D01*
X149445150Y-86141723D01*
X149440474Y-86042344D01*
X149423458Y-85941101D01*
X149416818Y-85916531D01*
X149379959Y-85823246D01*
X149336218Y-85755819D01*
X149262105Y-85687813D01*
X149209211Y-85659099D01*
X149114260Y-85631772D01*
X149042149Y-85626371D01*
X148942864Y-85636995D01*
X148858967Y-85668869D01*
X148778119Y-85728916D01*
X148733915Y-85781709D01*
X148687152Y-85868263D01*
X148662107Y-85945840D01*
X148644574Y-86047592D01*
X148639637Y-86141723D01*
X148395787Y-86141723D01*
X148399783Y-86052227D01*
X148414748Y-85950501D01*
X148440335Y-85855471D01*
X148479971Y-85760445D01*
X148530735Y-85676135D01*
X148570760Y-85625882D01*
X148646263Y-85554789D01*
X148733859Y-85497884D01*
X148778367Y-85476406D01*
X148874927Y-85443960D01*
X148971526Y-85427372D01*
X149056315Y-85423161D01*
X149154436Y-85428644D01*
G37*
G36*
X151135310Y-86830000D02*
G01*
X150920865Y-86830000D01*
X150912561Y-86608227D01*
X150845173Y-86682776D01*
X150795324Y-86729860D01*
X150715526Y-86789788D01*
X150684438Y-86808018D01*
X150591419Y-86844957D01*
X150574040Y-86849050D01*
X150475547Y-86860964D01*
X150456315Y-86861263D01*
X150356359Y-86853447D01*
X150259527Y-86825969D01*
X150171332Y-86772236D01*
X150134892Y-86736210D01*
X150077704Y-86645297D01*
X150044345Y-86542184D01*
X150029095Y-86433595D01*
X150026448Y-86357634D01*
X150026448Y-85454424D01*
X150265317Y-85454424D01*
X150265317Y-86339560D01*
X150273732Y-86447798D01*
X150304821Y-86545771D01*
X150368400Y-86620418D01*
X150461899Y-86655253D01*
X150504675Y-86658053D01*
X150590160Y-86644863D01*
X150678088Y-86599434D01*
X150754473Y-86535046D01*
X150777250Y-86511995D01*
X150844548Y-86436286D01*
X150895952Y-86372777D01*
X150895952Y-85454424D01*
X151135310Y-85454424D01*
X151135310Y-86830000D01*
G37*
G36*
X151620377Y-85454424D02*
G01*
X151839218Y-85454424D01*
X151846057Y-85711367D01*
X151914480Y-85632559D01*
X151989871Y-85560584D01*
X152072029Y-85500364D01*
X152086880Y-85491549D01*
X152176250Y-85449875D01*
X152273843Y-85426433D01*
X152326727Y-85423161D01*
X152427447Y-85432015D01*
X152525210Y-85463141D01*
X152614530Y-85524011D01*
X152651570Y-85564822D01*
X152704515Y-85655402D01*
X152735748Y-85754214D01*
X152750855Y-85854799D01*
X152754555Y-85968567D01*
X152754152Y-85985896D01*
X152512352Y-85985896D01*
X152509720Y-85887789D01*
X152493385Y-85790235D01*
X152459107Y-85711856D01*
X152383874Y-85645154D01*
X152292533Y-85626371D01*
X152195324Y-85644445D01*
X152108076Y-85692530D01*
X152095185Y-85702086D01*
X152021427Y-85766671D01*
X151985764Y-85803203D01*
X151918290Y-85880792D01*
X151862177Y-85952679D01*
X151862177Y-86830000D01*
X151620377Y-86830000D01*
X151620377Y-85454424D01*
G37*
G36*
X154173691Y-86790921D02*
G01*
X154079047Y-86821939D01*
X153981716Y-86843677D01*
X153882065Y-86856866D01*
X153779483Y-86861263D01*
X153680880Y-86856874D01*
X153572253Y-86840021D01*
X153474205Y-86810529D01*
X153373185Y-86760146D01*
X153286565Y-86692559D01*
X153275366Y-86681500D01*
X153206654Y-86594930D01*
X153161191Y-86508113D01*
X153128126Y-86409652D01*
X153107461Y-86299548D01*
X153099712Y-86198901D01*
X153099023Y-86156378D01*
X153103984Y-86055628D01*
X153120902Y-85951855D01*
X153149825Y-85855471D01*
X153193995Y-85759483D01*
X153249568Y-85674487D01*
X153292952Y-85623928D01*
X153366911Y-85557937D01*
X153451038Y-85504310D01*
X153512770Y-85475429D01*
X153612398Y-85443578D01*
X153710121Y-85427295D01*
X153794626Y-85423161D01*
X153898185Y-85427313D01*
X153994906Y-85439769D01*
X154091832Y-85462963D01*
X154173691Y-85493503D01*
X154173691Y-85720160D01*
X154083444Y-85677906D01*
X153991486Y-85648841D01*
X153891219Y-85631308D01*
X153800000Y-85626371D01*
X153699536Y-85637808D01*
X153626099Y-85662519D01*
X153540507Y-85712682D01*
X153482484Y-85765589D01*
X153424257Y-85845242D01*
X153384787Y-85929720D01*
X153359192Y-86025977D01*
X153349441Y-86125887D01*
X153349128Y-86148562D01*
X153354948Y-86254186D01*
X153375854Y-86359844D01*
X153417546Y-86459514D01*
X153470760Y-86531046D01*
X153555988Y-86598022D01*
X153648436Y-86637092D01*
X153755799Y-86656068D01*
X153808304Y-86658053D01*
X153909934Y-86651435D01*
X153996860Y-86634605D01*
X154092261Y-86603075D01*
X154173691Y-86564263D01*
X154173691Y-86790921D01*
G37*
G36*
X155310802Y-85429480D02*
G01*
X155412513Y-85450590D01*
X155462805Y-85468101D01*
X155553526Y-85514196D01*
X155630783Y-85574690D01*
X155650384Y-85594619D01*
X155709956Y-85673252D01*
X155755316Y-85765536D01*
X155765666Y-85794410D01*
X155790968Y-85894260D01*
X155802875Y-85994586D01*
X155804745Y-86056727D01*
X155803280Y-86141235D01*
X155799372Y-86204738D01*
X154830705Y-86204738D01*
X154838093Y-86307808D01*
X154864068Y-86408581D01*
X154914863Y-86501699D01*
X154948918Y-86540816D01*
X155032963Y-86602640D01*
X155125978Y-86638704D01*
X155222476Y-86655190D01*
X155289393Y-86658053D01*
X155387823Y-86654828D01*
X155410537Y-86653168D01*
X155509623Y-86641666D01*
X155527285Y-86639002D01*
X155625092Y-86621460D01*
X155634752Y-86619462D01*
X155730495Y-86595526D01*
X155730495Y-86790921D01*
X155633323Y-86817654D01*
X155532557Y-86837956D01*
X155509700Y-86841723D01*
X155408547Y-86854374D01*
X155304332Y-86860576D01*
X155255199Y-86861263D01*
X155149192Y-86856540D01*
X155043713Y-86840436D01*
X154949895Y-86812903D01*
X154860663Y-86770519D01*
X154778412Y-86710805D01*
X154740335Y-86672707D01*
X154681067Y-86590922D01*
X154635827Y-86495593D01*
X154619679Y-86447027D01*
X154597430Y-86351188D01*
X154584416Y-86247038D01*
X154580600Y-86145143D01*
X154585564Y-86046297D01*
X154590277Y-86017159D01*
X154830705Y-86017159D01*
X155556106Y-86017159D01*
X155551619Y-85915936D01*
X155538032Y-85853028D01*
X155496493Y-85760422D01*
X155470132Y-85725045D01*
X155392265Y-85659916D01*
X155355338Y-85641025D01*
X155261076Y-85614998D01*
X155196092Y-85610739D01*
X155099190Y-85623572D01*
X155052966Y-85640537D01*
X154969360Y-85695286D01*
X154941591Y-85723579D01*
X154886094Y-85807181D01*
X154866364Y-85852051D01*
X154839889Y-85946549D01*
X154830705Y-86017159D01*
X154590277Y-86017159D01*
X154602302Y-85942811D01*
X154622610Y-85868171D01*
X154659475Y-85774519D01*
X154711506Y-85683296D01*
X154744731Y-85638583D01*
X154816185Y-85564785D01*
X154899570Y-85504532D01*
X154942079Y-85481290D01*
X155034105Y-85445868D01*
X155135062Y-85426794D01*
X155207327Y-85423161D01*
X155310802Y-85429480D01*
G37*
G36*
X136564759Y-90143105D02*
G01*
X136469507Y-90173559D01*
X136372245Y-90196533D01*
X136272972Y-90212027D01*
X136171689Y-90220041D01*
X136112910Y-90221263D01*
X135998300Y-90215705D01*
X135892300Y-90199033D01*
X135794910Y-90171245D01*
X135689409Y-90123229D01*
X135596307Y-90059207D01*
X135528193Y-89993628D01*
X135458967Y-89900406D01*
X135412220Y-89810992D01*
X135375419Y-89710917D01*
X135348564Y-89600180D01*
X135331656Y-89478782D01*
X135325290Y-89373986D01*
X135324494Y-89319030D01*
X135328005Y-89213425D01*
X135338538Y-89113011D01*
X135358781Y-89006248D01*
X135380670Y-88927752D01*
X135416094Y-88833595D01*
X135464428Y-88738856D01*
X135522206Y-88654516D01*
X135541382Y-88631242D01*
X135610963Y-88560402D01*
X135689034Y-88500534D01*
X135775597Y-88451637D01*
X135793929Y-88443175D01*
X135890224Y-88408141D01*
X135993483Y-88386083D01*
X136092371Y-88377324D01*
X136126588Y-88376741D01*
X136225210Y-88380852D01*
X136324747Y-88394476D01*
X136358619Y-88401653D01*
X136457437Y-88430912D01*
X136552391Y-88471978D01*
X136564759Y-88478346D01*
X136564759Y-88720635D01*
X136478299Y-88672816D01*
X136382551Y-88634033D01*
X136363015Y-88627822D01*
X136260826Y-88604681D01*
X136157897Y-88595866D01*
X136134892Y-88595582D01*
X136036047Y-88603402D01*
X135938434Y-88629315D01*
X135905792Y-88642965D01*
X135816842Y-88696832D01*
X135746023Y-88764152D01*
X135732380Y-88780718D01*
X135676240Y-88867365D01*
X135635329Y-88961386D01*
X135622471Y-89001025D01*
X135598955Y-89103630D01*
X135586933Y-89206736D01*
X135583880Y-89297536D01*
X135587339Y-89402637D01*
X135600619Y-89517675D01*
X135623861Y-89620624D01*
X135663564Y-89725450D01*
X135716826Y-89813820D01*
X135725541Y-89825101D01*
X135804584Y-89902678D01*
X135900053Y-89958091D01*
X135997061Y-89988395D01*
X136106646Y-90001728D01*
X136140265Y-90002421D01*
X136239602Y-89997746D01*
X136341676Y-89982362D01*
X136361549Y-89977997D01*
X136458994Y-89950348D01*
X136552574Y-89914112D01*
X136564759Y-89908632D01*
X136564759Y-90143105D01*
G37*
G36*
X138064411Y-90190000D02*
G01*
X137825053Y-90190000D01*
X137825053Y-89305352D01*
X137818011Y-89204780D01*
X137791530Y-89110629D01*
X137765457Y-89065994D01*
X137687524Y-89003866D01*
X137594487Y-88986371D01*
X137504117Y-88999560D01*
X137417167Y-89044989D01*
X137341115Y-89109675D01*
X137318004Y-89132916D01*
X137248749Y-89208109D01*
X137194418Y-89270669D01*
X137194418Y-90190000D01*
X136955548Y-90190000D01*
X136955548Y-88251688D01*
X137194418Y-88251688D01*
X137194418Y-88810027D01*
X137186602Y-89025450D01*
X137252622Y-88952976D01*
X137297000Y-88912121D01*
X137378332Y-88852404D01*
X137405443Y-88836894D01*
X137498334Y-88800083D01*
X137515841Y-88795861D01*
X137614244Y-88783471D01*
X137633078Y-88783161D01*
X137741416Y-88793130D01*
X137835070Y-88823037D01*
X137921910Y-88879652D01*
X137951570Y-88909190D01*
X138011076Y-89000361D01*
X138045788Y-89103624D01*
X138061656Y-89212282D01*
X138064411Y-89288255D01*
X138064411Y-90190000D01*
G37*
G36*
X138549477Y-88814424D02*
G01*
X138768318Y-88814424D01*
X138775157Y-89071367D01*
X138843580Y-88992559D01*
X138918971Y-88920584D01*
X139001130Y-88860364D01*
X139015981Y-88851549D01*
X139105351Y-88809875D01*
X139202943Y-88786433D01*
X139255827Y-88783161D01*
X139356547Y-88792015D01*
X139454310Y-88823141D01*
X139543631Y-88884011D01*
X139580670Y-88924822D01*
X139633616Y-89015402D01*
X139664848Y-89114214D01*
X139679955Y-89214799D01*
X139683655Y-89328567D01*
X139683252Y-89345896D01*
X139441452Y-89345896D01*
X139438820Y-89247789D01*
X139422485Y-89150235D01*
X139388207Y-89071856D01*
X139312974Y-89005154D01*
X139221633Y-88986371D01*
X139124425Y-89004445D01*
X139037176Y-89052530D01*
X139024285Y-89062086D01*
X138950527Y-89126671D01*
X138914864Y-89163203D01*
X138847390Y-89240792D01*
X138791277Y-89312679D01*
X138791277Y-90190000D01*
X138549477Y-90190000D01*
X138549477Y-88814424D01*
G37*
G36*
X140696796Y-88788644D02*
G01*
X140795542Y-88807134D01*
X140863922Y-88829567D01*
X140953608Y-88874366D01*
X141036849Y-88938480D01*
X141063224Y-88965366D01*
X141123453Y-89044856D01*
X141170783Y-89138858D01*
X141188277Y-89187138D01*
X141213029Y-89282767D01*
X141227506Y-89387631D01*
X141231752Y-89490976D01*
X141227315Y-89589666D01*
X141212187Y-89692053D01*
X141186323Y-89787976D01*
X141146916Y-89883666D01*
X141096105Y-89968502D01*
X141055897Y-90019030D01*
X140980630Y-90089807D01*
X140892947Y-90146557D01*
X140848291Y-90168018D01*
X140752028Y-90200464D01*
X140655581Y-90217051D01*
X140570831Y-90221263D01*
X140472652Y-90215779D01*
X140373710Y-90197289D01*
X140305094Y-90174856D01*
X140215644Y-90129976D01*
X140137803Y-90070746D01*
X140105792Y-90038569D01*
X140045799Y-89958526D01*
X139998383Y-89864456D01*
X139980740Y-89816308D01*
X139956266Y-89720228D01*
X139941951Y-89614682D01*
X139937753Y-89510516D01*
X139938146Y-89501723D01*
X140181996Y-89501723D01*
X140186672Y-89600947D01*
X140203688Y-89702613D01*
X140210328Y-89727404D01*
X140247049Y-89821070D01*
X140290440Y-89888604D01*
X140364361Y-89956801D01*
X140416958Y-89985812D01*
X140511846Y-90012732D01*
X140584508Y-90018053D01*
X140684159Y-90007550D01*
X140768179Y-89976043D01*
X140849027Y-89915760D01*
X140893231Y-89863203D01*
X140939840Y-89776409D01*
X140964550Y-89699071D01*
X140981769Y-89602840D01*
X140987509Y-89501723D01*
X140982833Y-89402344D01*
X140965817Y-89301101D01*
X140959177Y-89276531D01*
X140922319Y-89183246D01*
X140878577Y-89115819D01*
X140804464Y-89047813D01*
X140751570Y-89019099D01*
X140656619Y-88991772D01*
X140584508Y-88986371D01*
X140485224Y-88996995D01*
X140401326Y-89028869D01*
X140320478Y-89088916D01*
X140276274Y-89141709D01*
X140229511Y-89228263D01*
X140204466Y-89305840D01*
X140186933Y-89407592D01*
X140181996Y-89501723D01*
X139938146Y-89501723D01*
X139942142Y-89412227D01*
X139957108Y-89310501D01*
X139982694Y-89215471D01*
X140022330Y-89120445D01*
X140073094Y-89036135D01*
X140113120Y-88985882D01*
X140188623Y-88914789D01*
X140276218Y-88857884D01*
X140320726Y-88836406D01*
X140417286Y-88803960D01*
X140513885Y-88787372D01*
X140598674Y-88783161D01*
X140696796Y-88788644D01*
G37*
G36*
X141568807Y-88814424D02*
G01*
X141781787Y-88814424D01*
X141791556Y-89036196D01*
X141857914Y-88961647D01*
X141907816Y-88914563D01*
X141988009Y-88854887D01*
X142018702Y-88836894D01*
X142111593Y-88799478D01*
X142129100Y-88795373D01*
X142227503Y-88783459D01*
X142246337Y-88783161D01*
X142346323Y-88791038D01*
X142443263Y-88818730D01*
X142531667Y-88872883D01*
X142568249Y-88909190D01*
X142625951Y-89000361D01*
X142659611Y-89103624D01*
X142674998Y-89212282D01*
X142677669Y-89288255D01*
X142677669Y-90190000D01*
X142438311Y-90190000D01*
X142438311Y-89305352D01*
X142431154Y-89203285D01*
X142404240Y-89108706D01*
X142377739Y-89064528D01*
X142297081Y-89003544D01*
X142197977Y-88986371D01*
X142112003Y-88999560D01*
X142025053Y-89044989D01*
X141949299Y-89109675D01*
X141926378Y-89132916D01*
X141859080Y-89208109D01*
X141807676Y-89270669D01*
X141807676Y-90190000D01*
X141568807Y-90190000D01*
X141568807Y-88814424D01*
G37*
G36*
X143772301Y-88788644D02*
G01*
X143871048Y-88807134D01*
X143939428Y-88829567D01*
X144029114Y-88874366D01*
X144112355Y-88938480D01*
X144138730Y-88965366D01*
X144198959Y-89044856D01*
X144246289Y-89138858D01*
X144263783Y-89187138D01*
X144288535Y-89282767D01*
X144303012Y-89387631D01*
X144307258Y-89490976D01*
X144302821Y-89589666D01*
X144287693Y-89692053D01*
X144261829Y-89787976D01*
X144222422Y-89883666D01*
X144171611Y-89968502D01*
X144131403Y-90019030D01*
X144056136Y-90089807D01*
X143968453Y-90146557D01*
X143923796Y-90168018D01*
X143827534Y-90200464D01*
X143731087Y-90217051D01*
X143646337Y-90221263D01*
X143548158Y-90215779D01*
X143449216Y-90197289D01*
X143380600Y-90174856D01*
X143291150Y-90129976D01*
X143213309Y-90070746D01*
X143181298Y-90038569D01*
X143121305Y-89958526D01*
X143073889Y-89864456D01*
X143056246Y-89816308D01*
X143031772Y-89720228D01*
X143017457Y-89614682D01*
X143013259Y-89510516D01*
X143013652Y-89501723D01*
X143257502Y-89501723D01*
X143262178Y-89600947D01*
X143279194Y-89702613D01*
X143285834Y-89727404D01*
X143322555Y-89821070D01*
X143365946Y-89888604D01*
X143439867Y-89956801D01*
X143492464Y-89985812D01*
X143587351Y-90012732D01*
X143660014Y-90018053D01*
X143759665Y-90007550D01*
X143843685Y-89976043D01*
X143924533Y-89915760D01*
X143968737Y-89863203D01*
X144015346Y-89776409D01*
X144040056Y-89699071D01*
X144057275Y-89602840D01*
X144063015Y-89501723D01*
X144058339Y-89402344D01*
X144041323Y-89301101D01*
X144034683Y-89276531D01*
X143997824Y-89183246D01*
X143954083Y-89115819D01*
X143879970Y-89047813D01*
X143827076Y-89019099D01*
X143732125Y-88991772D01*
X143660014Y-88986371D01*
X143560729Y-88996995D01*
X143476832Y-89028869D01*
X143395984Y-89088916D01*
X143351780Y-89141709D01*
X143305017Y-89228263D01*
X143279972Y-89305840D01*
X143262439Y-89407592D01*
X143257502Y-89501723D01*
X143013652Y-89501723D01*
X143017648Y-89412227D01*
X143032613Y-89310501D01*
X143058200Y-89215471D01*
X143097836Y-89120445D01*
X143148600Y-89036135D01*
X143188625Y-88985882D01*
X143264128Y-88914789D01*
X143351724Y-88857884D01*
X143396232Y-88836406D01*
X143492792Y-88803960D01*
X143589391Y-88787372D01*
X143674180Y-88783161D01*
X143772301Y-88788644D01*
G37*
G36*
X145275925Y-88791953D02*
G01*
X145358967Y-88814424D01*
X145858688Y-88814424D01*
X145858688Y-89009818D01*
X145637404Y-89009818D01*
X145688504Y-89093637D01*
X145697000Y-89115819D01*
X145717150Y-89212173D01*
X145718493Y-89246734D01*
X145708723Y-89347728D01*
X145679414Y-89439685D01*
X145628794Y-89525558D01*
X145569016Y-89589651D01*
X145485244Y-89648226D01*
X145398046Y-89686859D01*
X145300223Y-89711403D01*
X145200980Y-89720753D01*
X145178716Y-89721053D01*
X145079831Y-89714509D01*
X145016539Y-89702491D01*
X144921284Y-89669701D01*
X144897348Y-89656573D01*
X144852896Y-89729357D01*
X144835311Y-89807027D01*
X144885136Y-89893977D01*
X144978742Y-89928141D01*
X145018004Y-89931591D01*
X145380949Y-89944780D01*
X145479746Y-89953084D01*
X145570970Y-89972135D01*
X145666021Y-90008308D01*
X145720935Y-90041988D01*
X145791010Y-90111081D01*
X145818144Y-90154829D01*
X145849159Y-90251921D01*
X145853315Y-90310167D01*
X145842010Y-90408999D01*
X145813259Y-90491395D01*
X145758949Y-90576433D01*
X145690649Y-90641849D01*
X145602922Y-90696961D01*
X145510917Y-90735348D01*
X145479623Y-90745408D01*
X145376904Y-90768924D01*
X145270917Y-90780946D01*
X145175785Y-90783998D01*
X145075932Y-90781231D01*
X144977333Y-90771796D01*
X144890510Y-90755666D01*
X144795875Y-90727189D01*
X144707184Y-90684568D01*
X144697558Y-90678485D01*
X144622519Y-90613181D01*
X144587649Y-90560760D01*
X144557495Y-90465321D01*
X144553455Y-90410795D01*
X144555373Y-90394675D01*
X144807956Y-90394675D01*
X144836631Y-90490515D01*
X144909561Y-90548060D01*
X145005256Y-90579371D01*
X145106756Y-90593397D01*
X145192394Y-90596420D01*
X145291398Y-90591482D01*
X145383880Y-90573949D01*
X145476360Y-90536798D01*
X145508933Y-90515331D01*
X145573233Y-90440503D01*
X145577321Y-90431800D01*
X145597837Y-90336057D01*
X145570932Y-90240993D01*
X145528960Y-90201723D01*
X145435619Y-90166252D01*
X145336333Y-90152894D01*
X145318912Y-90151898D01*
X144958898Y-90139685D01*
X144883671Y-90203189D01*
X144837753Y-90266203D01*
X144814794Y-90330195D01*
X144807956Y-90394675D01*
X144555373Y-90394675D01*
X144565178Y-90312243D01*
X144600349Y-90226636D01*
X144664375Y-90144591D01*
X144738426Y-90079302D01*
X144744452Y-90074717D01*
X144682415Y-90033684D01*
X144639916Y-89979462D01*
X144615492Y-89916936D01*
X144607188Y-89852456D01*
X144621998Y-89751813D01*
X144649198Y-89689302D01*
X144704595Y-89604058D01*
X144748849Y-89549106D01*
X144702443Y-89488046D01*
X144668249Y-89424054D01*
X144646267Y-89349316D01*
X144638940Y-89257480D01*
X144639460Y-89252107D01*
X144880740Y-89252107D01*
X144895251Y-89349793D01*
X144902722Y-89370321D01*
X144957007Y-89454874D01*
X144964271Y-89462156D01*
X145048507Y-89516690D01*
X145058549Y-89520774D01*
X145154399Y-89540569D01*
X145178716Y-89541290D01*
X145276902Y-89528101D01*
X145305722Y-89517843D01*
X145389337Y-89463720D01*
X145399023Y-89453852D01*
X145452838Y-89370736D01*
X145456665Y-89361039D01*
X145476516Y-89262693D01*
X145476692Y-89252107D01*
X145462181Y-89154421D01*
X145454711Y-89133893D01*
X145400025Y-89049741D01*
X145392673Y-89042547D01*
X145308921Y-88987930D01*
X145298884Y-88983928D01*
X145203034Y-88963662D01*
X145178716Y-88962923D01*
X145080531Y-88976662D01*
X145051710Y-88987348D01*
X144967721Y-89041577D01*
X144957921Y-89051339D01*
X144904189Y-89133486D01*
X144900279Y-89143175D01*
X144880912Y-89241521D01*
X144880740Y-89252107D01*
X144639460Y-89252107D01*
X144648709Y-89156486D01*
X144678018Y-89064528D01*
X144728501Y-88978793D01*
X144787928Y-88915052D01*
X144871319Y-88856476D01*
X144958409Y-88817843D01*
X145056447Y-88792949D01*
X145156278Y-88783466D01*
X145178716Y-88783161D01*
X145275925Y-88791953D01*
G37*
G36*
X146238242Y-88814424D02*
G01*
X146457083Y-88814424D01*
X146463922Y-89071367D01*
X146532345Y-88992559D01*
X146607736Y-88920584D01*
X146689894Y-88860364D01*
X146704746Y-88851549D01*
X146794116Y-88809875D01*
X146891708Y-88786433D01*
X146944592Y-88783161D01*
X147045312Y-88792015D01*
X147143075Y-88823141D01*
X147232395Y-88884011D01*
X147269435Y-88924822D01*
X147322380Y-89015402D01*
X147353613Y-89114214D01*
X147368720Y-89214799D01*
X147372420Y-89328567D01*
X147372017Y-89345896D01*
X147130217Y-89345896D01*
X147127585Y-89247789D01*
X147111250Y-89150235D01*
X147076972Y-89071856D01*
X147001739Y-89005154D01*
X146910398Y-88986371D01*
X146813189Y-89004445D01*
X146725941Y-89052530D01*
X146713050Y-89062086D01*
X146639292Y-89126671D01*
X146603629Y-89163203D01*
X146536155Y-89240792D01*
X146480042Y-89312679D01*
X146480042Y-90190000D01*
X146238242Y-90190000D01*
X146238242Y-88814424D01*
G37*
G36*
X148386230Y-88788490D02*
G01*
X148487774Y-88806028D01*
X148506769Y-88811004D01*
X148599582Y-88845687D01*
X148676762Y-88895024D01*
X148744597Y-88967495D01*
X148783252Y-89036685D01*
X148812220Y-89135679D01*
X148820377Y-89237452D01*
X148820377Y-90190000D01*
X148605932Y-90190000D01*
X148600558Y-90005352D01*
X148522577Y-90076433D01*
X148436584Y-90136860D01*
X148371459Y-90170460D01*
X148275379Y-90203353D01*
X148175269Y-90219477D01*
X148127704Y-90221263D01*
X148024392Y-90214608D01*
X147925471Y-90190976D01*
X147836611Y-90147090D01*
X147787718Y-90107934D01*
X147726785Y-90026179D01*
X147708095Y-89983370D01*
X147685695Y-89884074D01*
X147682694Y-89828032D01*
X147683844Y-89816308D01*
X147935729Y-89816308D01*
X147947942Y-89892512D01*
X147987509Y-89956992D01*
X148059316Y-90001933D01*
X148158492Y-90017990D01*
X148166295Y-90018053D01*
X148266741Y-90002287D01*
X148355339Y-89968227D01*
X148443797Y-89917753D01*
X148528885Y-89854132D01*
X148580042Y-89809469D01*
X148580042Y-89564738D01*
X148276204Y-89564738D01*
X148174194Y-89571798D01*
X148122331Y-89582812D01*
X148032707Y-89621707D01*
X148016330Y-89633614D01*
X147955269Y-89712749D01*
X147935806Y-89809149D01*
X147935729Y-89816308D01*
X147683844Y-89816308D01*
X147692341Y-89729663D01*
X147726259Y-89632573D01*
X147784597Y-89549858D01*
X147837055Y-89502700D01*
X147923701Y-89451195D01*
X148028786Y-89414406D01*
X148135863Y-89394287D01*
X148238880Y-89386010D01*
X148294278Y-89384975D01*
X148580042Y-89384975D01*
X148580042Y-89261388D01*
X148564989Y-89161598D01*
X148515451Y-89076053D01*
X148501396Y-89061598D01*
X148417207Y-89010173D01*
X148319891Y-88989015D01*
X148262526Y-88986371D01*
X148161026Y-88991046D01*
X148060835Y-89005071D01*
X148032450Y-89010795D01*
X147931791Y-89036093D01*
X147835643Y-89066617D01*
X147797977Y-89080160D01*
X147797977Y-88861318D01*
X147892172Y-88834270D01*
X147899093Y-88832498D01*
X147997239Y-88811027D01*
X148016330Y-88807585D01*
X148116543Y-88793012D01*
X148145778Y-88790000D01*
X148247444Y-88783588D01*
X148281577Y-88783161D01*
X148386230Y-88788490D01*
G37*
G36*
X150055981Y-88792791D02*
G01*
X150148652Y-88824483D01*
X150165667Y-88833475D01*
X150247732Y-88893681D01*
X150311359Y-88968978D01*
X150315143Y-88974647D01*
X150362347Y-89061441D01*
X150395798Y-89155096D01*
X150406002Y-89194466D01*
X150424457Y-89295010D01*
X150433892Y-89394537D01*
X150436288Y-89481207D01*
X150432192Y-89582422D01*
X150418033Y-89686092D01*
X150390778Y-89789439D01*
X150384508Y-89807027D01*
X150344570Y-89896862D01*
X150290337Y-89982225D01*
X150242359Y-90037592D01*
X150163451Y-90104630D01*
X150073579Y-90156512D01*
X150028402Y-90175345D01*
X149932758Y-90203326D01*
X149831207Y-90218393D01*
X149760224Y-90221263D01*
X149661580Y-90215492D01*
X149628821Y-90211004D01*
X149529994Y-90187649D01*
X149496441Y-90176322D01*
X149496441Y-90752735D01*
X149257572Y-90752735D01*
X149257572Y-89287766D01*
X149496441Y-89287766D01*
X149496441Y-89965785D01*
X149590349Y-89998528D01*
X149635171Y-90009748D01*
X149734305Y-90024294D01*
X149778298Y-90025868D01*
X149880736Y-90015358D01*
X149978968Y-89979027D01*
X150060789Y-89916745D01*
X150082136Y-89893000D01*
X150135266Y-89807597D01*
X150167895Y-89713777D01*
X150186786Y-89603105D01*
X150192045Y-89492442D01*
X150188503Y-89393373D01*
X150175925Y-89290697D01*
X150152312Y-89195729D01*
X150125611Y-89133405D01*
X150066363Y-89054199D01*
X150037683Y-89031311D01*
X149946001Y-88996507D01*
X149910189Y-88994187D01*
X149817865Y-89008841D01*
X149727419Y-89053492D01*
X149721145Y-89057690D01*
X149643109Y-89121345D01*
X149615632Y-89148060D01*
X149546748Y-89224412D01*
X149496441Y-89287766D01*
X149257572Y-89287766D01*
X149257572Y-88814424D01*
X149470552Y-88814424D01*
X149485695Y-89044501D01*
X149551449Y-88962574D01*
X149626865Y-88891960D01*
X149705513Y-88841779D01*
X149803515Y-88803826D01*
X149907805Y-88785221D01*
X149958060Y-88783161D01*
X150055981Y-88792791D01*
G37*
G36*
X151904187Y-90190000D02*
G01*
X151664829Y-90190000D01*
X151664829Y-89305352D01*
X151657787Y-89204780D01*
X151631307Y-89110629D01*
X151605234Y-89065994D01*
X151527300Y-89003866D01*
X151434264Y-88986371D01*
X151343894Y-88999560D01*
X151256944Y-89044989D01*
X151180892Y-89109675D01*
X151157781Y-89132916D01*
X151088525Y-89208109D01*
X151034194Y-89270669D01*
X151034194Y-90190000D01*
X150795325Y-90190000D01*
X150795325Y-88251688D01*
X151034194Y-88251688D01*
X151034194Y-88810027D01*
X151026378Y-89025450D01*
X151092398Y-88952976D01*
X151136776Y-88912121D01*
X151218109Y-88852404D01*
X151245220Y-88836894D01*
X151338111Y-88800083D01*
X151355618Y-88795861D01*
X151454021Y-88783471D01*
X151472854Y-88783161D01*
X151581192Y-88793130D01*
X151674847Y-88823037D01*
X151761687Y-88879652D01*
X151791347Y-88909190D01*
X151850853Y-89000361D01*
X151885564Y-89103624D01*
X151901432Y-89212282D01*
X151904187Y-89288255D01*
X151904187Y-90190000D01*
G37*
G36*
X155192673Y-88408004D02*
G01*
X154582554Y-90190000D01*
X154252826Y-90190000D01*
X153656385Y-88408004D01*
X153932868Y-88408004D01*
X154320237Y-89609190D01*
X154430147Y-89960900D01*
X154542498Y-89609190D01*
X154931333Y-88408004D01*
X155192673Y-88408004D01*
G37*
G36*
X156573622Y-90190000D02*
G01*
X155390510Y-90190000D01*
X155390510Y-89977020D01*
X155855060Y-89516866D01*
X155928565Y-89443203D01*
X155997167Y-89371006D01*
X156040684Y-89322449D01*
X156104065Y-89243925D01*
X156151570Y-89172484D01*
X156194179Y-89082816D01*
X156205304Y-89044501D01*
X156218327Y-88944657D01*
X156218981Y-88914563D01*
X156207950Y-88815864D01*
X156200907Y-88789511D01*
X156157322Y-88699377D01*
X156146197Y-88684975D01*
X156067900Y-88622224D01*
X156049965Y-88613656D01*
X155953336Y-88589814D01*
X155908793Y-88587766D01*
X155806247Y-88599251D01*
X155712931Y-88633705D01*
X155701187Y-88640034D01*
X155617044Y-88695798D01*
X155539557Y-88765085D01*
X155529728Y-88775345D01*
X155397837Y-88615610D01*
X155471327Y-88546192D01*
X155552090Y-88487049D01*
X155631822Y-88442198D01*
X155727970Y-88404931D01*
X155824293Y-88384475D01*
X155929108Y-88376805D01*
X155940056Y-88376741D01*
X156040661Y-88383566D01*
X156139322Y-88406027D01*
X156157921Y-88412400D01*
X156249390Y-88455875D01*
X156327425Y-88514982D01*
X156391050Y-88589476D01*
X156438311Y-88679113D01*
X156466361Y-88775720D01*
X156477047Y-88875765D01*
X156477390Y-88898443D01*
X156470552Y-88997362D01*
X156450035Y-89088953D01*
X156412974Y-89181719D01*
X156366993Y-89263342D01*
X156308453Y-89346254D01*
X156242389Y-89426155D01*
X156226797Y-89443593D01*
X156159088Y-89515744D01*
X156089419Y-89586348D01*
X156027007Y-89647292D01*
X155701187Y-89963342D01*
X156573622Y-89963342D01*
X156573622Y-90190000D01*
G37*
G36*
X157489044Y-89760132D02*
G01*
X157577460Y-89778206D01*
X157650244Y-89828032D01*
X157699093Y-89902281D01*
X157717167Y-89992651D01*
X157699093Y-90081556D01*
X157650244Y-90154340D01*
X157577460Y-90203189D01*
X157489044Y-90221263D01*
X157399651Y-90203189D01*
X157327355Y-90154340D01*
X157278507Y-90081556D01*
X157260921Y-89992651D01*
X157278507Y-89902281D01*
X157327355Y-89828032D01*
X157399651Y-89778206D01*
X157489044Y-89760132D01*
G37*
G36*
X159156147Y-88384366D02*
G01*
X159253302Y-88407240D01*
X159314027Y-88430963D01*
X159404351Y-88484773D01*
X159477567Y-88551760D01*
X159515771Y-88598513D01*
X159568917Y-88683642D01*
X159609217Y-88773554D01*
X159641885Y-88875391D01*
X159644732Y-88886231D01*
X159666692Y-88989426D01*
X159680179Y-89089718D01*
X159687987Y-89198070D01*
X159690161Y-89299490D01*
X159687596Y-89400301D01*
X159678580Y-89508313D01*
X159663073Y-89610606D01*
X159649128Y-89675624D01*
X159619285Y-89776889D01*
X159581045Y-89868805D01*
X159529285Y-89959113D01*
X159524076Y-89966762D01*
X159461799Y-90043641D01*
X159382802Y-90112896D01*
X159315981Y-90154829D01*
X159225264Y-90192652D01*
X159124387Y-90214775D01*
X159023866Y-90221263D01*
X158919430Y-90213638D01*
X158822274Y-90190763D01*
X158761549Y-90167041D01*
X158671144Y-90113392D01*
X158597711Y-90046839D01*
X158559316Y-90000467D01*
X158506391Y-89915617D01*
X158466091Y-89825857D01*
X158433233Y-89724077D01*
X158430356Y-89713237D01*
X158425422Y-89689790D01*
X158678018Y-89689790D01*
X158711308Y-89783215D01*
X158729798Y-89822170D01*
X158784569Y-89903411D01*
X158806002Y-89926217D01*
X158886770Y-89984288D01*
X158907607Y-89994117D01*
X159006449Y-90016907D01*
X159037544Y-90018053D01*
X159137493Y-90003833D01*
X159207537Y-89973112D01*
X159286002Y-89908403D01*
X159336986Y-89839267D01*
X159381887Y-89746474D01*
X159411945Y-89650772D01*
X159419540Y-89618471D01*
X159437102Y-89513714D01*
X159446081Y-89407428D01*
X159448360Y-89313168D01*
X159444941Y-89222798D01*
X159437614Y-89134870D01*
X158678018Y-89689790D01*
X158425422Y-89689790D01*
X158408632Y-89610004D01*
X158395290Y-89509613D01*
X158387566Y-89401100D01*
X158385415Y-89299490D01*
X158385478Y-89297048D01*
X158627216Y-89297048D01*
X158627704Y-89377648D01*
X158632589Y-89455317D01*
X159392184Y-88908213D01*
X159358664Y-88814368D01*
X159339916Y-88775833D01*
X159283316Y-88692090D01*
X159264690Y-88672274D01*
X159184864Y-88614055D01*
X159164062Y-88604375D01*
X159067641Y-88581119D01*
X159037544Y-88579951D01*
X158937990Y-88594479D01*
X158868039Y-88625868D01*
X158789420Y-88691350D01*
X158738102Y-88762156D01*
X158693552Y-88856781D01*
X158663623Y-88954070D01*
X158656037Y-88986859D01*
X158639628Y-89083899D01*
X158630030Y-89190983D01*
X158627216Y-89297048D01*
X158385478Y-89297048D01*
X158388011Y-89198862D01*
X158397134Y-89090911D01*
X158412826Y-88988523D01*
X158426937Y-88923356D01*
X158457200Y-88821623D01*
X158495477Y-88729526D01*
X158546839Y-88639350D01*
X158551989Y-88631730D01*
X158614045Y-88554630D01*
X158693065Y-88485399D01*
X158760084Y-88443663D01*
X158850964Y-88405562D01*
X158951656Y-88383276D01*
X159051710Y-88376741D01*
X159156147Y-88384366D01*
G37*
D11*
X92054819Y-137333333D02*
X92769104Y-137333333D01*
X92769104Y-137333333D02*
X92911961Y-137380952D01*
X92911961Y-137380952D02*
X93007200Y-137476190D01*
X93007200Y-137476190D02*
X93054819Y-137619047D01*
X93054819Y-137619047D02*
X93054819Y-137714285D01*
X92150057Y-136904761D02*
X92102438Y-136857142D01*
X92102438Y-136857142D02*
X92054819Y-136761904D01*
X92054819Y-136761904D02*
X92054819Y-136523809D01*
X92054819Y-136523809D02*
X92102438Y-136428571D01*
X92102438Y-136428571D02*
X92150057Y-136380952D01*
X92150057Y-136380952D02*
X92245295Y-136333333D01*
X92245295Y-136333333D02*
X92340533Y-136333333D01*
X92340533Y-136333333D02*
X92483390Y-136380952D01*
X92483390Y-136380952D02*
X93054819Y-136952380D01*
X93054819Y-136952380D02*
X93054819Y-136333333D01*
X98954819Y-140833332D02*
X98954819Y-140261904D01*
X99954819Y-140547618D02*
X98954819Y-140547618D01*
X99954819Y-139357142D02*
X99478628Y-139690475D01*
X99954819Y-139928570D02*
X98954819Y-139928570D01*
X98954819Y-139928570D02*
X98954819Y-139547618D01*
X98954819Y-139547618D02*
X99002438Y-139452380D01*
X99002438Y-139452380D02*
X99050057Y-139404761D01*
X99050057Y-139404761D02*
X99145295Y-139357142D01*
X99145295Y-139357142D02*
X99288152Y-139357142D01*
X99288152Y-139357142D02*
X99383390Y-139404761D01*
X99383390Y-139404761D02*
X99431009Y-139452380D01*
X99431009Y-139452380D02*
X99478628Y-139547618D01*
X99478628Y-139547618D02*
X99478628Y-139928570D01*
X99954819Y-138928570D02*
X98954819Y-138928570D01*
X99002438Y-137928571D02*
X98954819Y-138023809D01*
X98954819Y-138023809D02*
X98954819Y-138166666D01*
X98954819Y-138166666D02*
X99002438Y-138309523D01*
X99002438Y-138309523D02*
X99097676Y-138404761D01*
X99097676Y-138404761D02*
X99192914Y-138452380D01*
X99192914Y-138452380D02*
X99383390Y-138499999D01*
X99383390Y-138499999D02*
X99526247Y-138499999D01*
X99526247Y-138499999D02*
X99716723Y-138452380D01*
X99716723Y-138452380D02*
X99811961Y-138404761D01*
X99811961Y-138404761D02*
X99907200Y-138309523D01*
X99907200Y-138309523D02*
X99954819Y-138166666D01*
X99954819Y-138166666D02*
X99954819Y-138071428D01*
X99954819Y-138071428D02*
X99907200Y-137928571D01*
X99907200Y-137928571D02*
X99859580Y-137880952D01*
X99859580Y-137880952D02*
X99526247Y-137880952D01*
X99526247Y-137880952D02*
X99526247Y-138071428D01*
X99002438Y-136928571D02*
X98954819Y-137023809D01*
X98954819Y-137023809D02*
X98954819Y-137166666D01*
X98954819Y-137166666D02*
X99002438Y-137309523D01*
X99002438Y-137309523D02*
X99097676Y-137404761D01*
X99097676Y-137404761D02*
X99192914Y-137452380D01*
X99192914Y-137452380D02*
X99383390Y-137499999D01*
X99383390Y-137499999D02*
X99526247Y-137499999D01*
X99526247Y-137499999D02*
X99716723Y-137452380D01*
X99716723Y-137452380D02*
X99811961Y-137404761D01*
X99811961Y-137404761D02*
X99907200Y-137309523D01*
X99907200Y-137309523D02*
X99954819Y-137166666D01*
X99954819Y-137166666D02*
X99954819Y-137071428D01*
X99954819Y-137071428D02*
X99907200Y-136928571D01*
X99907200Y-136928571D02*
X99859580Y-136880952D01*
X99859580Y-136880952D02*
X99526247Y-136880952D01*
X99526247Y-136880952D02*
X99526247Y-137071428D01*
X99431009Y-136452380D02*
X99431009Y-136119047D01*
X99954819Y-135976190D02*
X99954819Y-136452380D01*
X99954819Y-136452380D02*
X98954819Y-136452380D01*
X98954819Y-136452380D02*
X98954819Y-135976190D01*
X99954819Y-134976190D02*
X99478628Y-135309523D01*
X99954819Y-135547618D02*
X98954819Y-135547618D01*
X98954819Y-135547618D02*
X98954819Y-135166666D01*
X98954819Y-135166666D02*
X99002438Y-135071428D01*
X99002438Y-135071428D02*
X99050057Y-135023809D01*
X99050057Y-135023809D02*
X99145295Y-134976190D01*
X99145295Y-134976190D02*
X99288152Y-134976190D01*
X99288152Y-134976190D02*
X99383390Y-135023809D01*
X99383390Y-135023809D02*
X99431009Y-135071428D01*
X99431009Y-135071428D02*
X99478628Y-135166666D01*
X99478628Y-135166666D02*
X99478628Y-135547618D01*
X100050057Y-134785714D02*
X100050057Y-134023809D01*
X99954819Y-133261904D02*
X99954819Y-133833332D01*
X99954819Y-133547618D02*
X98954819Y-133547618D01*
X98954819Y-133547618D02*
X99097676Y-133642856D01*
X99097676Y-133642856D02*
X99192914Y-133738094D01*
X99192914Y-133738094D02*
X99240533Y-133833332D01*
X128083333Y-80631009D02*
X128226190Y-80678628D01*
X128226190Y-80678628D02*
X128273809Y-80726247D01*
X128273809Y-80726247D02*
X128321428Y-80821485D01*
X128321428Y-80821485D02*
X128321428Y-80964342D01*
X128321428Y-80964342D02*
X128273809Y-81059580D01*
X128273809Y-81059580D02*
X128226190Y-81107200D01*
X128226190Y-81107200D02*
X128130952Y-81154819D01*
X128130952Y-81154819D02*
X127750000Y-81154819D01*
X127750000Y-81154819D02*
X127750000Y-80154819D01*
X127750000Y-80154819D02*
X128083333Y-80154819D01*
X128083333Y-80154819D02*
X128178571Y-80202438D01*
X128178571Y-80202438D02*
X128226190Y-80250057D01*
X128226190Y-80250057D02*
X128273809Y-80345295D01*
X128273809Y-80345295D02*
X128273809Y-80440533D01*
X128273809Y-80440533D02*
X128226190Y-80535771D01*
X128226190Y-80535771D02*
X128178571Y-80583390D01*
X128178571Y-80583390D02*
X128083333Y-80631009D01*
X128083333Y-80631009D02*
X127750000Y-80631009D01*
X128750000Y-81154819D02*
X128750000Y-80488152D01*
X128750000Y-80678628D02*
X128797619Y-80583390D01*
X128797619Y-80583390D02*
X128845238Y-80535771D01*
X128845238Y-80535771D02*
X128940476Y-80488152D01*
X128940476Y-80488152D02*
X129035714Y-80488152D01*
X129797619Y-81154819D02*
X129797619Y-80154819D01*
X129797619Y-81107200D02*
X129702381Y-81154819D01*
X129702381Y-81154819D02*
X129511905Y-81154819D01*
X129511905Y-81154819D02*
X129416667Y-81107200D01*
X129416667Y-81107200D02*
X129369048Y-81059580D01*
X129369048Y-81059580D02*
X129321429Y-80964342D01*
X129321429Y-80964342D02*
X129321429Y-80678628D01*
X129321429Y-80678628D02*
X129369048Y-80583390D01*
X129369048Y-80583390D02*
X129416667Y-80535771D01*
X129416667Y-80535771D02*
X129511905Y-80488152D01*
X129511905Y-80488152D02*
X129702381Y-80488152D01*
X129702381Y-80488152D02*
X129797619Y-80535771D01*
X130797619Y-81154819D02*
X130226191Y-81154819D01*
X130511905Y-81154819D02*
X130511905Y-80154819D01*
X130511905Y-80154819D02*
X130416667Y-80297676D01*
X130416667Y-80297676D02*
X130321429Y-80392914D01*
X130321429Y-80392914D02*
X130226191Y-80440533D01*
X126083333Y-87307200D02*
X126226190Y-87354819D01*
X126226190Y-87354819D02*
X126464285Y-87354819D01*
X126464285Y-87354819D02*
X126559523Y-87307200D01*
X126559523Y-87307200D02*
X126607142Y-87259580D01*
X126607142Y-87259580D02*
X126654761Y-87164342D01*
X126654761Y-87164342D02*
X126654761Y-87069104D01*
X126654761Y-87069104D02*
X126607142Y-86973866D01*
X126607142Y-86973866D02*
X126559523Y-86926247D01*
X126559523Y-86926247D02*
X126464285Y-86878628D01*
X126464285Y-86878628D02*
X126273809Y-86831009D01*
X126273809Y-86831009D02*
X126178571Y-86783390D01*
X126178571Y-86783390D02*
X126130952Y-86735771D01*
X126130952Y-86735771D02*
X126083333Y-86640533D01*
X126083333Y-86640533D02*
X126083333Y-86545295D01*
X126083333Y-86545295D02*
X126130952Y-86450057D01*
X126130952Y-86450057D02*
X126178571Y-86402438D01*
X126178571Y-86402438D02*
X126273809Y-86354819D01*
X126273809Y-86354819D02*
X126511904Y-86354819D01*
X126511904Y-86354819D02*
X126654761Y-86402438D01*
X127035714Y-87307200D02*
X127178571Y-87354819D01*
X127178571Y-87354819D02*
X127416666Y-87354819D01*
X127416666Y-87354819D02*
X127511904Y-87307200D01*
X127511904Y-87307200D02*
X127559523Y-87259580D01*
X127559523Y-87259580D02*
X127607142Y-87164342D01*
X127607142Y-87164342D02*
X127607142Y-87069104D01*
X127607142Y-87069104D02*
X127559523Y-86973866D01*
X127559523Y-86973866D02*
X127511904Y-86926247D01*
X127511904Y-86926247D02*
X127416666Y-86878628D01*
X127416666Y-86878628D02*
X127226190Y-86831009D01*
X127226190Y-86831009D02*
X127130952Y-86783390D01*
X127130952Y-86783390D02*
X127083333Y-86735771D01*
X127083333Y-86735771D02*
X127035714Y-86640533D01*
X127035714Y-86640533D02*
X127035714Y-86545295D01*
X127035714Y-86545295D02*
X127083333Y-86450057D01*
X127083333Y-86450057D02*
X127130952Y-86402438D01*
X127130952Y-86402438D02*
X127226190Y-86354819D01*
X127226190Y-86354819D02*
X127464285Y-86354819D01*
X127464285Y-86354819D02*
X127607142Y-86402438D01*
X128035714Y-87354819D02*
X128035714Y-86354819D01*
X128035714Y-86354819D02*
X128273809Y-86354819D01*
X128273809Y-86354819D02*
X128416666Y-86402438D01*
X128416666Y-86402438D02*
X128511904Y-86497676D01*
X128511904Y-86497676D02*
X128559523Y-86592914D01*
X128559523Y-86592914D02*
X128607142Y-86783390D01*
X128607142Y-86783390D02*
X128607142Y-86926247D01*
X128607142Y-86926247D02*
X128559523Y-87116723D01*
X128559523Y-87116723D02*
X128511904Y-87211961D01*
X128511904Y-87211961D02*
X128416666Y-87307200D01*
X128416666Y-87307200D02*
X128273809Y-87354819D01*
X128273809Y-87354819D02*
X128035714Y-87354819D01*
X129559523Y-87354819D02*
X128988095Y-87354819D01*
X129273809Y-87354819D02*
X129273809Y-86354819D01*
X129273809Y-86354819D02*
X129178571Y-86497676D01*
X129178571Y-86497676D02*
X129083333Y-86592914D01*
X129083333Y-86592914D02*
X128988095Y-86640533D01*
X129892857Y-86354819D02*
X130511904Y-86354819D01*
X130511904Y-86354819D02*
X130178571Y-86735771D01*
X130178571Y-86735771D02*
X130321428Y-86735771D01*
X130321428Y-86735771D02*
X130416666Y-86783390D01*
X130416666Y-86783390D02*
X130464285Y-86831009D01*
X130464285Y-86831009D02*
X130511904Y-86926247D01*
X130511904Y-86926247D02*
X130511904Y-87164342D01*
X130511904Y-87164342D02*
X130464285Y-87259580D01*
X130464285Y-87259580D02*
X130416666Y-87307200D01*
X130416666Y-87307200D02*
X130321428Y-87354819D01*
X130321428Y-87354819D02*
X130035714Y-87354819D01*
X130035714Y-87354819D02*
X129940476Y-87307200D01*
X129940476Y-87307200D02*
X129892857Y-87259580D01*
X131130952Y-86354819D02*
X131226190Y-86354819D01*
X131226190Y-86354819D02*
X131321428Y-86402438D01*
X131321428Y-86402438D02*
X131369047Y-86450057D01*
X131369047Y-86450057D02*
X131416666Y-86545295D01*
X131416666Y-86545295D02*
X131464285Y-86735771D01*
X131464285Y-86735771D02*
X131464285Y-86973866D01*
X131464285Y-86973866D02*
X131416666Y-87164342D01*
X131416666Y-87164342D02*
X131369047Y-87259580D01*
X131369047Y-87259580D02*
X131321428Y-87307200D01*
X131321428Y-87307200D02*
X131226190Y-87354819D01*
X131226190Y-87354819D02*
X131130952Y-87354819D01*
X131130952Y-87354819D02*
X131035714Y-87307200D01*
X131035714Y-87307200D02*
X130988095Y-87259580D01*
X130988095Y-87259580D02*
X130940476Y-87164342D01*
X130940476Y-87164342D02*
X130892857Y-86973866D01*
X130892857Y-86973866D02*
X130892857Y-86735771D01*
X130892857Y-86735771D02*
X130940476Y-86545295D01*
X130940476Y-86545295D02*
X130988095Y-86450057D01*
X130988095Y-86450057D02*
X131035714Y-86402438D01*
X131035714Y-86402438D02*
X131130952Y-86354819D01*
X132321428Y-86354819D02*
X132130952Y-86354819D01*
X132130952Y-86354819D02*
X132035714Y-86402438D01*
X132035714Y-86402438D02*
X131988095Y-86450057D01*
X131988095Y-86450057D02*
X131892857Y-86592914D01*
X131892857Y-86592914D02*
X131845238Y-86783390D01*
X131845238Y-86783390D02*
X131845238Y-87164342D01*
X131845238Y-87164342D02*
X131892857Y-87259580D01*
X131892857Y-87259580D02*
X131940476Y-87307200D01*
X131940476Y-87307200D02*
X132035714Y-87354819D01*
X132035714Y-87354819D02*
X132226190Y-87354819D01*
X132226190Y-87354819D02*
X132321428Y-87307200D01*
X132321428Y-87307200D02*
X132369047Y-87259580D01*
X132369047Y-87259580D02*
X132416666Y-87164342D01*
X132416666Y-87164342D02*
X132416666Y-86926247D01*
X132416666Y-86926247D02*
X132369047Y-86831009D01*
X132369047Y-86831009D02*
X132321428Y-86783390D01*
X132321428Y-86783390D02*
X132226190Y-86735771D01*
X132226190Y-86735771D02*
X132035714Y-86735771D01*
X132035714Y-86735771D02*
X131940476Y-86783390D01*
X131940476Y-86783390D02*
X131892857Y-86831009D01*
X131892857Y-86831009D02*
X131845238Y-86926247D01*
X129061485Y-121100000D02*
X128585294Y-121433333D01*
X129061485Y-121671428D02*
X128061485Y-121671428D01*
X128061485Y-121671428D02*
X128061485Y-121290476D01*
X128061485Y-121290476D02*
X128109104Y-121195238D01*
X128109104Y-121195238D02*
X128156723Y-121147619D01*
X128156723Y-121147619D02*
X128251961Y-121100000D01*
X128251961Y-121100000D02*
X128394818Y-121100000D01*
X128394818Y-121100000D02*
X128490056Y-121147619D01*
X128490056Y-121147619D02*
X128537675Y-121195238D01*
X128537675Y-121195238D02*
X128585294Y-121290476D01*
X128585294Y-121290476D02*
X128585294Y-121671428D01*
X129061485Y-120242857D02*
X128537675Y-120242857D01*
X128537675Y-120242857D02*
X128442437Y-120290476D01*
X128442437Y-120290476D02*
X128394818Y-120385714D01*
X128394818Y-120385714D02*
X128394818Y-120576190D01*
X128394818Y-120576190D02*
X128442437Y-120671428D01*
X129013866Y-120242857D02*
X129061485Y-120338095D01*
X129061485Y-120338095D02*
X129061485Y-120576190D01*
X129061485Y-120576190D02*
X129013866Y-120671428D01*
X129013866Y-120671428D02*
X128918627Y-120719047D01*
X128918627Y-120719047D02*
X128823389Y-120719047D01*
X128823389Y-120719047D02*
X128728151Y-120671428D01*
X128728151Y-120671428D02*
X128680532Y-120576190D01*
X128680532Y-120576190D02*
X128680532Y-120338095D01*
X128680532Y-120338095D02*
X128632913Y-120242857D01*
X129013866Y-119814285D02*
X129061485Y-119719047D01*
X129061485Y-119719047D02*
X129061485Y-119528571D01*
X129061485Y-119528571D02*
X129013866Y-119433333D01*
X129013866Y-119433333D02*
X128918627Y-119385714D01*
X128918627Y-119385714D02*
X128871008Y-119385714D01*
X128871008Y-119385714D02*
X128775770Y-119433333D01*
X128775770Y-119433333D02*
X128728151Y-119528571D01*
X128728151Y-119528571D02*
X128728151Y-119671428D01*
X128728151Y-119671428D02*
X128680532Y-119766666D01*
X128680532Y-119766666D02*
X128585294Y-119814285D01*
X128585294Y-119814285D02*
X128537675Y-119814285D01*
X128537675Y-119814285D02*
X128442437Y-119766666D01*
X128442437Y-119766666D02*
X128394818Y-119671428D01*
X128394818Y-119671428D02*
X128394818Y-119528571D01*
X128394818Y-119528571D02*
X128442437Y-119433333D01*
X128394818Y-118957142D02*
X129394818Y-118957142D01*
X128442437Y-118957142D02*
X128394818Y-118861904D01*
X128394818Y-118861904D02*
X128394818Y-118671428D01*
X128394818Y-118671428D02*
X128442437Y-118576190D01*
X128442437Y-118576190D02*
X128490056Y-118528571D01*
X128490056Y-118528571D02*
X128585294Y-118480952D01*
X128585294Y-118480952D02*
X128871008Y-118480952D01*
X128871008Y-118480952D02*
X128966246Y-118528571D01*
X128966246Y-118528571D02*
X129013866Y-118576190D01*
X129013866Y-118576190D02*
X129061485Y-118671428D01*
X129061485Y-118671428D02*
X129061485Y-118861904D01*
X129061485Y-118861904D02*
X129013866Y-118957142D01*
X129061485Y-118052380D02*
X128061485Y-118052380D01*
X128442437Y-118052380D02*
X128394818Y-117957142D01*
X128394818Y-117957142D02*
X128394818Y-117766666D01*
X128394818Y-117766666D02*
X128442437Y-117671428D01*
X128442437Y-117671428D02*
X128490056Y-117623809D01*
X128490056Y-117623809D02*
X128585294Y-117576190D01*
X128585294Y-117576190D02*
X128871008Y-117576190D01*
X128871008Y-117576190D02*
X128966246Y-117623809D01*
X128966246Y-117623809D02*
X129013866Y-117671428D01*
X129013866Y-117671428D02*
X129061485Y-117766666D01*
X129061485Y-117766666D02*
X129061485Y-117957142D01*
X129061485Y-117957142D02*
X129013866Y-118052380D01*
X129013866Y-116766666D02*
X129061485Y-116861904D01*
X129061485Y-116861904D02*
X129061485Y-117052380D01*
X129061485Y-117052380D02*
X129013866Y-117147618D01*
X129013866Y-117147618D02*
X128918627Y-117195237D01*
X128918627Y-117195237D02*
X128537675Y-117195237D01*
X128537675Y-117195237D02*
X128442437Y-117147618D01*
X128442437Y-117147618D02*
X128394818Y-117052380D01*
X128394818Y-117052380D02*
X128394818Y-116861904D01*
X128394818Y-116861904D02*
X128442437Y-116766666D01*
X128442437Y-116766666D02*
X128537675Y-116719047D01*
X128537675Y-116719047D02*
X128632913Y-116719047D01*
X128632913Y-116719047D02*
X128728151Y-117195237D01*
X129061485Y-116290475D02*
X128394818Y-116290475D01*
X128585294Y-116290475D02*
X128490056Y-116242856D01*
X128490056Y-116242856D02*
X128442437Y-116195237D01*
X128442437Y-116195237D02*
X128394818Y-116099999D01*
X128394818Y-116099999D02*
X128394818Y-116004761D01*
X129061485Y-115671427D02*
X128394818Y-115671427D01*
X128585294Y-115671427D02*
X128490056Y-115623808D01*
X128490056Y-115623808D02*
X128442437Y-115576189D01*
X128442437Y-115576189D02*
X128394818Y-115480951D01*
X128394818Y-115480951D02*
X128394818Y-115385713D01*
X128394818Y-115147617D02*
X129061485Y-114909522D01*
X128394818Y-114671427D02*
X129061485Y-114909522D01*
X129061485Y-114909522D02*
X129299580Y-115004760D01*
X129299580Y-115004760D02*
X129347199Y-115052379D01*
X129347199Y-115052379D02*
X129394818Y-115147617D01*
X129061485Y-113528569D02*
X128061485Y-113528569D01*
X128061485Y-113528569D02*
X128061485Y-113147617D01*
X128061485Y-113147617D02*
X128109104Y-113052379D01*
X128109104Y-113052379D02*
X128156723Y-113004760D01*
X128156723Y-113004760D02*
X128251961Y-112957141D01*
X128251961Y-112957141D02*
X128394818Y-112957141D01*
X128394818Y-112957141D02*
X128490056Y-113004760D01*
X128490056Y-113004760D02*
X128537675Y-113052379D01*
X128537675Y-113052379D02*
X128585294Y-113147617D01*
X128585294Y-113147617D02*
X128585294Y-113528569D01*
X129061485Y-112528569D02*
X128394818Y-112528569D01*
X128061485Y-112528569D02*
X128109104Y-112576188D01*
X128109104Y-112576188D02*
X128156723Y-112528569D01*
X128156723Y-112528569D02*
X128109104Y-112480950D01*
X128109104Y-112480950D02*
X128061485Y-112528569D01*
X128061485Y-112528569D02*
X128156723Y-112528569D01*
X129061485Y-111290474D02*
X128061485Y-111290474D01*
X128061485Y-111290474D02*
X128061485Y-110909522D01*
X128061485Y-110909522D02*
X128109104Y-110814284D01*
X128109104Y-110814284D02*
X128156723Y-110766665D01*
X128156723Y-110766665D02*
X128251961Y-110719046D01*
X128251961Y-110719046D02*
X128394818Y-110719046D01*
X128394818Y-110719046D02*
X128490056Y-110766665D01*
X128490056Y-110766665D02*
X128537675Y-110814284D01*
X128537675Y-110814284D02*
X128585294Y-110909522D01*
X128585294Y-110909522D02*
X128585294Y-111290474D01*
X129061485Y-110290474D02*
X128394818Y-110290474D01*
X128061485Y-110290474D02*
X128109104Y-110338093D01*
X128109104Y-110338093D02*
X128156723Y-110290474D01*
X128156723Y-110290474D02*
X128109104Y-110242855D01*
X128109104Y-110242855D02*
X128061485Y-110290474D01*
X128061485Y-110290474D02*
X128156723Y-110290474D01*
X129013866Y-109385713D02*
X129061485Y-109480951D01*
X129061485Y-109480951D02*
X129061485Y-109671427D01*
X129061485Y-109671427D02*
X129013866Y-109766665D01*
X129013866Y-109766665D02*
X128966246Y-109814284D01*
X128966246Y-109814284D02*
X128871008Y-109861903D01*
X128871008Y-109861903D02*
X128585294Y-109861903D01*
X128585294Y-109861903D02*
X128490056Y-109814284D01*
X128490056Y-109814284D02*
X128442437Y-109766665D01*
X128442437Y-109766665D02*
X128394818Y-109671427D01*
X128394818Y-109671427D02*
X128394818Y-109480951D01*
X128394818Y-109480951D02*
X128442437Y-109385713D01*
X129061485Y-108814284D02*
X129013866Y-108909522D01*
X129013866Y-108909522D02*
X128966246Y-108957141D01*
X128966246Y-108957141D02*
X128871008Y-109004760D01*
X128871008Y-109004760D02*
X128585294Y-109004760D01*
X128585294Y-109004760D02*
X128490056Y-108957141D01*
X128490056Y-108957141D02*
X128442437Y-108909522D01*
X128442437Y-108909522D02*
X128394818Y-108814284D01*
X128394818Y-108814284D02*
X128394818Y-108671427D01*
X128394818Y-108671427D02*
X128442437Y-108576189D01*
X128442437Y-108576189D02*
X128490056Y-108528570D01*
X128490056Y-108528570D02*
X128585294Y-108480951D01*
X128585294Y-108480951D02*
X128871008Y-108480951D01*
X128871008Y-108480951D02*
X128966246Y-108528570D01*
X128966246Y-108528570D02*
X129013866Y-108576189D01*
X129013866Y-108576189D02*
X129061485Y-108671427D01*
X129061485Y-108671427D02*
X129061485Y-108814284D01*
X149416667Y-91907200D02*
X149559524Y-91954819D01*
X149559524Y-91954819D02*
X149797619Y-91954819D01*
X149797619Y-91954819D02*
X149892857Y-91907200D01*
X149892857Y-91907200D02*
X149940476Y-91859580D01*
X149940476Y-91859580D02*
X149988095Y-91764342D01*
X149988095Y-91764342D02*
X149988095Y-91669104D01*
X149988095Y-91669104D02*
X149940476Y-91573866D01*
X149940476Y-91573866D02*
X149892857Y-91526247D01*
X149892857Y-91526247D02*
X149797619Y-91478628D01*
X149797619Y-91478628D02*
X149607143Y-91431009D01*
X149607143Y-91431009D02*
X149511905Y-91383390D01*
X149511905Y-91383390D02*
X149464286Y-91335771D01*
X149464286Y-91335771D02*
X149416667Y-91240533D01*
X149416667Y-91240533D02*
X149416667Y-91145295D01*
X149416667Y-91145295D02*
X149464286Y-91050057D01*
X149464286Y-91050057D02*
X149511905Y-91002438D01*
X149511905Y-91002438D02*
X149607143Y-90954819D01*
X149607143Y-90954819D02*
X149845238Y-90954819D01*
X149845238Y-90954819D02*
X149988095Y-91002438D01*
X150321429Y-90954819D02*
X150559524Y-91954819D01*
X150559524Y-91954819D02*
X150750000Y-91240533D01*
X150750000Y-91240533D02*
X150940476Y-91954819D01*
X150940476Y-91954819D02*
X151178572Y-90954819D01*
X151511905Y-91050057D02*
X151559524Y-91002438D01*
X151559524Y-91002438D02*
X151654762Y-90954819D01*
X151654762Y-90954819D02*
X151892857Y-90954819D01*
X151892857Y-90954819D02*
X151988095Y-91002438D01*
X151988095Y-91002438D02*
X152035714Y-91050057D01*
X152035714Y-91050057D02*
X152083333Y-91145295D01*
X152083333Y-91145295D02*
X152083333Y-91240533D01*
X152083333Y-91240533D02*
X152035714Y-91383390D01*
X152035714Y-91383390D02*
X151464286Y-91954819D01*
X151464286Y-91954819D02*
X152083333Y-91954819D01*
X150511905Y-99654819D02*
X150511905Y-100464342D01*
X150511905Y-100464342D02*
X150559524Y-100559580D01*
X150559524Y-100559580D02*
X150607143Y-100607200D01*
X150607143Y-100607200D02*
X150702381Y-100654819D01*
X150702381Y-100654819D02*
X150892857Y-100654819D01*
X150892857Y-100654819D02*
X150988095Y-100607200D01*
X150988095Y-100607200D02*
X151035714Y-100559580D01*
X151035714Y-100559580D02*
X151083333Y-100464342D01*
X151083333Y-100464342D02*
X151083333Y-99654819D01*
X151559524Y-99988152D02*
X151559524Y-100988152D01*
X151559524Y-100035771D02*
X151654762Y-99988152D01*
X151654762Y-99988152D02*
X151845238Y-99988152D01*
X151845238Y-99988152D02*
X151940476Y-100035771D01*
X151940476Y-100035771D02*
X151988095Y-100083390D01*
X151988095Y-100083390D02*
X152035714Y-100178628D01*
X152035714Y-100178628D02*
X152035714Y-100464342D01*
X152035714Y-100464342D02*
X151988095Y-100559580D01*
X151988095Y-100559580D02*
X151940476Y-100607200D01*
X151940476Y-100607200D02*
X151845238Y-100654819D01*
X151845238Y-100654819D02*
X151654762Y-100654819D01*
X151654762Y-100654819D02*
X151559524Y-100607200D01*
X109333333Y-112084819D02*
X109000000Y-111608628D01*
X108761905Y-112084819D02*
X108761905Y-111084819D01*
X108761905Y-111084819D02*
X109142857Y-111084819D01*
X109142857Y-111084819D02*
X109238095Y-111132438D01*
X109238095Y-111132438D02*
X109285714Y-111180057D01*
X109285714Y-111180057D02*
X109333333Y-111275295D01*
X109333333Y-111275295D02*
X109333333Y-111418152D01*
X109333333Y-111418152D02*
X109285714Y-111513390D01*
X109285714Y-111513390D02*
X109238095Y-111561009D01*
X109238095Y-111561009D02*
X109142857Y-111608628D01*
X109142857Y-111608628D02*
X108761905Y-111608628D01*
X110238095Y-111084819D02*
X109761905Y-111084819D01*
X109761905Y-111084819D02*
X109714286Y-111561009D01*
X109714286Y-111561009D02*
X109761905Y-111513390D01*
X109761905Y-111513390D02*
X109857143Y-111465771D01*
X109857143Y-111465771D02*
X110095238Y-111465771D01*
X110095238Y-111465771D02*
X110190476Y-111513390D01*
X110190476Y-111513390D02*
X110238095Y-111561009D01*
X110238095Y-111561009D02*
X110285714Y-111656247D01*
X110285714Y-111656247D02*
X110285714Y-111894342D01*
X110285714Y-111894342D02*
X110238095Y-111989580D01*
X110238095Y-111989580D02*
X110190476Y-112037200D01*
X110190476Y-112037200D02*
X110095238Y-112084819D01*
X110095238Y-112084819D02*
X109857143Y-112084819D01*
X109857143Y-112084819D02*
X109761905Y-112037200D01*
X109761905Y-112037200D02*
X109714286Y-111989580D01*
X106880952Y-116824819D02*
X106309524Y-116824819D01*
X106595238Y-116824819D02*
X106595238Y-115824819D01*
X106595238Y-115824819D02*
X106500000Y-115967676D01*
X106500000Y-115967676D02*
X106404762Y-116062914D01*
X106404762Y-116062914D02*
X106309524Y-116110533D01*
X107500000Y-115824819D02*
X107595238Y-115824819D01*
X107595238Y-115824819D02*
X107690476Y-115872438D01*
X107690476Y-115872438D02*
X107738095Y-115920057D01*
X107738095Y-115920057D02*
X107785714Y-116015295D01*
X107785714Y-116015295D02*
X107833333Y-116205771D01*
X107833333Y-116205771D02*
X107833333Y-116443866D01*
X107833333Y-116443866D02*
X107785714Y-116634342D01*
X107785714Y-116634342D02*
X107738095Y-116729580D01*
X107738095Y-116729580D02*
X107690476Y-116777200D01*
X107690476Y-116777200D02*
X107595238Y-116824819D01*
X107595238Y-116824819D02*
X107500000Y-116824819D01*
X107500000Y-116824819D02*
X107404762Y-116777200D01*
X107404762Y-116777200D02*
X107357143Y-116729580D01*
X107357143Y-116729580D02*
X107309524Y-116634342D01*
X107309524Y-116634342D02*
X107261905Y-116443866D01*
X107261905Y-116443866D02*
X107261905Y-116205771D01*
X107261905Y-116205771D02*
X107309524Y-116015295D01*
X107309524Y-116015295D02*
X107357143Y-115920057D01*
X107357143Y-115920057D02*
X107404762Y-115872438D01*
X107404762Y-115872438D02*
X107500000Y-115824819D01*
X109023810Y-116824819D02*
X109023810Y-115824819D01*
X109119048Y-116443866D02*
X109404762Y-116824819D01*
X109404762Y-116158152D02*
X109023810Y-116539104D01*
X110023810Y-115824819D02*
X110214286Y-115824819D01*
X110214286Y-115824819D02*
X110309524Y-115872438D01*
X110309524Y-115872438D02*
X110404762Y-115967676D01*
X110404762Y-115967676D02*
X110452381Y-116158152D01*
X110452381Y-116158152D02*
X110452381Y-116491485D01*
X110452381Y-116491485D02*
X110404762Y-116681961D01*
X110404762Y-116681961D02*
X110309524Y-116777200D01*
X110309524Y-116777200D02*
X110214286Y-116824819D01*
X110214286Y-116824819D02*
X110023810Y-116824819D01*
X110023810Y-116824819D02*
X109928572Y-116777200D01*
X109928572Y-116777200D02*
X109833334Y-116681961D01*
X109833334Y-116681961D02*
X109785715Y-116491485D01*
X109785715Y-116491485D02*
X109785715Y-116158152D01*
X109785715Y-116158152D02*
X109833334Y-115967676D01*
X109833334Y-115967676D02*
X109928572Y-115872438D01*
X109928572Y-115872438D02*
X110023810Y-115824819D01*
X110880953Y-116824819D02*
X110880953Y-115824819D01*
X111309524Y-116824819D02*
X111309524Y-116301009D01*
X111309524Y-116301009D02*
X111261905Y-116205771D01*
X111261905Y-116205771D02*
X111166667Y-116158152D01*
X111166667Y-116158152D02*
X111023810Y-116158152D01*
X111023810Y-116158152D02*
X110928572Y-116205771D01*
X110928572Y-116205771D02*
X110880953Y-116253390D01*
X111785715Y-116824819D02*
X111785715Y-116158152D01*
X111785715Y-116253390D02*
X111833334Y-116205771D01*
X111833334Y-116205771D02*
X111928572Y-116158152D01*
X111928572Y-116158152D02*
X112071429Y-116158152D01*
X112071429Y-116158152D02*
X112166667Y-116205771D01*
X112166667Y-116205771D02*
X112214286Y-116301009D01*
X112214286Y-116301009D02*
X112214286Y-116824819D01*
X112214286Y-116301009D02*
X112261905Y-116205771D01*
X112261905Y-116205771D02*
X112357143Y-116158152D01*
X112357143Y-116158152D02*
X112500000Y-116158152D01*
X112500000Y-116158152D02*
X112595239Y-116205771D01*
X112595239Y-116205771D02*
X112642858Y-116301009D01*
X112642858Y-116301009D02*
X112642858Y-116824819D01*
X108253333Y-131084819D02*
X107920000Y-130608628D01*
X107681905Y-131084819D02*
X107681905Y-130084819D01*
X107681905Y-130084819D02*
X108062857Y-130084819D01*
X108062857Y-130084819D02*
X108158095Y-130132438D01*
X108158095Y-130132438D02*
X108205714Y-130180057D01*
X108205714Y-130180057D02*
X108253333Y-130275295D01*
X108253333Y-130275295D02*
X108253333Y-130418152D01*
X108253333Y-130418152D02*
X108205714Y-130513390D01*
X108205714Y-130513390D02*
X108158095Y-130561009D01*
X108158095Y-130561009D02*
X108062857Y-130608628D01*
X108062857Y-130608628D02*
X107681905Y-130608628D01*
X108634286Y-130180057D02*
X108681905Y-130132438D01*
X108681905Y-130132438D02*
X108777143Y-130084819D01*
X108777143Y-130084819D02*
X109015238Y-130084819D01*
X109015238Y-130084819D02*
X109110476Y-130132438D01*
X109110476Y-130132438D02*
X109158095Y-130180057D01*
X109158095Y-130180057D02*
X109205714Y-130275295D01*
X109205714Y-130275295D02*
X109205714Y-130370533D01*
X109205714Y-130370533D02*
X109158095Y-130513390D01*
X109158095Y-130513390D02*
X108586667Y-131084819D01*
X108586667Y-131084819D02*
X109205714Y-131084819D01*
X105634286Y-134920057D02*
X105681905Y-134872438D01*
X105681905Y-134872438D02*
X105777143Y-134824819D01*
X105777143Y-134824819D02*
X106015238Y-134824819D01*
X106015238Y-134824819D02*
X106110476Y-134872438D01*
X106110476Y-134872438D02*
X106158095Y-134920057D01*
X106158095Y-134920057D02*
X106205714Y-135015295D01*
X106205714Y-135015295D02*
X106205714Y-135110533D01*
X106205714Y-135110533D02*
X106158095Y-135253390D01*
X106158095Y-135253390D02*
X105586667Y-135824819D01*
X105586667Y-135824819D02*
X106205714Y-135824819D01*
X106586667Y-134920057D02*
X106634286Y-134872438D01*
X106634286Y-134872438D02*
X106729524Y-134824819D01*
X106729524Y-134824819D02*
X106967619Y-134824819D01*
X106967619Y-134824819D02*
X107062857Y-134872438D01*
X107062857Y-134872438D02*
X107110476Y-134920057D01*
X107110476Y-134920057D02*
X107158095Y-135015295D01*
X107158095Y-135015295D02*
X107158095Y-135110533D01*
X107158095Y-135110533D02*
X107110476Y-135253390D01*
X107110476Y-135253390D02*
X106539048Y-135824819D01*
X106539048Y-135824819D02*
X107158095Y-135824819D01*
X108539048Y-134824819D02*
X108729524Y-134824819D01*
X108729524Y-134824819D02*
X108824762Y-134872438D01*
X108824762Y-134872438D02*
X108920000Y-134967676D01*
X108920000Y-134967676D02*
X108967619Y-135158152D01*
X108967619Y-135158152D02*
X108967619Y-135491485D01*
X108967619Y-135491485D02*
X108920000Y-135681961D01*
X108920000Y-135681961D02*
X108824762Y-135777200D01*
X108824762Y-135777200D02*
X108729524Y-135824819D01*
X108729524Y-135824819D02*
X108539048Y-135824819D01*
X108539048Y-135824819D02*
X108443810Y-135777200D01*
X108443810Y-135777200D02*
X108348572Y-135681961D01*
X108348572Y-135681961D02*
X108300953Y-135491485D01*
X108300953Y-135491485D02*
X108300953Y-135158152D01*
X108300953Y-135158152D02*
X108348572Y-134967676D01*
X108348572Y-134967676D02*
X108443810Y-134872438D01*
X108443810Y-134872438D02*
X108539048Y-134824819D01*
X109396191Y-135824819D02*
X109396191Y-134824819D01*
X109824762Y-135824819D02*
X109824762Y-135301009D01*
X109824762Y-135301009D02*
X109777143Y-135205771D01*
X109777143Y-135205771D02*
X109681905Y-135158152D01*
X109681905Y-135158152D02*
X109539048Y-135158152D01*
X109539048Y-135158152D02*
X109443810Y-135205771D01*
X109443810Y-135205771D02*
X109396191Y-135253390D01*
X110300953Y-135824819D02*
X110300953Y-135158152D01*
X110300953Y-135253390D02*
X110348572Y-135205771D01*
X110348572Y-135205771D02*
X110443810Y-135158152D01*
X110443810Y-135158152D02*
X110586667Y-135158152D01*
X110586667Y-135158152D02*
X110681905Y-135205771D01*
X110681905Y-135205771D02*
X110729524Y-135301009D01*
X110729524Y-135301009D02*
X110729524Y-135824819D01*
X110729524Y-135301009D02*
X110777143Y-135205771D01*
X110777143Y-135205771D02*
X110872381Y-135158152D01*
X110872381Y-135158152D02*
X111015238Y-135158152D01*
X111015238Y-135158152D02*
X111110477Y-135205771D01*
X111110477Y-135205771D02*
X111158096Y-135301009D01*
X111158096Y-135301009D02*
X111158096Y-135824819D01*
X107416667Y-126907200D02*
X107559524Y-126954819D01*
X107559524Y-126954819D02*
X107797619Y-126954819D01*
X107797619Y-126954819D02*
X107892857Y-126907200D01*
X107892857Y-126907200D02*
X107940476Y-126859580D01*
X107940476Y-126859580D02*
X107988095Y-126764342D01*
X107988095Y-126764342D02*
X107988095Y-126669104D01*
X107988095Y-126669104D02*
X107940476Y-126573866D01*
X107940476Y-126573866D02*
X107892857Y-126526247D01*
X107892857Y-126526247D02*
X107797619Y-126478628D01*
X107797619Y-126478628D02*
X107607143Y-126431009D01*
X107607143Y-126431009D02*
X107511905Y-126383390D01*
X107511905Y-126383390D02*
X107464286Y-126335771D01*
X107464286Y-126335771D02*
X107416667Y-126240533D01*
X107416667Y-126240533D02*
X107416667Y-126145295D01*
X107416667Y-126145295D02*
X107464286Y-126050057D01*
X107464286Y-126050057D02*
X107511905Y-126002438D01*
X107511905Y-126002438D02*
X107607143Y-125954819D01*
X107607143Y-125954819D02*
X107845238Y-125954819D01*
X107845238Y-125954819D02*
X107988095Y-126002438D01*
X108321429Y-125954819D02*
X108559524Y-126954819D01*
X108559524Y-126954819D02*
X108750000Y-126240533D01*
X108750000Y-126240533D02*
X108940476Y-126954819D01*
X108940476Y-126954819D02*
X109178572Y-125954819D01*
X110083333Y-126954819D02*
X109511905Y-126954819D01*
X109797619Y-126954819D02*
X109797619Y-125954819D01*
X109797619Y-125954819D02*
X109702381Y-126097676D01*
X109702381Y-126097676D02*
X109607143Y-126192914D01*
X109607143Y-126192914D02*
X109511905Y-126240533D01*
X107011904Y-118254819D02*
X106678571Y-117778628D01*
X106440476Y-118254819D02*
X106440476Y-117254819D01*
X106440476Y-117254819D02*
X106821428Y-117254819D01*
X106821428Y-117254819D02*
X106916666Y-117302438D01*
X106916666Y-117302438D02*
X106964285Y-117350057D01*
X106964285Y-117350057D02*
X107011904Y-117445295D01*
X107011904Y-117445295D02*
X107011904Y-117588152D01*
X107011904Y-117588152D02*
X106964285Y-117683390D01*
X106964285Y-117683390D02*
X106916666Y-117731009D01*
X106916666Y-117731009D02*
X106821428Y-117778628D01*
X106821428Y-117778628D02*
X106440476Y-117778628D01*
X107821428Y-118207200D02*
X107726190Y-118254819D01*
X107726190Y-118254819D02*
X107535714Y-118254819D01*
X107535714Y-118254819D02*
X107440476Y-118207200D01*
X107440476Y-118207200D02*
X107392857Y-118111961D01*
X107392857Y-118111961D02*
X107392857Y-117731009D01*
X107392857Y-117731009D02*
X107440476Y-117635771D01*
X107440476Y-117635771D02*
X107535714Y-117588152D01*
X107535714Y-117588152D02*
X107726190Y-117588152D01*
X107726190Y-117588152D02*
X107821428Y-117635771D01*
X107821428Y-117635771D02*
X107869047Y-117731009D01*
X107869047Y-117731009D02*
X107869047Y-117826247D01*
X107869047Y-117826247D02*
X107392857Y-117921485D01*
X108250000Y-118207200D02*
X108345238Y-118254819D01*
X108345238Y-118254819D02*
X108535714Y-118254819D01*
X108535714Y-118254819D02*
X108630952Y-118207200D01*
X108630952Y-118207200D02*
X108678571Y-118111961D01*
X108678571Y-118111961D02*
X108678571Y-118064342D01*
X108678571Y-118064342D02*
X108630952Y-117969104D01*
X108630952Y-117969104D02*
X108535714Y-117921485D01*
X108535714Y-117921485D02*
X108392857Y-117921485D01*
X108392857Y-117921485D02*
X108297619Y-117873866D01*
X108297619Y-117873866D02*
X108250000Y-117778628D01*
X108250000Y-117778628D02*
X108250000Y-117731009D01*
X108250000Y-117731009D02*
X108297619Y-117635771D01*
X108297619Y-117635771D02*
X108392857Y-117588152D01*
X108392857Y-117588152D02*
X108535714Y-117588152D01*
X108535714Y-117588152D02*
X108630952Y-117635771D01*
X109488095Y-118207200D02*
X109392857Y-118254819D01*
X109392857Y-118254819D02*
X109202381Y-118254819D01*
X109202381Y-118254819D02*
X109107143Y-118207200D01*
X109107143Y-118207200D02*
X109059524Y-118111961D01*
X109059524Y-118111961D02*
X109059524Y-117731009D01*
X109059524Y-117731009D02*
X109107143Y-117635771D01*
X109107143Y-117635771D02*
X109202381Y-117588152D01*
X109202381Y-117588152D02*
X109392857Y-117588152D01*
X109392857Y-117588152D02*
X109488095Y-117635771D01*
X109488095Y-117635771D02*
X109535714Y-117731009D01*
X109535714Y-117731009D02*
X109535714Y-117826247D01*
X109535714Y-117826247D02*
X109059524Y-117921485D01*
X109821429Y-117588152D02*
X110202381Y-117588152D01*
X109964286Y-117254819D02*
X109964286Y-118111961D01*
X109964286Y-118111961D02*
X110011905Y-118207200D01*
X110011905Y-118207200D02*
X110107143Y-118254819D01*
X110107143Y-118254819D02*
X110202381Y-118254819D01*
X109333333Y-101824819D02*
X109000000Y-101348628D01*
X108761905Y-101824819D02*
X108761905Y-100824819D01*
X108761905Y-100824819D02*
X109142857Y-100824819D01*
X109142857Y-100824819D02*
X109238095Y-100872438D01*
X109238095Y-100872438D02*
X109285714Y-100920057D01*
X109285714Y-100920057D02*
X109333333Y-101015295D01*
X109333333Y-101015295D02*
X109333333Y-101158152D01*
X109333333Y-101158152D02*
X109285714Y-101253390D01*
X109285714Y-101253390D02*
X109238095Y-101301009D01*
X109238095Y-101301009D02*
X109142857Y-101348628D01*
X109142857Y-101348628D02*
X108761905Y-101348628D01*
X110285714Y-101824819D02*
X109714286Y-101824819D01*
X110000000Y-101824819D02*
X110000000Y-100824819D01*
X110000000Y-100824819D02*
X109904762Y-100967676D01*
X109904762Y-100967676D02*
X109809524Y-101062914D01*
X109809524Y-101062914D02*
X109714286Y-101110533D01*
X99619047Y-94931009D02*
X99761904Y-94978628D01*
X99761904Y-94978628D02*
X99809523Y-95026247D01*
X99809523Y-95026247D02*
X99857142Y-95121485D01*
X99857142Y-95121485D02*
X99857142Y-95264342D01*
X99857142Y-95264342D02*
X99809523Y-95359580D01*
X99809523Y-95359580D02*
X99761904Y-95407200D01*
X99761904Y-95407200D02*
X99666666Y-95454819D01*
X99666666Y-95454819D02*
X99285714Y-95454819D01*
X99285714Y-95454819D02*
X99285714Y-94454819D01*
X99285714Y-94454819D02*
X99619047Y-94454819D01*
X99619047Y-94454819D02*
X99714285Y-94502438D01*
X99714285Y-94502438D02*
X99761904Y-94550057D01*
X99761904Y-94550057D02*
X99809523Y-94645295D01*
X99809523Y-94645295D02*
X99809523Y-94740533D01*
X99809523Y-94740533D02*
X99761904Y-94835771D01*
X99761904Y-94835771D02*
X99714285Y-94883390D01*
X99714285Y-94883390D02*
X99619047Y-94931009D01*
X99619047Y-94931009D02*
X99285714Y-94931009D01*
X100190476Y-94454819D02*
X100857142Y-94454819D01*
X100857142Y-94454819D02*
X100190476Y-95454819D01*
X100190476Y-95454819D02*
X100857142Y-95454819D01*
X101761904Y-95454819D02*
X101190476Y-95454819D01*
X101476190Y-95454819D02*
X101476190Y-94454819D01*
X101476190Y-94454819D02*
X101380952Y-94597676D01*
X101380952Y-94597676D02*
X101285714Y-94692914D01*
X101285714Y-94692914D02*
X101190476Y-94740533D01*
X97285713Y-80931009D02*
X97428570Y-80978628D01*
X97428570Y-80978628D02*
X97476189Y-81026247D01*
X97476189Y-81026247D02*
X97523808Y-81121485D01*
X97523808Y-81121485D02*
X97523808Y-81264342D01*
X97523808Y-81264342D02*
X97476189Y-81359580D01*
X97476189Y-81359580D02*
X97428570Y-81407200D01*
X97428570Y-81407200D02*
X97333332Y-81454819D01*
X97333332Y-81454819D02*
X96952380Y-81454819D01*
X96952380Y-81454819D02*
X96952380Y-80454819D01*
X96952380Y-80454819D02*
X97285713Y-80454819D01*
X97285713Y-80454819D02*
X97380951Y-80502438D01*
X97380951Y-80502438D02*
X97428570Y-80550057D01*
X97428570Y-80550057D02*
X97476189Y-80645295D01*
X97476189Y-80645295D02*
X97476189Y-80740533D01*
X97476189Y-80740533D02*
X97428570Y-80835771D01*
X97428570Y-80835771D02*
X97380951Y-80883390D01*
X97380951Y-80883390D02*
X97285713Y-80931009D01*
X97285713Y-80931009D02*
X96952380Y-80931009D01*
X98380951Y-80788152D02*
X98380951Y-81454819D01*
X97952380Y-80788152D02*
X97952380Y-81311961D01*
X97952380Y-81311961D02*
X97999999Y-81407200D01*
X97999999Y-81407200D02*
X98095237Y-81454819D01*
X98095237Y-81454819D02*
X98238094Y-81454819D01*
X98238094Y-81454819D02*
X98333332Y-81407200D01*
X98333332Y-81407200D02*
X98380951Y-81359580D01*
X98761904Y-80788152D02*
X99285713Y-80788152D01*
X99285713Y-80788152D02*
X98761904Y-81454819D01*
X98761904Y-81454819D02*
X99285713Y-81454819D01*
X99571428Y-80788152D02*
X100095237Y-80788152D01*
X100095237Y-80788152D02*
X99571428Y-81454819D01*
X99571428Y-81454819D02*
X100095237Y-81454819D01*
X100857142Y-81407200D02*
X100761904Y-81454819D01*
X100761904Y-81454819D02*
X100571428Y-81454819D01*
X100571428Y-81454819D02*
X100476190Y-81407200D01*
X100476190Y-81407200D02*
X100428571Y-81311961D01*
X100428571Y-81311961D02*
X100428571Y-80931009D01*
X100428571Y-80931009D02*
X100476190Y-80835771D01*
X100476190Y-80835771D02*
X100571428Y-80788152D01*
X100571428Y-80788152D02*
X100761904Y-80788152D01*
X100761904Y-80788152D02*
X100857142Y-80835771D01*
X100857142Y-80835771D02*
X100904761Y-80931009D01*
X100904761Y-80931009D02*
X100904761Y-81026247D01*
X100904761Y-81026247D02*
X100428571Y-81121485D01*
X101333333Y-81454819D02*
X101333333Y-80788152D01*
X101333333Y-80978628D02*
X101380952Y-80883390D01*
X101380952Y-80883390D02*
X101428571Y-80835771D01*
X101428571Y-80835771D02*
X101523809Y-80788152D01*
X101523809Y-80788152D02*
X101619047Y-80788152D01*
X101714286Y-81550057D02*
X102476190Y-81550057D01*
X103190476Y-80454819D02*
X102714286Y-80454819D01*
X102714286Y-80454819D02*
X102666667Y-80931009D01*
X102666667Y-80931009D02*
X102714286Y-80883390D01*
X102714286Y-80883390D02*
X102809524Y-80835771D01*
X102809524Y-80835771D02*
X103047619Y-80835771D01*
X103047619Y-80835771D02*
X103142857Y-80883390D01*
X103142857Y-80883390D02*
X103190476Y-80931009D01*
X103190476Y-80931009D02*
X103238095Y-81026247D01*
X103238095Y-81026247D02*
X103238095Y-81264342D01*
X103238095Y-81264342D02*
X103190476Y-81359580D01*
X103190476Y-81359580D02*
X103142857Y-81407200D01*
X103142857Y-81407200D02*
X103047619Y-81454819D01*
X103047619Y-81454819D02*
X102809524Y-81454819D01*
X102809524Y-81454819D02*
X102714286Y-81407200D01*
X102714286Y-81407200D02*
X102666667Y-81359580D01*
X103523810Y-80454819D02*
X103857143Y-81454819D01*
X103857143Y-81454819D02*
X104190476Y-80454819D01*
X103369048Y-89873866D02*
X104130953Y-89873866D01*
X103750000Y-90254819D02*
X103750000Y-89492914D01*
X149416667Y-114907200D02*
X149559524Y-114954819D01*
X149559524Y-114954819D02*
X149797619Y-114954819D01*
X149797619Y-114954819D02*
X149892857Y-114907200D01*
X149892857Y-114907200D02*
X149940476Y-114859580D01*
X149940476Y-114859580D02*
X149988095Y-114764342D01*
X149988095Y-114764342D02*
X149988095Y-114669104D01*
X149988095Y-114669104D02*
X149940476Y-114573866D01*
X149940476Y-114573866D02*
X149892857Y-114526247D01*
X149892857Y-114526247D02*
X149797619Y-114478628D01*
X149797619Y-114478628D02*
X149607143Y-114431009D01*
X149607143Y-114431009D02*
X149511905Y-114383390D01*
X149511905Y-114383390D02*
X149464286Y-114335771D01*
X149464286Y-114335771D02*
X149416667Y-114240533D01*
X149416667Y-114240533D02*
X149416667Y-114145295D01*
X149416667Y-114145295D02*
X149464286Y-114050057D01*
X149464286Y-114050057D02*
X149511905Y-114002438D01*
X149511905Y-114002438D02*
X149607143Y-113954819D01*
X149607143Y-113954819D02*
X149845238Y-113954819D01*
X149845238Y-113954819D02*
X149988095Y-114002438D01*
X150321429Y-113954819D02*
X150559524Y-114954819D01*
X150559524Y-114954819D02*
X150750000Y-114240533D01*
X150750000Y-114240533D02*
X150940476Y-114954819D01*
X150940476Y-114954819D02*
X151178572Y-113954819D01*
X151988095Y-114288152D02*
X151988095Y-114954819D01*
X151750000Y-113907200D02*
X151511905Y-114621485D01*
X151511905Y-114621485D02*
X152130952Y-114621485D01*
X149583333Y-123654819D02*
X149583333Y-122654819D01*
X149583333Y-122654819D02*
X149916666Y-123369104D01*
X149916666Y-123369104D02*
X150249999Y-122654819D01*
X150249999Y-122654819D02*
X150249999Y-123654819D01*
X151107142Y-123607200D02*
X151011904Y-123654819D01*
X151011904Y-123654819D02*
X150821428Y-123654819D01*
X150821428Y-123654819D02*
X150726190Y-123607200D01*
X150726190Y-123607200D02*
X150678571Y-123511961D01*
X150678571Y-123511961D02*
X150678571Y-123131009D01*
X150678571Y-123131009D02*
X150726190Y-123035771D01*
X150726190Y-123035771D02*
X150821428Y-122988152D01*
X150821428Y-122988152D02*
X151011904Y-122988152D01*
X151011904Y-122988152D02*
X151107142Y-123035771D01*
X151107142Y-123035771D02*
X151154761Y-123131009D01*
X151154761Y-123131009D02*
X151154761Y-123226247D01*
X151154761Y-123226247D02*
X150678571Y-123321485D01*
X151583333Y-122988152D02*
X151583333Y-123654819D01*
X151583333Y-123083390D02*
X151630952Y-123035771D01*
X151630952Y-123035771D02*
X151726190Y-122988152D01*
X151726190Y-122988152D02*
X151869047Y-122988152D01*
X151869047Y-122988152D02*
X151964285Y-123035771D01*
X151964285Y-123035771D02*
X152011904Y-123131009D01*
X152011904Y-123131009D02*
X152011904Y-123654819D01*
X152916666Y-122988152D02*
X152916666Y-123654819D01*
X152488095Y-122988152D02*
X152488095Y-123511961D01*
X152488095Y-123511961D02*
X152535714Y-123607200D01*
X152535714Y-123607200D02*
X152630952Y-123654819D01*
X152630952Y-123654819D02*
X152773809Y-123654819D01*
X152773809Y-123654819D02*
X152869047Y-123607200D01*
X152869047Y-123607200D02*
X152916666Y-123559580D01*
X149416667Y-103407200D02*
X149559524Y-103454819D01*
X149559524Y-103454819D02*
X149797619Y-103454819D01*
X149797619Y-103454819D02*
X149892857Y-103407200D01*
X149892857Y-103407200D02*
X149940476Y-103359580D01*
X149940476Y-103359580D02*
X149988095Y-103264342D01*
X149988095Y-103264342D02*
X149988095Y-103169104D01*
X149988095Y-103169104D02*
X149940476Y-103073866D01*
X149940476Y-103073866D02*
X149892857Y-103026247D01*
X149892857Y-103026247D02*
X149797619Y-102978628D01*
X149797619Y-102978628D02*
X149607143Y-102931009D01*
X149607143Y-102931009D02*
X149511905Y-102883390D01*
X149511905Y-102883390D02*
X149464286Y-102835771D01*
X149464286Y-102835771D02*
X149416667Y-102740533D01*
X149416667Y-102740533D02*
X149416667Y-102645295D01*
X149416667Y-102645295D02*
X149464286Y-102550057D01*
X149464286Y-102550057D02*
X149511905Y-102502438D01*
X149511905Y-102502438D02*
X149607143Y-102454819D01*
X149607143Y-102454819D02*
X149845238Y-102454819D01*
X149845238Y-102454819D02*
X149988095Y-102502438D01*
X150321429Y-102454819D02*
X150559524Y-103454819D01*
X150559524Y-103454819D02*
X150750000Y-102740533D01*
X150750000Y-102740533D02*
X150940476Y-103454819D01*
X150940476Y-103454819D02*
X151178572Y-102454819D01*
X151464286Y-102454819D02*
X152083333Y-102454819D01*
X152083333Y-102454819D02*
X151750000Y-102835771D01*
X151750000Y-102835771D02*
X151892857Y-102835771D01*
X151892857Y-102835771D02*
X151988095Y-102883390D01*
X151988095Y-102883390D02*
X152035714Y-102931009D01*
X152035714Y-102931009D02*
X152083333Y-103026247D01*
X152083333Y-103026247D02*
X152083333Y-103264342D01*
X152083333Y-103264342D02*
X152035714Y-103359580D01*
X152035714Y-103359580D02*
X151988095Y-103407200D01*
X151988095Y-103407200D02*
X151892857Y-103454819D01*
X151892857Y-103454819D02*
X151607143Y-103454819D01*
X151607143Y-103454819D02*
X151511905Y-103407200D01*
X151511905Y-103407200D02*
X151464286Y-103359580D01*
X149559524Y-112154819D02*
X149559524Y-111154819D01*
X149559524Y-111154819D02*
X149797619Y-111154819D01*
X149797619Y-111154819D02*
X149940476Y-111202438D01*
X149940476Y-111202438D02*
X150035714Y-111297676D01*
X150035714Y-111297676D02*
X150083333Y-111392914D01*
X150083333Y-111392914D02*
X150130952Y-111583390D01*
X150130952Y-111583390D02*
X150130952Y-111726247D01*
X150130952Y-111726247D02*
X150083333Y-111916723D01*
X150083333Y-111916723D02*
X150035714Y-112011961D01*
X150035714Y-112011961D02*
X149940476Y-112107200D01*
X149940476Y-112107200D02*
X149797619Y-112154819D01*
X149797619Y-112154819D02*
X149559524Y-112154819D01*
X150702381Y-112154819D02*
X150607143Y-112107200D01*
X150607143Y-112107200D02*
X150559524Y-112059580D01*
X150559524Y-112059580D02*
X150511905Y-111964342D01*
X150511905Y-111964342D02*
X150511905Y-111678628D01*
X150511905Y-111678628D02*
X150559524Y-111583390D01*
X150559524Y-111583390D02*
X150607143Y-111535771D01*
X150607143Y-111535771D02*
X150702381Y-111488152D01*
X150702381Y-111488152D02*
X150845238Y-111488152D01*
X150845238Y-111488152D02*
X150940476Y-111535771D01*
X150940476Y-111535771D02*
X150988095Y-111583390D01*
X150988095Y-111583390D02*
X151035714Y-111678628D01*
X151035714Y-111678628D02*
X151035714Y-111964342D01*
X151035714Y-111964342D02*
X150988095Y-112059580D01*
X150988095Y-112059580D02*
X150940476Y-112107200D01*
X150940476Y-112107200D02*
X150845238Y-112154819D01*
X150845238Y-112154819D02*
X150702381Y-112154819D01*
X151369048Y-111488152D02*
X151559524Y-112154819D01*
X151559524Y-112154819D02*
X151750000Y-111678628D01*
X151750000Y-111678628D02*
X151940476Y-112154819D01*
X151940476Y-112154819D02*
X152130952Y-111488152D01*
X152511905Y-111488152D02*
X152511905Y-112154819D01*
X152511905Y-111583390D02*
X152559524Y-111535771D01*
X152559524Y-111535771D02*
X152654762Y-111488152D01*
X152654762Y-111488152D02*
X152797619Y-111488152D01*
X152797619Y-111488152D02*
X152892857Y-111535771D01*
X152892857Y-111535771D02*
X152940476Y-111631009D01*
X152940476Y-111631009D02*
X152940476Y-112154819D01*
X109333333Y-104084819D02*
X109000000Y-103608628D01*
X108761905Y-104084819D02*
X108761905Y-103084819D01*
X108761905Y-103084819D02*
X109142857Y-103084819D01*
X109142857Y-103084819D02*
X109238095Y-103132438D01*
X109238095Y-103132438D02*
X109285714Y-103180057D01*
X109285714Y-103180057D02*
X109333333Y-103275295D01*
X109333333Y-103275295D02*
X109333333Y-103418152D01*
X109333333Y-103418152D02*
X109285714Y-103513390D01*
X109285714Y-103513390D02*
X109238095Y-103561009D01*
X109238095Y-103561009D02*
X109142857Y-103608628D01*
X109142857Y-103608628D02*
X108761905Y-103608628D01*
X109666667Y-103084819D02*
X110285714Y-103084819D01*
X110285714Y-103084819D02*
X109952381Y-103465771D01*
X109952381Y-103465771D02*
X110095238Y-103465771D01*
X110095238Y-103465771D02*
X110190476Y-103513390D01*
X110190476Y-103513390D02*
X110238095Y-103561009D01*
X110238095Y-103561009D02*
X110285714Y-103656247D01*
X110285714Y-103656247D02*
X110285714Y-103894342D01*
X110285714Y-103894342D02*
X110238095Y-103989580D01*
X110238095Y-103989580D02*
X110190476Y-104037200D01*
X110190476Y-104037200D02*
X110095238Y-104084819D01*
X110095238Y-104084819D02*
X109809524Y-104084819D01*
X109809524Y-104084819D02*
X109714286Y-104037200D01*
X109714286Y-104037200D02*
X109666667Y-103989580D01*
X106714286Y-107920057D02*
X106761905Y-107872438D01*
X106761905Y-107872438D02*
X106857143Y-107824819D01*
X106857143Y-107824819D02*
X107095238Y-107824819D01*
X107095238Y-107824819D02*
X107190476Y-107872438D01*
X107190476Y-107872438D02*
X107238095Y-107920057D01*
X107238095Y-107920057D02*
X107285714Y-108015295D01*
X107285714Y-108015295D02*
X107285714Y-108110533D01*
X107285714Y-108110533D02*
X107238095Y-108253390D01*
X107238095Y-108253390D02*
X106666667Y-108824819D01*
X106666667Y-108824819D02*
X107285714Y-108824819D01*
X107666667Y-107920057D02*
X107714286Y-107872438D01*
X107714286Y-107872438D02*
X107809524Y-107824819D01*
X107809524Y-107824819D02*
X108047619Y-107824819D01*
X108047619Y-107824819D02*
X108142857Y-107872438D01*
X108142857Y-107872438D02*
X108190476Y-107920057D01*
X108190476Y-107920057D02*
X108238095Y-108015295D01*
X108238095Y-108015295D02*
X108238095Y-108110533D01*
X108238095Y-108110533D02*
X108190476Y-108253390D01*
X108190476Y-108253390D02*
X107619048Y-108824819D01*
X107619048Y-108824819D02*
X108238095Y-108824819D01*
X109619048Y-107824819D02*
X109809524Y-107824819D01*
X109809524Y-107824819D02*
X109904762Y-107872438D01*
X109904762Y-107872438D02*
X110000000Y-107967676D01*
X110000000Y-107967676D02*
X110047619Y-108158152D01*
X110047619Y-108158152D02*
X110047619Y-108491485D01*
X110047619Y-108491485D02*
X110000000Y-108681961D01*
X110000000Y-108681961D02*
X109904762Y-108777200D01*
X109904762Y-108777200D02*
X109809524Y-108824819D01*
X109809524Y-108824819D02*
X109619048Y-108824819D01*
X109619048Y-108824819D02*
X109523810Y-108777200D01*
X109523810Y-108777200D02*
X109428572Y-108681961D01*
X109428572Y-108681961D02*
X109380953Y-108491485D01*
X109380953Y-108491485D02*
X109380953Y-108158152D01*
X109380953Y-108158152D02*
X109428572Y-107967676D01*
X109428572Y-107967676D02*
X109523810Y-107872438D01*
X109523810Y-107872438D02*
X109619048Y-107824819D01*
X110476191Y-108824819D02*
X110476191Y-107824819D01*
X110904762Y-108824819D02*
X110904762Y-108301009D01*
X110904762Y-108301009D02*
X110857143Y-108205771D01*
X110857143Y-108205771D02*
X110761905Y-108158152D01*
X110761905Y-108158152D02*
X110619048Y-108158152D01*
X110619048Y-108158152D02*
X110523810Y-108205771D01*
X110523810Y-108205771D02*
X110476191Y-108253390D01*
X111380953Y-108824819D02*
X111380953Y-108158152D01*
X111380953Y-108253390D02*
X111428572Y-108205771D01*
X111428572Y-108205771D02*
X111523810Y-108158152D01*
X111523810Y-108158152D02*
X111666667Y-108158152D01*
X111666667Y-108158152D02*
X111761905Y-108205771D01*
X111761905Y-108205771D02*
X111809524Y-108301009D01*
X111809524Y-108301009D02*
X111809524Y-108824819D01*
X111809524Y-108301009D02*
X111857143Y-108205771D01*
X111857143Y-108205771D02*
X111952381Y-108158152D01*
X111952381Y-108158152D02*
X112095238Y-108158152D01*
X112095238Y-108158152D02*
X112190477Y-108205771D01*
X112190477Y-108205771D02*
X112238096Y-108301009D01*
X112238096Y-108301009D02*
X112238096Y-108824819D01*
X155354819Y-137833333D02*
X156069104Y-137833333D01*
X156069104Y-137833333D02*
X156211961Y-137880952D01*
X156211961Y-137880952D02*
X156307200Y-137976190D01*
X156307200Y-137976190D02*
X156354819Y-138119047D01*
X156354819Y-138119047D02*
X156354819Y-138214285D01*
X156354819Y-136833333D02*
X156354819Y-137404761D01*
X156354819Y-137119047D02*
X155354819Y-137119047D01*
X155354819Y-137119047D02*
X155497676Y-137214285D01*
X155497676Y-137214285D02*
X155592914Y-137309523D01*
X155592914Y-137309523D02*
X155640533Y-137404761D01*
X149454819Y-139809523D02*
X148454819Y-139809523D01*
X148454819Y-139809523D02*
X148454819Y-139428571D01*
X148454819Y-139428571D02*
X148502438Y-139333333D01*
X148502438Y-139333333D02*
X148550057Y-139285714D01*
X148550057Y-139285714D02*
X148645295Y-139238095D01*
X148645295Y-139238095D02*
X148788152Y-139238095D01*
X148788152Y-139238095D02*
X148883390Y-139285714D01*
X148883390Y-139285714D02*
X148931009Y-139333333D01*
X148931009Y-139333333D02*
X148978628Y-139428571D01*
X148978628Y-139428571D02*
X148978628Y-139809523D01*
X148454819Y-138619047D02*
X148454819Y-138428571D01*
X148454819Y-138428571D02*
X148502438Y-138333333D01*
X148502438Y-138333333D02*
X148597676Y-138238095D01*
X148597676Y-138238095D02*
X148788152Y-138190476D01*
X148788152Y-138190476D02*
X149121485Y-138190476D01*
X149121485Y-138190476D02*
X149311961Y-138238095D01*
X149311961Y-138238095D02*
X149407200Y-138333333D01*
X149407200Y-138333333D02*
X149454819Y-138428571D01*
X149454819Y-138428571D02*
X149454819Y-138619047D01*
X149454819Y-138619047D02*
X149407200Y-138714285D01*
X149407200Y-138714285D02*
X149311961Y-138809523D01*
X149311961Y-138809523D02*
X149121485Y-138857142D01*
X149121485Y-138857142D02*
X148788152Y-138857142D01*
X148788152Y-138857142D02*
X148597676Y-138809523D01*
X148597676Y-138809523D02*
X148502438Y-138714285D01*
X148502438Y-138714285D02*
X148454819Y-138619047D01*
X148454819Y-137857142D02*
X149454819Y-137619047D01*
X149454819Y-137619047D02*
X148740533Y-137428571D01*
X148740533Y-137428571D02*
X149454819Y-137238095D01*
X149454819Y-137238095D02*
X148454819Y-137000000D01*
X148931009Y-136619047D02*
X148931009Y-136285714D01*
X149454819Y-136142857D02*
X149454819Y-136619047D01*
X149454819Y-136619047D02*
X148454819Y-136619047D01*
X148454819Y-136619047D02*
X148454819Y-136142857D01*
X149454819Y-135142857D02*
X148978628Y-135476190D01*
X149454819Y-135714285D02*
X148454819Y-135714285D01*
X148454819Y-135714285D02*
X148454819Y-135333333D01*
X148454819Y-135333333D02*
X148502438Y-135238095D01*
X148502438Y-135238095D02*
X148550057Y-135190476D01*
X148550057Y-135190476D02*
X148645295Y-135142857D01*
X148645295Y-135142857D02*
X148788152Y-135142857D01*
X148788152Y-135142857D02*
X148883390Y-135190476D01*
X148883390Y-135190476D02*
X148931009Y-135238095D01*
X148931009Y-135238095D02*
X148978628Y-135333333D01*
X148978628Y-135333333D02*
X148978628Y-135714285D01*
X108333333Y-139084819D02*
X108000000Y-138608628D01*
X107761905Y-139084819D02*
X107761905Y-138084819D01*
X107761905Y-138084819D02*
X108142857Y-138084819D01*
X108142857Y-138084819D02*
X108238095Y-138132438D01*
X108238095Y-138132438D02*
X108285714Y-138180057D01*
X108285714Y-138180057D02*
X108333333Y-138275295D01*
X108333333Y-138275295D02*
X108333333Y-138418152D01*
X108333333Y-138418152D02*
X108285714Y-138513390D01*
X108285714Y-138513390D02*
X108238095Y-138561009D01*
X108238095Y-138561009D02*
X108142857Y-138608628D01*
X108142857Y-138608628D02*
X107761905Y-138608628D01*
X109190476Y-138418152D02*
X109190476Y-139084819D01*
X108952381Y-138037200D02*
X108714286Y-138751485D01*
X108714286Y-138751485D02*
X109333333Y-138751485D01*
X105880952Y-143824819D02*
X105309524Y-143824819D01*
X105595238Y-143824819D02*
X105595238Y-142824819D01*
X105595238Y-142824819D02*
X105500000Y-142967676D01*
X105500000Y-142967676D02*
X105404762Y-143062914D01*
X105404762Y-143062914D02*
X105309524Y-143110533D01*
X106500000Y-142824819D02*
X106595238Y-142824819D01*
X106595238Y-142824819D02*
X106690476Y-142872438D01*
X106690476Y-142872438D02*
X106738095Y-142920057D01*
X106738095Y-142920057D02*
X106785714Y-143015295D01*
X106785714Y-143015295D02*
X106833333Y-143205771D01*
X106833333Y-143205771D02*
X106833333Y-143443866D01*
X106833333Y-143443866D02*
X106785714Y-143634342D01*
X106785714Y-143634342D02*
X106738095Y-143729580D01*
X106738095Y-143729580D02*
X106690476Y-143777200D01*
X106690476Y-143777200D02*
X106595238Y-143824819D01*
X106595238Y-143824819D02*
X106500000Y-143824819D01*
X106500000Y-143824819D02*
X106404762Y-143777200D01*
X106404762Y-143777200D02*
X106357143Y-143729580D01*
X106357143Y-143729580D02*
X106309524Y-143634342D01*
X106309524Y-143634342D02*
X106261905Y-143443866D01*
X106261905Y-143443866D02*
X106261905Y-143205771D01*
X106261905Y-143205771D02*
X106309524Y-143015295D01*
X106309524Y-143015295D02*
X106357143Y-142920057D01*
X106357143Y-142920057D02*
X106404762Y-142872438D01*
X106404762Y-142872438D02*
X106500000Y-142824819D01*
X108023810Y-143824819D02*
X108023810Y-142824819D01*
X108119048Y-143443866D02*
X108404762Y-143824819D01*
X108404762Y-143158152D02*
X108023810Y-143539104D01*
X109023810Y-142824819D02*
X109214286Y-142824819D01*
X109214286Y-142824819D02*
X109309524Y-142872438D01*
X109309524Y-142872438D02*
X109404762Y-142967676D01*
X109404762Y-142967676D02*
X109452381Y-143158152D01*
X109452381Y-143158152D02*
X109452381Y-143491485D01*
X109452381Y-143491485D02*
X109404762Y-143681961D01*
X109404762Y-143681961D02*
X109309524Y-143777200D01*
X109309524Y-143777200D02*
X109214286Y-143824819D01*
X109214286Y-143824819D02*
X109023810Y-143824819D01*
X109023810Y-143824819D02*
X108928572Y-143777200D01*
X108928572Y-143777200D02*
X108833334Y-143681961D01*
X108833334Y-143681961D02*
X108785715Y-143491485D01*
X108785715Y-143491485D02*
X108785715Y-143158152D01*
X108785715Y-143158152D02*
X108833334Y-142967676D01*
X108833334Y-142967676D02*
X108928572Y-142872438D01*
X108928572Y-142872438D02*
X109023810Y-142824819D01*
X109880953Y-143824819D02*
X109880953Y-142824819D01*
X110309524Y-143824819D02*
X110309524Y-143301009D01*
X110309524Y-143301009D02*
X110261905Y-143205771D01*
X110261905Y-143205771D02*
X110166667Y-143158152D01*
X110166667Y-143158152D02*
X110023810Y-143158152D01*
X110023810Y-143158152D02*
X109928572Y-143205771D01*
X109928572Y-143205771D02*
X109880953Y-143253390D01*
X110785715Y-143824819D02*
X110785715Y-143158152D01*
X110785715Y-143253390D02*
X110833334Y-143205771D01*
X110833334Y-143205771D02*
X110928572Y-143158152D01*
X110928572Y-143158152D02*
X111071429Y-143158152D01*
X111071429Y-143158152D02*
X111166667Y-143205771D01*
X111166667Y-143205771D02*
X111214286Y-143301009D01*
X111214286Y-143301009D02*
X111214286Y-143824819D01*
X111214286Y-143301009D02*
X111261905Y-143205771D01*
X111261905Y-143205771D02*
X111357143Y-143158152D01*
X111357143Y-143158152D02*
X111500000Y-143158152D01*
X111500000Y-143158152D02*
X111595239Y-143205771D01*
X111595239Y-143205771D02*
X111642858Y-143301009D01*
X111642858Y-143301009D02*
X111642858Y-143824819D01*
X92554819Y-110333333D02*
X93269104Y-110333333D01*
X93269104Y-110333333D02*
X93411961Y-110380952D01*
X93411961Y-110380952D02*
X93507200Y-110476190D01*
X93507200Y-110476190D02*
X93554819Y-110619047D01*
X93554819Y-110619047D02*
X93554819Y-110714285D01*
X92554819Y-109952380D02*
X92554819Y-109333333D01*
X92554819Y-109333333D02*
X92935771Y-109666666D01*
X92935771Y-109666666D02*
X92935771Y-109523809D01*
X92935771Y-109523809D02*
X92983390Y-109428571D01*
X92983390Y-109428571D02*
X93031009Y-109380952D01*
X93031009Y-109380952D02*
X93126247Y-109333333D01*
X93126247Y-109333333D02*
X93364342Y-109333333D01*
X93364342Y-109333333D02*
X93459580Y-109380952D01*
X93459580Y-109380952D02*
X93507200Y-109428571D01*
X93507200Y-109428571D02*
X93554819Y-109523809D01*
X93554819Y-109523809D02*
X93554819Y-109809523D01*
X93554819Y-109809523D02*
X93507200Y-109904761D01*
X93507200Y-109904761D02*
X93459580Y-109952380D01*
X99454819Y-113833332D02*
X99454819Y-113261904D01*
X100454819Y-113547618D02*
X99454819Y-113547618D01*
X100454819Y-112357142D02*
X99978628Y-112690475D01*
X100454819Y-112928570D02*
X99454819Y-112928570D01*
X99454819Y-112928570D02*
X99454819Y-112547618D01*
X99454819Y-112547618D02*
X99502438Y-112452380D01*
X99502438Y-112452380D02*
X99550057Y-112404761D01*
X99550057Y-112404761D02*
X99645295Y-112357142D01*
X99645295Y-112357142D02*
X99788152Y-112357142D01*
X99788152Y-112357142D02*
X99883390Y-112404761D01*
X99883390Y-112404761D02*
X99931009Y-112452380D01*
X99931009Y-112452380D02*
X99978628Y-112547618D01*
X99978628Y-112547618D02*
X99978628Y-112928570D01*
X100454819Y-111928570D02*
X99454819Y-111928570D01*
X99502438Y-110928571D02*
X99454819Y-111023809D01*
X99454819Y-111023809D02*
X99454819Y-111166666D01*
X99454819Y-111166666D02*
X99502438Y-111309523D01*
X99502438Y-111309523D02*
X99597676Y-111404761D01*
X99597676Y-111404761D02*
X99692914Y-111452380D01*
X99692914Y-111452380D02*
X99883390Y-111499999D01*
X99883390Y-111499999D02*
X100026247Y-111499999D01*
X100026247Y-111499999D02*
X100216723Y-111452380D01*
X100216723Y-111452380D02*
X100311961Y-111404761D01*
X100311961Y-111404761D02*
X100407200Y-111309523D01*
X100407200Y-111309523D02*
X100454819Y-111166666D01*
X100454819Y-111166666D02*
X100454819Y-111071428D01*
X100454819Y-111071428D02*
X100407200Y-110928571D01*
X100407200Y-110928571D02*
X100359580Y-110880952D01*
X100359580Y-110880952D02*
X100026247Y-110880952D01*
X100026247Y-110880952D02*
X100026247Y-111071428D01*
X99502438Y-109928571D02*
X99454819Y-110023809D01*
X99454819Y-110023809D02*
X99454819Y-110166666D01*
X99454819Y-110166666D02*
X99502438Y-110309523D01*
X99502438Y-110309523D02*
X99597676Y-110404761D01*
X99597676Y-110404761D02*
X99692914Y-110452380D01*
X99692914Y-110452380D02*
X99883390Y-110499999D01*
X99883390Y-110499999D02*
X100026247Y-110499999D01*
X100026247Y-110499999D02*
X100216723Y-110452380D01*
X100216723Y-110452380D02*
X100311961Y-110404761D01*
X100311961Y-110404761D02*
X100407200Y-110309523D01*
X100407200Y-110309523D02*
X100454819Y-110166666D01*
X100454819Y-110166666D02*
X100454819Y-110071428D01*
X100454819Y-110071428D02*
X100407200Y-109928571D01*
X100407200Y-109928571D02*
X100359580Y-109880952D01*
X100359580Y-109880952D02*
X100026247Y-109880952D01*
X100026247Y-109880952D02*
X100026247Y-110071428D01*
X99931009Y-109452380D02*
X99931009Y-109119047D01*
X100454819Y-108976190D02*
X100454819Y-109452380D01*
X100454819Y-109452380D02*
X99454819Y-109452380D01*
X99454819Y-109452380D02*
X99454819Y-108976190D01*
X100454819Y-107976190D02*
X99978628Y-108309523D01*
X100454819Y-108547618D02*
X99454819Y-108547618D01*
X99454819Y-108547618D02*
X99454819Y-108166666D01*
X99454819Y-108166666D02*
X99502438Y-108071428D01*
X99502438Y-108071428D02*
X99550057Y-108023809D01*
X99550057Y-108023809D02*
X99645295Y-107976190D01*
X99645295Y-107976190D02*
X99788152Y-107976190D01*
X99788152Y-107976190D02*
X99883390Y-108023809D01*
X99883390Y-108023809D02*
X99931009Y-108071428D01*
X99931009Y-108071428D02*
X99978628Y-108166666D01*
X99978628Y-108166666D02*
X99978628Y-108547618D01*
X100550057Y-107785714D02*
X100550057Y-107023809D01*
X99550057Y-106833332D02*
X99502438Y-106785713D01*
X99502438Y-106785713D02*
X99454819Y-106690475D01*
X99454819Y-106690475D02*
X99454819Y-106452380D01*
X99454819Y-106452380D02*
X99502438Y-106357142D01*
X99502438Y-106357142D02*
X99550057Y-106309523D01*
X99550057Y-106309523D02*
X99645295Y-106261904D01*
X99645295Y-106261904D02*
X99740533Y-106261904D01*
X99740533Y-106261904D02*
X99883390Y-106309523D01*
X99883390Y-106309523D02*
X100454819Y-106880951D01*
X100454819Y-106880951D02*
X100454819Y-106261904D01*
D12*
%TO.C,J2*%
X93390000Y-141110000D02*
X93390000Y-142360000D01*
X93390000Y-142360000D02*
X94640000Y-142360000D01*
X93490000Y-140300000D02*
X93490000Y-140600000D01*
X93490000Y-140600000D02*
X93690000Y-140600000D01*
X93590000Y-140300000D02*
X93590000Y-140600000D01*
X93690000Y-131940000D02*
X93690000Y-142060000D01*
X93690000Y-139500000D02*
X94300000Y-139500000D01*
X93690000Y-140300000D02*
X93490000Y-140300000D01*
X93690000Y-142060000D02*
X98410000Y-142060000D01*
X94300000Y-132550000D02*
X94300000Y-134500000D01*
X94300000Y-134500000D02*
X93690000Y-134500000D01*
X94300000Y-139500000D02*
X94300000Y-141450000D01*
X94300000Y-141450000D02*
X97800000Y-141450000D01*
X95000000Y-131940000D02*
X95000000Y-132550000D01*
X95000000Y-142060000D02*
X95000000Y-141450000D01*
X96300000Y-131940000D02*
X96300000Y-132550000D01*
X96300000Y-142060000D02*
X96300000Y-141450000D01*
X97300000Y-134900000D02*
X97800000Y-134900000D01*
X97300000Y-135100000D02*
X97300000Y-134900000D01*
X97300000Y-136900000D02*
X97800000Y-136900000D01*
X97300000Y-137100000D02*
X97300000Y-136900000D01*
X97300000Y-138900000D02*
X97800000Y-138900000D01*
X97300000Y-139100000D02*
X97300000Y-138900000D01*
X97800000Y-132550000D02*
X94300000Y-132550000D01*
X97800000Y-135000000D02*
X97300000Y-135000000D01*
X97800000Y-135100000D02*
X97300000Y-135100000D01*
X97800000Y-137000000D02*
X97300000Y-137000000D01*
X97800000Y-137100000D02*
X97300000Y-137100000D01*
X97800000Y-139000000D02*
X97300000Y-139000000D01*
X97800000Y-139100000D02*
X97300000Y-139100000D01*
X97800000Y-141450000D02*
X97800000Y-132550000D01*
X98410000Y-131940000D02*
X93690000Y-131940000D01*
X98410000Y-142060000D02*
X98410000Y-131940000D01*
%TO.C,Brd1*%
X122590000Y-83610000D02*
X122590000Y-86110000D01*
X122590000Y-86110000D02*
X125090000Y-86110000D01*
X122890000Y-81790000D02*
X122890000Y-85810000D01*
X122890000Y-83500000D02*
X123390000Y-83500000D01*
X122890000Y-84310000D02*
X123890000Y-84310000D01*
X122890000Y-85810000D02*
X135610000Y-85810000D01*
X123390000Y-82290000D02*
X135110000Y-82290000D01*
X123390000Y-83500000D02*
X123390000Y-82290000D01*
X123890000Y-84310000D02*
X123890000Y-85810000D01*
X134610000Y-84310000D02*
X134610000Y-85810000D01*
X135110000Y-82290000D02*
X135110000Y-83500000D01*
X135110000Y-83500000D02*
X135610000Y-83500000D01*
X135610000Y-81790000D02*
X122890000Y-81790000D01*
X135610000Y-84310000D02*
X134610000Y-84310000D01*
X135610000Y-85810000D02*
X135610000Y-81790000D01*
%TO.C,A1*%
X118120000Y-144130000D02*
X125113334Y-144130000D01*
X118120001Y-92970000D02*
X118120000Y-144130000D01*
X121310000Y-144100000D02*
X121310000Y-93050000D01*
X125113334Y-140180000D02*
X125113334Y-144130000D01*
X125113334Y-144130000D02*
X125113334Y-145350000D01*
X125113334Y-145350000D02*
X132106666Y-145350000D01*
X132106666Y-140180000D02*
X125113334Y-140180000D01*
X132106666Y-144130000D02*
X132106666Y-140180000D01*
X132106666Y-144130000D02*
X139099999Y-144130000D01*
X132106666Y-145350000D02*
X132106666Y-144130000D01*
X135910000Y-144100000D02*
X135910000Y-93000000D01*
X139099999Y-144130000D02*
X139100000Y-92970000D01*
X139100000Y-92970000D02*
X118120001Y-92970000D01*
%TO.C,SW2*%
X147250000Y-95000000D02*
X147250000Y-96500000D01*
X148500000Y-99000000D02*
X153000000Y-99000000D01*
X153000000Y-92500000D02*
X148500000Y-92500000D01*
X154250000Y-96500000D02*
X154250000Y-95000000D01*
%TO.C,R5*%
X105460000Y-114000000D02*
X106230000Y-114000000D01*
X106230000Y-112630000D02*
X106230000Y-115370000D01*
X106230000Y-115370000D02*
X112770000Y-115370000D01*
X112770000Y-112630000D02*
X106230000Y-112630000D01*
X112770000Y-115370000D02*
X112770000Y-112630000D01*
X113540000Y-114000000D02*
X112770000Y-114000000D01*
%TO.C,R2*%
X104380000Y-133000000D02*
X105150000Y-133000000D01*
X105150000Y-131630000D02*
X105150000Y-134370000D01*
X105150000Y-134370000D02*
X111690000Y-134370000D01*
X111690000Y-131630000D02*
X105150000Y-131630000D01*
X111690000Y-134370000D02*
X111690000Y-131630000D01*
X112460000Y-133000000D02*
X111690000Y-133000000D01*
%TO.C,SW1*%
X105250000Y-121500000D02*
X105250000Y-123000000D01*
X106500000Y-125500000D02*
X111000000Y-125500000D01*
X111000000Y-119000000D02*
X106500000Y-119000000D01*
X112250000Y-123000000D02*
X112250000Y-121500000D01*
%TO.C,R1*%
X105460000Y-99000000D02*
X106230000Y-99000000D01*
X106230000Y-97630000D02*
X106230000Y-100370000D01*
X106230000Y-100370000D02*
X112770000Y-100370000D01*
X112770000Y-97630000D02*
X106230000Y-97630000D01*
X112770000Y-100370000D02*
X112770000Y-97630000D01*
X113540000Y-99000000D02*
X112770000Y-99000000D01*
%TO.C,BZ1*%
X106600000Y-88000000D02*
G75*
G02*
X94400000Y-88000000I-6100000J0D01*
G01*
X94400000Y-88000000D02*
G75*
G02*
X106600000Y-88000000I6100000J0D01*
G01*
%TO.C,SW4*%
X147250000Y-118000000D02*
X147250000Y-119500000D01*
X148500000Y-122000000D02*
X153000000Y-122000000D01*
X153000000Y-115500000D02*
X148500000Y-115500000D01*
X154250000Y-119500000D02*
X154250000Y-118000000D01*
%TO.C,SW3*%
X147250000Y-106500000D02*
X147250000Y-108000000D01*
X148500000Y-110500000D02*
X153000000Y-110500000D01*
X153000000Y-104000000D02*
X148500000Y-104000000D01*
X154250000Y-108000000D02*
X154250000Y-106500000D01*
%TO.C,R3*%
X105460000Y-106000000D02*
X106230000Y-106000000D01*
X106230000Y-104630000D02*
X106230000Y-107370000D01*
X106230000Y-107370000D02*
X112770000Y-107370000D01*
X112770000Y-104630000D02*
X106230000Y-104630000D01*
X112770000Y-107370000D02*
X112770000Y-104630000D01*
X113540000Y-106000000D02*
X112770000Y-106000000D01*
D13*
%TO.C,REF\u002A\u002A*%
X117570807Y-88136782D02*
X117594161Y-88146988D01*
X117649902Y-88191134D01*
X117697569Y-88254967D01*
X117727048Y-88323087D01*
X117731846Y-88356670D01*
X117715760Y-88403556D01*
X117680475Y-88428365D01*
X117642644Y-88443387D01*
X117625321Y-88446155D01*
X117616886Y-88426066D01*
X117600230Y-88382351D01*
X117592923Y-88362598D01*
X117551948Y-88294271D01*
X117492622Y-88260191D01*
X117416552Y-88261239D01*
X117410918Y-88262581D01*
X117370305Y-88281836D01*
X117340448Y-88319375D01*
X117320055Y-88379809D01*
X117307836Y-88467751D01*
X117302500Y-88587813D01*
X117302000Y-88651698D01*
X117301752Y-88752403D01*
X117300126Y-88821054D01*
X117295801Y-88864673D01*
X117287454Y-88890282D01*
X117273765Y-88904903D01*
X117253411Y-88915558D01*
X117252234Y-88916095D01*
X117213038Y-88932667D01*
X117193619Y-88938769D01*
X117190635Y-88920319D01*
X117188081Y-88869323D01*
X117186140Y-88792308D01*
X117184997Y-88695805D01*
X117184769Y-88625184D01*
X117185932Y-88488525D01*
X117190479Y-88384851D01*
X117199999Y-88308108D01*
X117216081Y-88252246D01*
X117240313Y-88211212D01*
X117274286Y-88178954D01*
X117307833Y-88156440D01*
X117388499Y-88126476D01*
X117482381Y-88119718D01*
X117570807Y-88136782D01*
G36*
X117570807Y-88136782D02*
G01*
X117594161Y-88146988D01*
X117649902Y-88191134D01*
X117697569Y-88254967D01*
X117727048Y-88323087D01*
X117731846Y-88356670D01*
X117715760Y-88403556D01*
X117680475Y-88428365D01*
X117642644Y-88443387D01*
X117625321Y-88446155D01*
X117616886Y-88426066D01*
X117600230Y-88382351D01*
X117592923Y-88362598D01*
X117551948Y-88294271D01*
X117492622Y-88260191D01*
X117416552Y-88261239D01*
X117410918Y-88262581D01*
X117370305Y-88281836D01*
X117340448Y-88319375D01*
X117320055Y-88379809D01*
X117307836Y-88467751D01*
X117302500Y-88587813D01*
X117302000Y-88651698D01*
X117301752Y-88752403D01*
X117300126Y-88821054D01*
X117295801Y-88864673D01*
X117287454Y-88890282D01*
X117273765Y-88904903D01*
X117253411Y-88915558D01*
X117252234Y-88916095D01*
X117213038Y-88932667D01*
X117193619Y-88938769D01*
X117190635Y-88920319D01*
X117188081Y-88869323D01*
X117186140Y-88792308D01*
X117184997Y-88695805D01*
X117184769Y-88625184D01*
X117185932Y-88488525D01*
X117190479Y-88384851D01*
X117199999Y-88308108D01*
X117216081Y-88252246D01*
X117240313Y-88211212D01*
X117274286Y-88178954D01*
X117307833Y-88156440D01*
X117388499Y-88126476D01*
X117482381Y-88119718D01*
X117570807Y-88136782D01*
G37*
X112271664Y-88095089D02*
X112334367Y-88131358D01*
X112377961Y-88167358D01*
X112409845Y-88205075D01*
X112431810Y-88251199D01*
X112445649Y-88312421D01*
X112453153Y-88395431D01*
X112456117Y-88506919D01*
X112456461Y-88587062D01*
X112456461Y-88882065D01*
X112290385Y-88956515D01*
X112280615Y-88633402D01*
X112276579Y-88512729D01*
X112272344Y-88425141D01*
X112267097Y-88364650D01*
X112260025Y-88325268D01*
X112250311Y-88301007D01*
X112237144Y-88285880D01*
X112232919Y-88282606D01*
X112168909Y-88257034D01*
X112104208Y-88267153D01*
X112065692Y-88294000D01*
X112050025Y-88313024D01*
X112039180Y-88337988D01*
X112032288Y-88375834D01*
X112028479Y-88433502D01*
X112026883Y-88517935D01*
X112026615Y-88605928D01*
X112026563Y-88716323D01*
X112024672Y-88794463D01*
X112018345Y-88847165D01*
X112004983Y-88881242D01*
X111981985Y-88903511D01*
X111946754Y-88920787D01*
X111899697Y-88938738D01*
X111848303Y-88958278D01*
X111854421Y-88611485D01*
X111856884Y-88486468D01*
X111859767Y-88394082D01*
X111863898Y-88327881D01*
X111870107Y-88281420D01*
X111879226Y-88248256D01*
X111892083Y-88221944D01*
X111907584Y-88198729D01*
X111982371Y-88124569D01*
X112073628Y-88081684D01*
X112172883Y-88071412D01*
X112271664Y-88095089D01*
G36*
X112271664Y-88095089D02*
G01*
X112334367Y-88131358D01*
X112377961Y-88167358D01*
X112409845Y-88205075D01*
X112431810Y-88251199D01*
X112445649Y-88312421D01*
X112453153Y-88395431D01*
X112456117Y-88506919D01*
X112456461Y-88587062D01*
X112456461Y-88882065D01*
X112290385Y-88956515D01*
X112280615Y-88633402D01*
X112276579Y-88512729D01*
X112272344Y-88425141D01*
X112267097Y-88364650D01*
X112260025Y-88325268D01*
X112250311Y-88301007D01*
X112237144Y-88285880D01*
X112232919Y-88282606D01*
X112168909Y-88257034D01*
X112104208Y-88267153D01*
X112065692Y-88294000D01*
X112050025Y-88313024D01*
X112039180Y-88337988D01*
X112032288Y-88375834D01*
X112028479Y-88433502D01*
X112026883Y-88517935D01*
X112026615Y-88605928D01*
X112026563Y-88716323D01*
X112024672Y-88794463D01*
X112018345Y-88847165D01*
X112004983Y-88881242D01*
X111981985Y-88903511D01*
X111946754Y-88920787D01*
X111899697Y-88938738D01*
X111848303Y-88958278D01*
X111854421Y-88611485D01*
X111856884Y-88486468D01*
X111859767Y-88394082D01*
X111863898Y-88327881D01*
X111870107Y-88281420D01*
X111879226Y-88248256D01*
X111892083Y-88221944D01*
X111907584Y-88198729D01*
X111982371Y-88124569D01*
X112073628Y-88081684D01*
X112172883Y-88071412D01*
X112271664Y-88095089D01*
G37*
X114713362Y-88124670D02*
X114802117Y-88157421D01*
X114874022Y-88215350D01*
X114902144Y-88256128D01*
X114932802Y-88330954D01*
X114932165Y-88385058D01*
X114899987Y-88421446D01*
X114888081Y-88427633D01*
X114836675Y-88446925D01*
X114810422Y-88441982D01*
X114801530Y-88409587D01*
X114801077Y-88391692D01*
X114784797Y-88325859D01*
X114742365Y-88279807D01*
X114683388Y-88257564D01*
X114617475Y-88263161D01*
X114563895Y-88292229D01*
X114545798Y-88308810D01*
X114532971Y-88328925D01*
X114524306Y-88359332D01*
X114518696Y-88406788D01*
X114515035Y-88478050D01*
X114512215Y-88579875D01*
X114511484Y-88612115D01*
X114508820Y-88722410D01*
X114505792Y-88800036D01*
X114501250Y-88851396D01*
X114494046Y-88882890D01*
X114483033Y-88900920D01*
X114467060Y-88911888D01*
X114456834Y-88916733D01*
X114413406Y-88933301D01*
X114387842Y-88938769D01*
X114379395Y-88920507D01*
X114374239Y-88865296D01*
X114372346Y-88772499D01*
X114373689Y-88641478D01*
X114374107Y-88621269D01*
X114377058Y-88501733D01*
X114380548Y-88414449D01*
X114385514Y-88352591D01*
X114392893Y-88309336D01*
X114403624Y-88277860D01*
X114418645Y-88251339D01*
X114426502Y-88239975D01*
X114471553Y-88189692D01*
X114521940Y-88150581D01*
X114528108Y-88147167D01*
X114618458Y-88120212D01*
X114713362Y-88124670D01*
G36*
X114713362Y-88124670D02*
G01*
X114802117Y-88157421D01*
X114874022Y-88215350D01*
X114902144Y-88256128D01*
X114932802Y-88330954D01*
X114932165Y-88385058D01*
X114899987Y-88421446D01*
X114888081Y-88427633D01*
X114836675Y-88446925D01*
X114810422Y-88441982D01*
X114801530Y-88409587D01*
X114801077Y-88391692D01*
X114784797Y-88325859D01*
X114742365Y-88279807D01*
X114683388Y-88257564D01*
X114617475Y-88263161D01*
X114563895Y-88292229D01*
X114545798Y-88308810D01*
X114532971Y-88328925D01*
X114524306Y-88359332D01*
X114518696Y-88406788D01*
X114515035Y-88478050D01*
X114512215Y-88579875D01*
X114511484Y-88612115D01*
X114508820Y-88722410D01*
X114505792Y-88800036D01*
X114501250Y-88851396D01*
X114494046Y-88882890D01*
X114483033Y-88900920D01*
X114467060Y-88911888D01*
X114456834Y-88916733D01*
X114413406Y-88933301D01*
X114387842Y-88938769D01*
X114379395Y-88920507D01*
X114374239Y-88865296D01*
X114372346Y-88772499D01*
X114373689Y-88641478D01*
X114374107Y-88621269D01*
X114377058Y-88501733D01*
X114380548Y-88414449D01*
X114385514Y-88352591D01*
X114392893Y-88309336D01*
X114403624Y-88277860D01*
X114418645Y-88251339D01*
X114426502Y-88239975D01*
X114471553Y-88189692D01*
X114521940Y-88150581D01*
X114528108Y-88147167D01*
X114618458Y-88120212D01*
X114713362Y-88124670D01*
G37*
X113159846Y-87992120D02*
X113165572Y-88071980D01*
X113172149Y-88119039D01*
X113181262Y-88139566D01*
X113194598Y-88139829D01*
X113198923Y-88137378D01*
X113256444Y-88119636D01*
X113331268Y-88120672D01*
X113407339Y-88138910D01*
X113454918Y-88162505D01*
X113503702Y-88200198D01*
X113539364Y-88242855D01*
X113563845Y-88297057D01*
X113579087Y-88369384D01*
X113587030Y-88466419D01*
X113589616Y-88594742D01*
X113589662Y-88619358D01*
X113589692Y-88895870D01*
X113528161Y-88917320D01*
X113484459Y-88931912D01*
X113460482Y-88938706D01*
X113459777Y-88938769D01*
X113457415Y-88920345D01*
X113455406Y-88869526D01*
X113453901Y-88792993D01*
X113453053Y-88697430D01*
X113452923Y-88639329D01*
X113452651Y-88524771D01*
X113451252Y-88442667D01*
X113447849Y-88386393D01*
X113441567Y-88349326D01*
X113431529Y-88324844D01*
X113416861Y-88306325D01*
X113407702Y-88297406D01*
X113344789Y-88261466D01*
X113276136Y-88258775D01*
X113213848Y-88289170D01*
X113202329Y-88300144D01*
X113185433Y-88320779D01*
X113173714Y-88345256D01*
X113166233Y-88380647D01*
X113162054Y-88434026D01*
X113160237Y-88512466D01*
X113159846Y-88620617D01*
X113159846Y-88895870D01*
X113098315Y-88917320D01*
X113054613Y-88931912D01*
X113030636Y-88938706D01*
X113029930Y-88938769D01*
X113028126Y-88920069D01*
X113026500Y-88867322D01*
X113025117Y-88785557D01*
X113024042Y-88679805D01*
X113023340Y-88555094D01*
X113023077Y-88416455D01*
X113023077Y-87881806D01*
X113150077Y-87828236D01*
X113159846Y-87992120D01*
G36*
X113159846Y-87992120D02*
G01*
X113165572Y-88071980D01*
X113172149Y-88119039D01*
X113181262Y-88139566D01*
X113194598Y-88139829D01*
X113198923Y-88137378D01*
X113256444Y-88119636D01*
X113331268Y-88120672D01*
X113407339Y-88138910D01*
X113454918Y-88162505D01*
X113503702Y-88200198D01*
X113539364Y-88242855D01*
X113563845Y-88297057D01*
X113579087Y-88369384D01*
X113587030Y-88466419D01*
X113589616Y-88594742D01*
X113589662Y-88619358D01*
X113589692Y-88895870D01*
X113528161Y-88917320D01*
X113484459Y-88931912D01*
X113460482Y-88938706D01*
X113459777Y-88938769D01*
X113457415Y-88920345D01*
X113455406Y-88869526D01*
X113453901Y-88792993D01*
X113453053Y-88697430D01*
X113452923Y-88639329D01*
X113452651Y-88524771D01*
X113451252Y-88442667D01*
X113447849Y-88386393D01*
X113441567Y-88349326D01*
X113431529Y-88324844D01*
X113416861Y-88306325D01*
X113407702Y-88297406D01*
X113344789Y-88261466D01*
X113276136Y-88258775D01*
X113213848Y-88289170D01*
X113202329Y-88300144D01*
X113185433Y-88320779D01*
X113173714Y-88345256D01*
X113166233Y-88380647D01*
X113162054Y-88434026D01*
X113160237Y-88512466D01*
X113159846Y-88620617D01*
X113159846Y-88895870D01*
X113098315Y-88917320D01*
X113054613Y-88931912D01*
X113030636Y-88938706D01*
X113029930Y-88938769D01*
X113028126Y-88920069D01*
X113026500Y-88867322D01*
X113025117Y-88785557D01*
X113024042Y-88679805D01*
X113023340Y-88555094D01*
X113023077Y-88416455D01*
X113023077Y-87881806D01*
X113150077Y-87828236D01*
X113159846Y-87992120D01*
G37*
X116395929Y-88136662D02*
X116398911Y-88188068D01*
X116401247Y-88266192D01*
X116402749Y-88364857D01*
X116403231Y-88468343D01*
X116403231Y-88818533D01*
X116341401Y-88880363D01*
X116298793Y-88918462D01*
X116261390Y-88933895D01*
X116210270Y-88932918D01*
X116189978Y-88930433D01*
X116126554Y-88923200D01*
X116074095Y-88919055D01*
X116061308Y-88918672D01*
X116018199Y-88921176D01*
X115956544Y-88927462D01*
X115932638Y-88930433D01*
X115873922Y-88935028D01*
X115834464Y-88925046D01*
X115795338Y-88894228D01*
X115781215Y-88880363D01*
X115719385Y-88818533D01*
X115719385Y-88163503D01*
X115769150Y-88140829D01*
X115812002Y-88124034D01*
X115837073Y-88118154D01*
X115843501Y-88136736D01*
X115849509Y-88188655D01*
X115854697Y-88268172D01*
X115858664Y-88369546D01*
X115860577Y-88455192D01*
X115865923Y-88792231D01*
X115912560Y-88798825D01*
X115954976Y-88794214D01*
X115975760Y-88779287D01*
X115981570Y-88751377D01*
X115986530Y-88691925D01*
X115990246Y-88608466D01*
X115992324Y-88508532D01*
X115992624Y-88457104D01*
X115992923Y-88161054D01*
X116054454Y-88139604D01*
X116098004Y-88125020D01*
X116121694Y-88118219D01*
X116122377Y-88118154D01*
X116124754Y-88136642D01*
X116127366Y-88187906D01*
X116129995Y-88265649D01*
X116132421Y-88363574D01*
X116134115Y-88455192D01*
X116139461Y-88792231D01*
X116256692Y-88792231D01*
X116262072Y-88484746D01*
X116267451Y-88177261D01*
X116324601Y-88147707D01*
X116366797Y-88127413D01*
X116391770Y-88118204D01*
X116392491Y-88118154D01*
X116395929Y-88136662D01*
G36*
X116395929Y-88136662D02*
G01*
X116398911Y-88188068D01*
X116401247Y-88266192D01*
X116402749Y-88364857D01*
X116403231Y-88468343D01*
X116403231Y-88818533D01*
X116341401Y-88880363D01*
X116298793Y-88918462D01*
X116261390Y-88933895D01*
X116210270Y-88932918D01*
X116189978Y-88930433D01*
X116126554Y-88923200D01*
X116074095Y-88919055D01*
X116061308Y-88918672D01*
X116018199Y-88921176D01*
X115956544Y-88927462D01*
X115932638Y-88930433D01*
X115873922Y-88935028D01*
X115834464Y-88925046D01*
X115795338Y-88894228D01*
X115781215Y-88880363D01*
X115719385Y-88818533D01*
X115719385Y-88163503D01*
X115769150Y-88140829D01*
X115812002Y-88124034D01*
X115837073Y-88118154D01*
X115843501Y-88136736D01*
X115849509Y-88188655D01*
X115854697Y-88268172D01*
X115858664Y-88369546D01*
X115860577Y-88455192D01*
X115865923Y-88792231D01*
X115912560Y-88798825D01*
X115954976Y-88794214D01*
X115975760Y-88779287D01*
X115981570Y-88751377D01*
X115986530Y-88691925D01*
X115990246Y-88608466D01*
X115992324Y-88508532D01*
X115992624Y-88457104D01*
X115992923Y-88161054D01*
X116054454Y-88139604D01*
X116098004Y-88125020D01*
X116121694Y-88118219D01*
X116122377Y-88118154D01*
X116124754Y-88136642D01*
X116127366Y-88187906D01*
X116129995Y-88265649D01*
X116132421Y-88363574D01*
X116134115Y-88455192D01*
X116139461Y-88792231D01*
X116256692Y-88792231D01*
X116262072Y-88484746D01*
X116267451Y-88177261D01*
X116324601Y-88147707D01*
X116366797Y-88127413D01*
X116391770Y-88118204D01*
X116392491Y-88118154D01*
X116395929Y-88136662D01*
G37*
X110016886Y-88087256D02*
X110108464Y-88135409D01*
X110176049Y-88212905D01*
X110200057Y-88262727D01*
X110218738Y-88337533D01*
X110228301Y-88432052D01*
X110229208Y-88535210D01*
X110221921Y-88635935D01*
X110206903Y-88723153D01*
X110184615Y-88785791D01*
X110177765Y-88796579D01*
X110096632Y-88877105D01*
X110000266Y-88925336D01*
X109895701Y-88939450D01*
X109789968Y-88917629D01*
X109760543Y-88904547D01*
X109703241Y-88864231D01*
X109652950Y-88810775D01*
X109648197Y-88803995D01*
X109628878Y-88771321D01*
X109616108Y-88736394D01*
X109608564Y-88690414D01*
X109604924Y-88624584D01*
X109603865Y-88530105D01*
X109603846Y-88508923D01*
X109603894Y-88502182D01*
X109799231Y-88502182D01*
X109800368Y-88591349D01*
X109804841Y-88650520D01*
X109814246Y-88688741D01*
X109830176Y-88715053D01*
X109838308Y-88723846D01*
X109885058Y-88757261D01*
X109930447Y-88755737D01*
X109976340Y-88726752D01*
X110003712Y-88695809D01*
X110019923Y-88650643D01*
X110029026Y-88579420D01*
X110029651Y-88571114D01*
X110031204Y-88442037D01*
X110014965Y-88346172D01*
X109981152Y-88284107D01*
X109929984Y-88256432D01*
X109911720Y-88254923D01*
X109863760Y-88262513D01*
X109830953Y-88288808D01*
X109810895Y-88339095D01*
X109801178Y-88418664D01*
X109799231Y-88502182D01*
X109603894Y-88502182D01*
X109604574Y-88408249D01*
X109607629Y-88337906D01*
X109614322Y-88289163D01*
X109625960Y-88253288D01*
X109643853Y-88221548D01*
X109647808Y-88215648D01*
X109714267Y-88136104D01*
X109786685Y-88089929D01*
X109874849Y-88071599D01*
X109904787Y-88070703D01*
X110016886Y-88087256D01*
G36*
X110016886Y-88087256D02*
G01*
X110108464Y-88135409D01*
X110176049Y-88212905D01*
X110200057Y-88262727D01*
X110218738Y-88337533D01*
X110228301Y-88432052D01*
X110229208Y-88535210D01*
X110221921Y-88635935D01*
X110206903Y-88723153D01*
X110184615Y-88785791D01*
X110177765Y-88796579D01*
X110096632Y-88877105D01*
X110000266Y-88925336D01*
X109895701Y-88939450D01*
X109789968Y-88917629D01*
X109760543Y-88904547D01*
X109703241Y-88864231D01*
X109652950Y-88810775D01*
X109648197Y-88803995D01*
X109628878Y-88771321D01*
X109616108Y-88736394D01*
X109608564Y-88690414D01*
X109604924Y-88624584D01*
X109603865Y-88530105D01*
X109603846Y-88508923D01*
X109603894Y-88502182D01*
X109799231Y-88502182D01*
X109800368Y-88591349D01*
X109804841Y-88650520D01*
X109814246Y-88688741D01*
X109830176Y-88715053D01*
X109838308Y-88723846D01*
X109885058Y-88757261D01*
X109930447Y-88755737D01*
X109976340Y-88726752D01*
X110003712Y-88695809D01*
X110019923Y-88650643D01*
X110029026Y-88579420D01*
X110029651Y-88571114D01*
X110031204Y-88442037D01*
X110014965Y-88346172D01*
X109981152Y-88284107D01*
X109929984Y-88256432D01*
X109911720Y-88254923D01*
X109863760Y-88262513D01*
X109830953Y-88288808D01*
X109810895Y-88339095D01*
X109801178Y-88418664D01*
X109799231Y-88502182D01*
X109603894Y-88502182D01*
X109604574Y-88408249D01*
X109607629Y-88337906D01*
X109614322Y-88289163D01*
X109625960Y-88253288D01*
X109643853Y-88221548D01*
X109647808Y-88215648D01*
X109714267Y-88136104D01*
X109786685Y-88089929D01*
X109874849Y-88071599D01*
X109904787Y-88070703D01*
X110016886Y-88087256D01*
G37*
X118245224Y-88147838D02*
X118322528Y-88198361D01*
X118359814Y-88243590D01*
X118389353Y-88325663D01*
X118391699Y-88390607D01*
X118386385Y-88477445D01*
X118186115Y-88565103D01*
X118088739Y-88609887D01*
X118025113Y-88645913D01*
X117992029Y-88677117D01*
X117986280Y-88707436D01*
X118004658Y-88740805D01*
X118024923Y-88762923D01*
X118083889Y-88798393D01*
X118148024Y-88800879D01*
X118206926Y-88773235D01*
X118250197Y-88718320D01*
X118257936Y-88698928D01*
X118295006Y-88638364D01*
X118337654Y-88612552D01*
X118396154Y-88590471D01*
X118396154Y-88674184D01*
X118390982Y-88731150D01*
X118370723Y-88779189D01*
X118328262Y-88834346D01*
X118321951Y-88841514D01*
X118274720Y-88890585D01*
X118234121Y-88916920D01*
X118183328Y-88929035D01*
X118141220Y-88933003D01*
X118065902Y-88933991D01*
X118012286Y-88921466D01*
X117978838Y-88902869D01*
X117926268Y-88861975D01*
X117889879Y-88817748D01*
X117866850Y-88762126D01*
X117854359Y-88687047D01*
X117849587Y-88584449D01*
X117849206Y-88532376D01*
X117850501Y-88469948D01*
X117968471Y-88469948D01*
X117969839Y-88503438D01*
X117973249Y-88508923D01*
X117995753Y-88501472D01*
X118044182Y-88481753D01*
X118108908Y-88453718D01*
X118122443Y-88447692D01*
X118204244Y-88406096D01*
X118249312Y-88369538D01*
X118259217Y-88335296D01*
X118235526Y-88300648D01*
X118215960Y-88285339D01*
X118145360Y-88254721D01*
X118079280Y-88259780D01*
X118023959Y-88297151D01*
X117985636Y-88363473D01*
X117973349Y-88416116D01*
X117968471Y-88469948D01*
X117850501Y-88469948D01*
X117851730Y-88410720D01*
X117861032Y-88320710D01*
X117879460Y-88255167D01*
X117909360Y-88206912D01*
X117953080Y-88168767D01*
X117972141Y-88156440D01*
X118058726Y-88124336D01*
X118153522Y-88122316D01*
X118245224Y-88147838D01*
G36*
X118245224Y-88147838D02*
G01*
X118322528Y-88198361D01*
X118359814Y-88243590D01*
X118389353Y-88325663D01*
X118391699Y-88390607D01*
X118386385Y-88477445D01*
X118186115Y-88565103D01*
X118088739Y-88609887D01*
X118025113Y-88645913D01*
X117992029Y-88677117D01*
X117986280Y-88707436D01*
X118004658Y-88740805D01*
X118024923Y-88762923D01*
X118083889Y-88798393D01*
X118148024Y-88800879D01*
X118206926Y-88773235D01*
X118250197Y-88718320D01*
X118257936Y-88698928D01*
X118295006Y-88638364D01*
X118337654Y-88612552D01*
X118396154Y-88590471D01*
X118396154Y-88674184D01*
X118390982Y-88731150D01*
X118370723Y-88779189D01*
X118328262Y-88834346D01*
X118321951Y-88841514D01*
X118274720Y-88890585D01*
X118234121Y-88916920D01*
X118183328Y-88929035D01*
X118141220Y-88933003D01*
X118065902Y-88933991D01*
X118012286Y-88921466D01*
X117978838Y-88902869D01*
X117926268Y-88861975D01*
X117889879Y-88817748D01*
X117866850Y-88762126D01*
X117854359Y-88687047D01*
X117849587Y-88584449D01*
X117849206Y-88532376D01*
X117850501Y-88469948D01*
X117968471Y-88469948D01*
X117969839Y-88503438D01*
X117973249Y-88508923D01*
X117995753Y-88501472D01*
X118044182Y-88481753D01*
X118108908Y-88453718D01*
X118122443Y-88447692D01*
X118204244Y-88406096D01*
X118249312Y-88369538D01*
X118259217Y-88335296D01*
X118235526Y-88300648D01*
X118215960Y-88285339D01*
X118145360Y-88254721D01*
X118079280Y-88259780D01*
X118023959Y-88297151D01*
X117985636Y-88363473D01*
X117973349Y-88416116D01*
X117968471Y-88469948D01*
X117850501Y-88469948D01*
X117851730Y-88410720D01*
X117861032Y-88320710D01*
X117879460Y-88255167D01*
X117909360Y-88206912D01*
X117953080Y-88168767D01*
X117972141Y-88156440D01*
X118058726Y-88124336D01*
X118153522Y-88122316D01*
X118245224Y-88147838D01*
G37*
X115602081Y-88280289D02*
X115601833Y-88426320D01*
X115600872Y-88538655D01*
X115598794Y-88622678D01*
X115595193Y-88683769D01*
X115589665Y-88727309D01*
X115581804Y-88758679D01*
X115571207Y-88783262D01*
X115563182Y-88797294D01*
X115496728Y-88873388D01*
X115412470Y-88921084D01*
X115319249Y-88938199D01*
X115225900Y-88922546D01*
X115170312Y-88894418D01*
X115111957Y-88845760D01*
X115072186Y-88786333D01*
X115048190Y-88708507D01*
X115037161Y-88604652D01*
X115035599Y-88528462D01*
X115035809Y-88522986D01*
X115172308Y-88522986D01*
X115173141Y-88610355D01*
X115176961Y-88668192D01*
X115185746Y-88706029D01*
X115201474Y-88733398D01*
X115220266Y-88754042D01*
X115283375Y-88793890D01*
X115351137Y-88797295D01*
X115415179Y-88764025D01*
X115420164Y-88759517D01*
X115441439Y-88736067D01*
X115454779Y-88708166D01*
X115462001Y-88666641D01*
X115464923Y-88602316D01*
X115465385Y-88531200D01*
X115464383Y-88441858D01*
X115460238Y-88382258D01*
X115451236Y-88343089D01*
X115435667Y-88315040D01*
X115422902Y-88300144D01*
X115363600Y-88262575D01*
X115295301Y-88258057D01*
X115230110Y-88286753D01*
X115217528Y-88297406D01*
X115196111Y-88321063D01*
X115182744Y-88349251D01*
X115175566Y-88391245D01*
X115172719Y-88456319D01*
X115172308Y-88522986D01*
X115035809Y-88522986D01*
X115040322Y-88405765D01*
X115056362Y-88313577D01*
X115086528Y-88244269D01*
X115133629Y-88190211D01*
X115170312Y-88162505D01*
X115236990Y-88132572D01*
X115314272Y-88118678D01*
X115386110Y-88122397D01*
X115426308Y-88137400D01*
X115442082Y-88141670D01*
X115452550Y-88125750D01*
X115459856Y-88083089D01*
X115465385Y-88018106D01*
X115471437Y-87945732D01*
X115479844Y-87902187D01*
X115495141Y-87877287D01*
X115521864Y-87860845D01*
X115538654Y-87853564D01*
X115602154Y-87826963D01*
X115602081Y-88280289D01*
G36*
X115602081Y-88280289D02*
G01*
X115601833Y-88426320D01*
X115600872Y-88538655D01*
X115598794Y-88622678D01*
X115595193Y-88683769D01*
X115589665Y-88727309D01*
X115581804Y-88758679D01*
X115571207Y-88783262D01*
X115563182Y-88797294D01*
X115496728Y-88873388D01*
X115412470Y-88921084D01*
X115319249Y-88938199D01*
X115225900Y-88922546D01*
X115170312Y-88894418D01*
X115111957Y-88845760D01*
X115072186Y-88786333D01*
X115048190Y-88708507D01*
X115037161Y-88604652D01*
X115035599Y-88528462D01*
X115035809Y-88522986D01*
X115172308Y-88522986D01*
X115173141Y-88610355D01*
X115176961Y-88668192D01*
X115185746Y-88706029D01*
X115201474Y-88733398D01*
X115220266Y-88754042D01*
X115283375Y-88793890D01*
X115351137Y-88797295D01*
X115415179Y-88764025D01*
X115420164Y-88759517D01*
X115441439Y-88736067D01*
X115454779Y-88708166D01*
X115462001Y-88666641D01*
X115464923Y-88602316D01*
X115465385Y-88531200D01*
X115464383Y-88441858D01*
X115460238Y-88382258D01*
X115451236Y-88343089D01*
X115435667Y-88315040D01*
X115422902Y-88300144D01*
X115363600Y-88262575D01*
X115295301Y-88258057D01*
X115230110Y-88286753D01*
X115217528Y-88297406D01*
X115196111Y-88321063D01*
X115182744Y-88349251D01*
X115175566Y-88391245D01*
X115172719Y-88456319D01*
X115172308Y-88522986D01*
X115035809Y-88522986D01*
X115040322Y-88405765D01*
X115056362Y-88313577D01*
X115086528Y-88244269D01*
X115133629Y-88190211D01*
X115170312Y-88162505D01*
X115236990Y-88132572D01*
X115314272Y-88118678D01*
X115386110Y-88122397D01*
X115426308Y-88137400D01*
X115442082Y-88141670D01*
X115452550Y-88125750D01*
X115459856Y-88083089D01*
X115465385Y-88018106D01*
X115471437Y-87945732D01*
X115479844Y-87902187D01*
X115495141Y-87877287D01*
X115521864Y-87860845D01*
X115538654Y-87853564D01*
X115602154Y-87826963D01*
X115602081Y-88280289D01*
G37*
X111534254Y-88099745D02*
X111611286Y-88151567D01*
X111670816Y-88226412D01*
X111706378Y-88321654D01*
X111713571Y-88391756D01*
X111712754Y-88421009D01*
X111705914Y-88443407D01*
X111687112Y-88463474D01*
X111650408Y-88485733D01*
X111589862Y-88514709D01*
X111499534Y-88554927D01*
X111499077Y-88555129D01*
X111415933Y-88593210D01*
X111347753Y-88627025D01*
X111301505Y-88652933D01*
X111284158Y-88667295D01*
X111284154Y-88667411D01*
X111299443Y-88698685D01*
X111335196Y-88733157D01*
X111376242Y-88757990D01*
X111397037Y-88762923D01*
X111453770Y-88745862D01*
X111502627Y-88703133D01*
X111526465Y-88656155D01*
X111549397Y-88621522D01*
X111594318Y-88582081D01*
X111647123Y-88548009D01*
X111693710Y-88529480D01*
X111703452Y-88528462D01*
X111714418Y-88545215D01*
X111715079Y-88588039D01*
X111707020Y-88645781D01*
X111691827Y-88707289D01*
X111671086Y-88761409D01*
X111670038Y-88763510D01*
X111607621Y-88850660D01*
X111526726Y-88909939D01*
X111434856Y-88939034D01*
X111339513Y-88935634D01*
X111248198Y-88897428D01*
X111244138Y-88894741D01*
X111172306Y-88829642D01*
X111125073Y-88744705D01*
X111098934Y-88633021D01*
X111095426Y-88601643D01*
X111089213Y-88453536D01*
X111096661Y-88384468D01*
X111284154Y-88384468D01*
X111286590Y-88427552D01*
X111299914Y-88440126D01*
X111333132Y-88430719D01*
X111385494Y-88408483D01*
X111444024Y-88380610D01*
X111445479Y-88379872D01*
X111495089Y-88353777D01*
X111515000Y-88336363D01*
X111510090Y-88318107D01*
X111489416Y-88294120D01*
X111436819Y-88259406D01*
X111380177Y-88256856D01*
X111329369Y-88282119D01*
X111294276Y-88330847D01*
X111284154Y-88384468D01*
X111096661Y-88384468D01*
X111101992Y-88335036D01*
X111134778Y-88241055D01*
X111180421Y-88175215D01*
X111262802Y-88108681D01*
X111353546Y-88075676D01*
X111446185Y-88073573D01*
X111534254Y-88099745D01*
G36*
X111534254Y-88099745D02*
G01*
X111611286Y-88151567D01*
X111670816Y-88226412D01*
X111706378Y-88321654D01*
X111713571Y-88391756D01*
X111712754Y-88421009D01*
X111705914Y-88443407D01*
X111687112Y-88463474D01*
X111650408Y-88485733D01*
X111589862Y-88514709D01*
X111499534Y-88554927D01*
X111499077Y-88555129D01*
X111415933Y-88593210D01*
X111347753Y-88627025D01*
X111301505Y-88652933D01*
X111284158Y-88667295D01*
X111284154Y-88667411D01*
X111299443Y-88698685D01*
X111335196Y-88733157D01*
X111376242Y-88757990D01*
X111397037Y-88762923D01*
X111453770Y-88745862D01*
X111502627Y-88703133D01*
X111526465Y-88656155D01*
X111549397Y-88621522D01*
X111594318Y-88582081D01*
X111647123Y-88548009D01*
X111693710Y-88529480D01*
X111703452Y-88528462D01*
X111714418Y-88545215D01*
X111715079Y-88588039D01*
X111707020Y-88645781D01*
X111691827Y-88707289D01*
X111671086Y-88761409D01*
X111670038Y-88763510D01*
X111607621Y-88850660D01*
X111526726Y-88909939D01*
X111434856Y-88939034D01*
X111339513Y-88935634D01*
X111248198Y-88897428D01*
X111244138Y-88894741D01*
X111172306Y-88829642D01*
X111125073Y-88744705D01*
X111098934Y-88633021D01*
X111095426Y-88601643D01*
X111089213Y-88453536D01*
X111096661Y-88384468D01*
X111284154Y-88384468D01*
X111286590Y-88427552D01*
X111299914Y-88440126D01*
X111333132Y-88430719D01*
X111385494Y-88408483D01*
X111444024Y-88380610D01*
X111445479Y-88379872D01*
X111495089Y-88353777D01*
X111515000Y-88336363D01*
X111510090Y-88318107D01*
X111489416Y-88294120D01*
X111436819Y-88259406D01*
X111380177Y-88256856D01*
X111329369Y-88282119D01*
X111294276Y-88330847D01*
X111284154Y-88384468D01*
X111096661Y-88384468D01*
X111101992Y-88335036D01*
X111134778Y-88241055D01*
X111180421Y-88175215D01*
X111262802Y-88108681D01*
X111353546Y-88075676D01*
X111446185Y-88073573D01*
X111534254Y-88099745D01*
G37*
X114053501Y-88126303D02*
X114130060Y-88154733D01*
X114130936Y-88155279D01*
X114178285Y-88190127D01*
X114213241Y-88230852D01*
X114237825Y-88283925D01*
X114254062Y-88355814D01*
X114263975Y-88452992D01*
X114269586Y-88581928D01*
X114270077Y-88600298D01*
X114277141Y-88877287D01*
X114217695Y-88908028D01*
X114174681Y-88928802D01*
X114148710Y-88938646D01*
X114147509Y-88938769D01*
X114143014Y-88920606D01*
X114139444Y-88871612D01*
X114137248Y-88800031D01*
X114136769Y-88742068D01*
X114136758Y-88648170D01*
X114132466Y-88589203D01*
X114117503Y-88561079D01*
X114085482Y-88559706D01*
X114030014Y-88580998D01*
X113946269Y-88620136D01*
X113884689Y-88652643D01*
X113853017Y-88680845D01*
X113843706Y-88711582D01*
X113843692Y-88713104D01*
X113859057Y-88766054D01*
X113904547Y-88794660D01*
X113974166Y-88798803D01*
X114024313Y-88798084D01*
X114050754Y-88812527D01*
X114067243Y-88847218D01*
X114076733Y-88891416D01*
X114063057Y-88916493D01*
X114057907Y-88920082D01*
X114009425Y-88934496D01*
X113941531Y-88936537D01*
X113871612Y-88926983D01*
X113822068Y-88909522D01*
X113753570Y-88851364D01*
X113714634Y-88770408D01*
X113706923Y-88707160D01*
X113712807Y-88650111D01*
X113734101Y-88603542D01*
X113776265Y-88562181D01*
X113844759Y-88520755D01*
X113945044Y-88473993D01*
X113951154Y-88471350D01*
X114041490Y-88429617D01*
X114097235Y-88395391D01*
X114121129Y-88364635D01*
X114115913Y-88333311D01*
X114084328Y-88297383D01*
X114074883Y-88289116D01*
X114011617Y-88257058D01*
X113946064Y-88258407D01*
X113888972Y-88289838D01*
X113851093Y-88348024D01*
X113847574Y-88359446D01*
X113813300Y-88414837D01*
X113769809Y-88441518D01*
X113706923Y-88467960D01*
X113706923Y-88399548D01*
X113726052Y-88300110D01*
X113782831Y-88208902D01*
X113812378Y-88178389D01*
X113879542Y-88139228D01*
X113964956Y-88121500D01*
X114053501Y-88126303D01*
G36*
X114053501Y-88126303D02*
G01*
X114130060Y-88154733D01*
X114130936Y-88155279D01*
X114178285Y-88190127D01*
X114213241Y-88230852D01*
X114237825Y-88283925D01*
X114254062Y-88355814D01*
X114263975Y-88452992D01*
X114269586Y-88581928D01*
X114270077Y-88600298D01*
X114277141Y-88877287D01*
X114217695Y-88908028D01*
X114174681Y-88928802D01*
X114148710Y-88938646D01*
X114147509Y-88938769D01*
X114143014Y-88920606D01*
X114139444Y-88871612D01*
X114137248Y-88800031D01*
X114136769Y-88742068D01*
X114136758Y-88648170D01*
X114132466Y-88589203D01*
X114117503Y-88561079D01*
X114085482Y-88559706D01*
X114030014Y-88580998D01*
X113946269Y-88620136D01*
X113884689Y-88652643D01*
X113853017Y-88680845D01*
X113843706Y-88711582D01*
X113843692Y-88713104D01*
X113859057Y-88766054D01*
X113904547Y-88794660D01*
X113974166Y-88798803D01*
X114024313Y-88798084D01*
X114050754Y-88812527D01*
X114067243Y-88847218D01*
X114076733Y-88891416D01*
X114063057Y-88916493D01*
X114057907Y-88920082D01*
X114009425Y-88934496D01*
X113941531Y-88936537D01*
X113871612Y-88926983D01*
X113822068Y-88909522D01*
X113753570Y-88851364D01*
X113714634Y-88770408D01*
X113706923Y-88707160D01*
X113712807Y-88650111D01*
X113734101Y-88603542D01*
X113776265Y-88562181D01*
X113844759Y-88520755D01*
X113945044Y-88473993D01*
X113951154Y-88471350D01*
X114041490Y-88429617D01*
X114097235Y-88395391D01*
X114121129Y-88364635D01*
X114115913Y-88333311D01*
X114084328Y-88297383D01*
X114074883Y-88289116D01*
X114011617Y-88257058D01*
X113946064Y-88258407D01*
X113888972Y-88289838D01*
X113851093Y-88348024D01*
X113847574Y-88359446D01*
X113813300Y-88414837D01*
X113769809Y-88441518D01*
X113706923Y-88467960D01*
X113706923Y-88399548D01*
X113726052Y-88300110D01*
X113782831Y-88208902D01*
X113812378Y-88178389D01*
X113879542Y-88139228D01*
X113964956Y-88121500D01*
X114053501Y-88126303D01*
G37*
X110768886Y-88084505D02*
X110843539Y-88121727D01*
X110909431Y-88190261D01*
X110927577Y-88215648D01*
X110947345Y-88248866D01*
X110960172Y-88284945D01*
X110967510Y-88333098D01*
X110970813Y-88402536D01*
X110971538Y-88494206D01*
X110968263Y-88619830D01*
X110956877Y-88714154D01*
X110935041Y-88784523D01*
X110900419Y-88838286D01*
X110850670Y-88882788D01*
X110847014Y-88885423D01*
X110797985Y-88912377D01*
X110738945Y-88925712D01*
X110663859Y-88929000D01*
X110541795Y-88929000D01*
X110541744Y-89047497D01*
X110540608Y-89113492D01*
X110533686Y-89152202D01*
X110515598Y-89175419D01*
X110480962Y-89194933D01*
X110472645Y-89198920D01*
X110433720Y-89217603D01*
X110403583Y-89229403D01*
X110381174Y-89230422D01*
X110365433Y-89216761D01*
X110355302Y-89184522D01*
X110349723Y-89129804D01*
X110347635Y-89048711D01*
X110347981Y-88937344D01*
X110349700Y-88791802D01*
X110350237Y-88748269D01*
X110352172Y-88598205D01*
X110353904Y-88500042D01*
X110541692Y-88500042D01*
X110542748Y-88583364D01*
X110547438Y-88637880D01*
X110558051Y-88673837D01*
X110576872Y-88701482D01*
X110589650Y-88714965D01*
X110641890Y-88754417D01*
X110688142Y-88757628D01*
X110735867Y-88725049D01*
X110737077Y-88723846D01*
X110756494Y-88698668D01*
X110768307Y-88664447D01*
X110774265Y-88611748D01*
X110776120Y-88531131D01*
X110776154Y-88513271D01*
X110771670Y-88402175D01*
X110757074Y-88325161D01*
X110730650Y-88278147D01*
X110690683Y-88257050D01*
X110667584Y-88254923D01*
X110612762Y-88264900D01*
X110575158Y-88297752D01*
X110552523Y-88357857D01*
X110542606Y-88449598D01*
X110541692Y-88500042D01*
X110353904Y-88500042D01*
X110354222Y-88482060D01*
X110356873Y-88394679D01*
X110360606Y-88330905D01*
X110365907Y-88285582D01*
X110373258Y-88253555D01*
X110383143Y-88229668D01*
X110396046Y-88208764D01*
X110401579Y-88200898D01*
X110474969Y-88126595D01*
X110567760Y-88084467D01*
X110675096Y-88072722D01*
X110768886Y-88084505D01*
G36*
X110768886Y-88084505D02*
G01*
X110843539Y-88121727D01*
X110909431Y-88190261D01*
X110927577Y-88215648D01*
X110947345Y-88248866D01*
X110960172Y-88284945D01*
X110967510Y-88333098D01*
X110970813Y-88402536D01*
X110971538Y-88494206D01*
X110968263Y-88619830D01*
X110956877Y-88714154D01*
X110935041Y-88784523D01*
X110900419Y-88838286D01*
X110850670Y-88882788D01*
X110847014Y-88885423D01*
X110797985Y-88912377D01*
X110738945Y-88925712D01*
X110663859Y-88929000D01*
X110541795Y-88929000D01*
X110541744Y-89047497D01*
X110540608Y-89113492D01*
X110533686Y-89152202D01*
X110515598Y-89175419D01*
X110480962Y-89194933D01*
X110472645Y-89198920D01*
X110433720Y-89217603D01*
X110403583Y-89229403D01*
X110381174Y-89230422D01*
X110365433Y-89216761D01*
X110355302Y-89184522D01*
X110349723Y-89129804D01*
X110347635Y-89048711D01*
X110347981Y-88937344D01*
X110349700Y-88791802D01*
X110350237Y-88748269D01*
X110352172Y-88598205D01*
X110353904Y-88500042D01*
X110541692Y-88500042D01*
X110542748Y-88583364D01*
X110547438Y-88637880D01*
X110558051Y-88673837D01*
X110576872Y-88701482D01*
X110589650Y-88714965D01*
X110641890Y-88754417D01*
X110688142Y-88757628D01*
X110735867Y-88725049D01*
X110737077Y-88723846D01*
X110756494Y-88698668D01*
X110768307Y-88664447D01*
X110774265Y-88611748D01*
X110776120Y-88531131D01*
X110776154Y-88513271D01*
X110771670Y-88402175D01*
X110757074Y-88325161D01*
X110730650Y-88278147D01*
X110690683Y-88257050D01*
X110667584Y-88254923D01*
X110612762Y-88264900D01*
X110575158Y-88297752D01*
X110552523Y-88357857D01*
X110542606Y-88449598D01*
X110541692Y-88500042D01*
X110353904Y-88500042D01*
X110354222Y-88482060D01*
X110356873Y-88394679D01*
X110360606Y-88330905D01*
X110365907Y-88285582D01*
X110373258Y-88253555D01*
X110383143Y-88229668D01*
X110396046Y-88208764D01*
X110401579Y-88200898D01*
X110474969Y-88126595D01*
X110567760Y-88084467D01*
X110675096Y-88072722D01*
X110768886Y-88084505D01*
G37*
X116887333Y-88133528D02*
X116943590Y-88159117D01*
X116987747Y-88190124D01*
X117020101Y-88224795D01*
X117042438Y-88269520D01*
X117056546Y-88330692D01*
X117064211Y-88414701D01*
X117067220Y-88527940D01*
X117067538Y-88602509D01*
X117067538Y-88893420D01*
X117017773Y-88916095D01*
X116978576Y-88932667D01*
X116959157Y-88938769D01*
X116955442Y-88920610D01*
X116952495Y-88871648D01*
X116950691Y-88800153D01*
X116950308Y-88743385D01*
X116948661Y-88661371D01*
X116944222Y-88596309D01*
X116937740Y-88556467D01*
X116932590Y-88548000D01*
X116897977Y-88556646D01*
X116843640Y-88578823D01*
X116780722Y-88608886D01*
X116720368Y-88641192D01*
X116673721Y-88670098D01*
X116651926Y-88689961D01*
X116651839Y-88690175D01*
X116653714Y-88726935D01*
X116670525Y-88762026D01*
X116700039Y-88790528D01*
X116743116Y-88800061D01*
X116779932Y-88798950D01*
X116832074Y-88798133D01*
X116859444Y-88810349D01*
X116875882Y-88842624D01*
X116877955Y-88848710D01*
X116885081Y-88894739D01*
X116866024Y-88922687D01*
X116816353Y-88936007D01*
X116762697Y-88938470D01*
X116666142Y-88920210D01*
X116616159Y-88894131D01*
X116554429Y-88832868D01*
X116521690Y-88757670D01*
X116518753Y-88678211D01*
X116546424Y-88604167D01*
X116588047Y-88557769D01*
X116629604Y-88531793D01*
X116694922Y-88498907D01*
X116771038Y-88465557D01*
X116783726Y-88460461D01*
X116867333Y-88423565D01*
X116915530Y-88391046D01*
X116931030Y-88358718D01*
X116916550Y-88322394D01*
X116891692Y-88294000D01*
X116832939Y-88259039D01*
X116768293Y-88256417D01*
X116709008Y-88283358D01*
X116666339Y-88337088D01*
X116660739Y-88350950D01*
X116628133Y-88401936D01*
X116580530Y-88439787D01*
X116520461Y-88470850D01*
X116520461Y-88382768D01*
X116523997Y-88328951D01*
X116539156Y-88286534D01*
X116572768Y-88241279D01*
X116605035Y-88206420D01*
X116655209Y-88157062D01*
X116694193Y-88130547D01*
X116736064Y-88119911D01*
X116783460Y-88118154D01*
X116887333Y-88133528D01*
G36*
X116887333Y-88133528D02*
G01*
X116943590Y-88159117D01*
X116987747Y-88190124D01*
X117020101Y-88224795D01*
X117042438Y-88269520D01*
X117056546Y-88330692D01*
X117064211Y-88414701D01*
X117067220Y-88527940D01*
X117067538Y-88602509D01*
X117067538Y-88893420D01*
X117017773Y-88916095D01*
X116978576Y-88932667D01*
X116959157Y-88938769D01*
X116955442Y-88920610D01*
X116952495Y-88871648D01*
X116950691Y-88800153D01*
X116950308Y-88743385D01*
X116948661Y-88661371D01*
X116944222Y-88596309D01*
X116937740Y-88556467D01*
X116932590Y-88548000D01*
X116897977Y-88556646D01*
X116843640Y-88578823D01*
X116780722Y-88608886D01*
X116720368Y-88641192D01*
X116673721Y-88670098D01*
X116651926Y-88689961D01*
X116651839Y-88690175D01*
X116653714Y-88726935D01*
X116670525Y-88762026D01*
X116700039Y-88790528D01*
X116743116Y-88800061D01*
X116779932Y-88798950D01*
X116832074Y-88798133D01*
X116859444Y-88810349D01*
X116875882Y-88842624D01*
X116877955Y-88848710D01*
X116885081Y-88894739D01*
X116866024Y-88922687D01*
X116816353Y-88936007D01*
X116762697Y-88938470D01*
X116666142Y-88920210D01*
X116616159Y-88894131D01*
X116554429Y-88832868D01*
X116521690Y-88757670D01*
X116518753Y-88678211D01*
X116546424Y-88604167D01*
X116588047Y-88557769D01*
X116629604Y-88531793D01*
X116694922Y-88498907D01*
X116771038Y-88465557D01*
X116783726Y-88460461D01*
X116867333Y-88423565D01*
X116915530Y-88391046D01*
X116931030Y-88358718D01*
X116916550Y-88322394D01*
X116891692Y-88294000D01*
X116832939Y-88259039D01*
X116768293Y-88256417D01*
X116709008Y-88283358D01*
X116666339Y-88337088D01*
X116660739Y-88350950D01*
X116628133Y-88401936D01*
X116580530Y-88439787D01*
X116520461Y-88470850D01*
X116520461Y-88382768D01*
X116523997Y-88328951D01*
X116539156Y-88286534D01*
X116572768Y-88241279D01*
X116605035Y-88206420D01*
X116655209Y-88157062D01*
X116694193Y-88130547D01*
X116736064Y-88119911D01*
X116783460Y-88118154D01*
X116887333Y-88133528D01*
G37*
X114139878Y-81787776D02*
X114245612Y-81788355D01*
X114322132Y-81789922D01*
X114374372Y-81792972D01*
X114407263Y-81797996D01*
X114425737Y-81805489D01*
X114434727Y-81815944D01*
X114439163Y-81829853D01*
X114439594Y-81831654D01*
X114446333Y-81864145D01*
X114458808Y-81928252D01*
X114475719Y-82017151D01*
X114495771Y-82124019D01*
X114517664Y-82242033D01*
X114518429Y-82246178D01*
X114540359Y-82361831D01*
X114560877Y-82464014D01*
X114578659Y-82546598D01*
X114592381Y-82603456D01*
X114600718Y-82628458D01*
X114601116Y-82628901D01*
X114625677Y-82641110D01*
X114676315Y-82661456D01*
X114742095Y-82685545D01*
X114742461Y-82685674D01*
X114825317Y-82716818D01*
X114923000Y-82756491D01*
X115015077Y-82796381D01*
X115019434Y-82798353D01*
X115169407Y-82866420D01*
X115501498Y-82639639D01*
X115603374Y-82570504D01*
X115695657Y-82508697D01*
X115773003Y-82457733D01*
X115830064Y-82421127D01*
X115861495Y-82402394D01*
X115864479Y-82401004D01*
X115887321Y-82407190D01*
X115929982Y-82437035D01*
X115994128Y-82491947D01*
X116081421Y-82573334D01*
X116170535Y-82659922D01*
X116256441Y-82745247D01*
X116333327Y-82823108D01*
X116396564Y-82888697D01*
X116441523Y-82937205D01*
X116463576Y-82963825D01*
X116464396Y-82965195D01*
X116466834Y-82983463D01*
X116457650Y-83013295D01*
X116434574Y-83058721D01*
X116395337Y-83123770D01*
X116337670Y-83212470D01*
X116260795Y-83326657D01*
X116192570Y-83427162D01*
X116131582Y-83517303D01*
X116081356Y-83591849D01*
X116045416Y-83645565D01*
X116027287Y-83673218D01*
X116026146Y-83675095D01*
X116028359Y-83701590D01*
X116045138Y-83753086D01*
X116073142Y-83819851D01*
X116083122Y-83841172D01*
X116126672Y-83936159D01*
X116173134Y-84043937D01*
X116210877Y-84137192D01*
X116238073Y-84206406D01*
X116259675Y-84259006D01*
X116272158Y-84286497D01*
X116273709Y-84288616D01*
X116296668Y-84292124D01*
X116350786Y-84301738D01*
X116428868Y-84316089D01*
X116523719Y-84333807D01*
X116628143Y-84353525D01*
X116734944Y-84373874D01*
X116836926Y-84393486D01*
X116926894Y-84410991D01*
X116997653Y-84425022D01*
X117042006Y-84434209D01*
X117052885Y-84436807D01*
X117064122Y-84443218D01*
X117072605Y-84457697D01*
X117078714Y-84485133D01*
X117082832Y-84530411D01*
X117085341Y-84598420D01*
X117086621Y-84694047D01*
X117087054Y-84822180D01*
X117087077Y-84874701D01*
X117087077Y-85301845D01*
X116984500Y-85322091D01*
X116927431Y-85333070D01*
X116842269Y-85349095D01*
X116739372Y-85368233D01*
X116629096Y-85388551D01*
X116598615Y-85394132D01*
X116496855Y-85413917D01*
X116408205Y-85433373D01*
X116340108Y-85450697D01*
X116300004Y-85464088D01*
X116293323Y-85468079D01*
X116276919Y-85496342D01*
X116253399Y-85551109D01*
X116227316Y-85621588D01*
X116222142Y-85636769D01*
X116187956Y-85730896D01*
X116145523Y-85837101D01*
X116103997Y-85932473D01*
X116103792Y-85932916D01*
X116034640Y-86082525D01*
X116489512Y-86751617D01*
X116197500Y-87044116D01*
X116109180Y-87131170D01*
X116028625Y-87207909D01*
X115960360Y-87270237D01*
X115908908Y-87314056D01*
X115878794Y-87335270D01*
X115874474Y-87336616D01*
X115849111Y-87326016D01*
X115797358Y-87296547D01*
X115724868Y-87251705D01*
X115637294Y-87194984D01*
X115542612Y-87131462D01*
X115446516Y-87066668D01*
X115360837Y-87010287D01*
X115291016Y-86965788D01*
X115242494Y-86936639D01*
X115220782Y-86926308D01*
X115194293Y-86935050D01*
X115144062Y-86958087D01*
X115080451Y-86990631D01*
X115073708Y-86994249D01*
X114988046Y-87037210D01*
X114929306Y-87058279D01*
X114892772Y-87058503D01*
X114873731Y-87038928D01*
X114873620Y-87038654D01*
X114864102Y-87015472D01*
X114841403Y-86960441D01*
X114807282Y-86877822D01*
X114763500Y-86771872D01*
X114711816Y-86646852D01*
X114653992Y-86507020D01*
X114597991Y-86371637D01*
X114536447Y-86222234D01*
X114479939Y-86083832D01*
X114430161Y-85960673D01*
X114388806Y-85857002D01*
X114357568Y-85777059D01*
X114338141Y-85725088D01*
X114332154Y-85705692D01*
X114347168Y-85683443D01*
X114386439Y-85647982D01*
X114438807Y-85608887D01*
X114587941Y-85485245D01*
X114704511Y-85343522D01*
X114787118Y-85186704D01*
X114834366Y-85017775D01*
X114844857Y-84839722D01*
X114837231Y-84757539D01*
X114795682Y-84587031D01*
X114724123Y-84436459D01*
X114626995Y-84307309D01*
X114508734Y-84201064D01*
X114373780Y-84119210D01*
X114226571Y-84063232D01*
X114071544Y-84034615D01*
X113913139Y-84034844D01*
X113755794Y-84065405D01*
X113603946Y-84127782D01*
X113462035Y-84223460D01*
X113402803Y-84277572D01*
X113289203Y-84416520D01*
X113210106Y-84568361D01*
X113164986Y-84728667D01*
X113153316Y-84893012D01*
X113174569Y-85056971D01*
X113228220Y-85216118D01*
X113313740Y-85366025D01*
X113430605Y-85502267D01*
X113561193Y-85608887D01*
X113615588Y-85649642D01*
X113654014Y-85684718D01*
X113667846Y-85705726D01*
X113660603Y-85728635D01*
X113640005Y-85783365D01*
X113607746Y-85865672D01*
X113565521Y-85971315D01*
X113515023Y-86096050D01*
X113457948Y-86235636D01*
X113401854Y-86371670D01*
X113339967Y-86521201D01*
X113282644Y-86659767D01*
X113231644Y-86783107D01*
X113188727Y-86886964D01*
X113155653Y-86967080D01*
X113134181Y-87019195D01*
X113126225Y-87038654D01*
X113107429Y-87058423D01*
X113071074Y-87058365D01*
X113012479Y-87037441D01*
X112926968Y-86994613D01*
X112926292Y-86994249D01*
X112861907Y-86961012D01*
X112809861Y-86936802D01*
X112780512Y-86926404D01*
X112779217Y-86926308D01*
X112757124Y-86936855D01*
X112708348Y-86966184D01*
X112638331Y-87010827D01*
X112552514Y-87067314D01*
X112457388Y-87131462D01*
X112360540Y-87196411D01*
X112273253Y-87252896D01*
X112201181Y-87297421D01*
X112149977Y-87326490D01*
X112125526Y-87336616D01*
X112103010Y-87323307D01*
X112057742Y-87286112D01*
X111994244Y-87229128D01*
X111917039Y-87156449D01*
X111830651Y-87072171D01*
X111802399Y-87044016D01*
X111510287Y-86751416D01*
X111732631Y-86425104D01*
X111800202Y-86324897D01*
X111859507Y-86234963D01*
X111907217Y-86160510D01*
X111940007Y-86106751D01*
X111954548Y-86078894D01*
X111954974Y-86076912D01*
X111947308Y-86050655D01*
X111926689Y-85997837D01*
X111896685Y-85927310D01*
X111875625Y-85880093D01*
X111836248Y-85789694D01*
X111799165Y-85698366D01*
X111770415Y-85621200D01*
X111762605Y-85597692D01*
X111740417Y-85534916D01*
X111718727Y-85486411D01*
X111706813Y-85468079D01*
X111680523Y-85456859D01*
X111623142Y-85440954D01*
X111542118Y-85422167D01*
X111444895Y-85402299D01*
X111401385Y-85394132D01*
X111290896Y-85373829D01*
X111184916Y-85354170D01*
X111093801Y-85337088D01*
X111027908Y-85324518D01*
X111015500Y-85322091D01*
X110912923Y-85301845D01*
X110912923Y-84874701D01*
X110913153Y-84734246D01*
X110914099Y-84627979D01*
X110916141Y-84551013D01*
X110919662Y-84498460D01*
X110925043Y-84465433D01*
X110932666Y-84447045D01*
X110942912Y-84438408D01*
X110947115Y-84436807D01*
X110972470Y-84431127D01*
X111028484Y-84419795D01*
X111107964Y-84404179D01*
X111203712Y-84385647D01*
X111308533Y-84365569D01*
X111415232Y-84345312D01*
X111516613Y-84326246D01*
X111605479Y-84309739D01*
X111674637Y-84297159D01*
X111716889Y-84289875D01*
X111726290Y-84288616D01*
X111734807Y-84271763D01*
X111753660Y-84226870D01*
X111779324Y-84162430D01*
X111789123Y-84137192D01*
X111828648Y-84039686D01*
X111875192Y-83931959D01*
X111916877Y-83841172D01*
X111947550Y-83771753D01*
X111967956Y-83714710D01*
X111974768Y-83679777D01*
X111973682Y-83675095D01*
X111959285Y-83652991D01*
X111926412Y-83603831D01*
X111878590Y-83532848D01*
X111819348Y-83445278D01*
X111752215Y-83346357D01*
X111738941Y-83326830D01*
X111661046Y-83211140D01*
X111603787Y-83123044D01*
X111564881Y-83058486D01*
X111542044Y-83013411D01*
X111532994Y-82983763D01*
X111535448Y-82965485D01*
X111535511Y-82965369D01*
X111554827Y-82941361D01*
X111597551Y-82894947D01*
X111659051Y-82830937D01*
X111734698Y-82754145D01*
X111819861Y-82669382D01*
X111829465Y-82659922D01*
X111936790Y-82555989D01*
X112019615Y-82479675D01*
X112079605Y-82429571D01*
X112118423Y-82404270D01*
X112135520Y-82401004D01*
X112160473Y-82415250D01*
X112212255Y-82448156D01*
X112285520Y-82496208D01*
X112374920Y-82555890D01*
X112475111Y-82623688D01*
X112498501Y-82639639D01*
X112830593Y-82866420D01*
X112980565Y-82798353D01*
X113071770Y-82758685D01*
X113169669Y-82718791D01*
X113253831Y-82686983D01*
X113257538Y-82685674D01*
X113323369Y-82661576D01*
X113374116Y-82641200D01*
X113398842Y-82628936D01*
X113398884Y-82628901D01*
X113406729Y-82606734D01*
X113420066Y-82552217D01*
X113437570Y-82471480D01*
X113457917Y-82370650D01*
X113479782Y-82255856D01*
X113481571Y-82246178D01*
X113503504Y-82127904D01*
X113523640Y-82020542D01*
X113540680Y-81930917D01*
X113553328Y-81865851D01*
X113560284Y-81832168D01*
X113560406Y-81831654D01*
X113564639Y-81817325D01*
X113572871Y-81806507D01*
X113590033Y-81798706D01*
X113621058Y-81793429D01*
X113670878Y-81790182D01*
X113744424Y-81788472D01*
X113846629Y-81787807D01*
X113982425Y-81787693D01*
X114000000Y-81787692D01*
X114139878Y-81787776D01*
G36*
X114139878Y-81787776D02*
G01*
X114245612Y-81788355D01*
X114322132Y-81789922D01*
X114374372Y-81792972D01*
X114407263Y-81797996D01*
X114425737Y-81805489D01*
X114434727Y-81815944D01*
X114439163Y-81829853D01*
X114439594Y-81831654D01*
X114446333Y-81864145D01*
X114458808Y-81928252D01*
X114475719Y-82017151D01*
X114495771Y-82124019D01*
X114517664Y-82242033D01*
X114518429Y-82246178D01*
X114540359Y-82361831D01*
X114560877Y-82464014D01*
X114578659Y-82546598D01*
X114592381Y-82603456D01*
X114600718Y-82628458D01*
X114601116Y-82628901D01*
X114625677Y-82641110D01*
X114676315Y-82661456D01*
X114742095Y-82685545D01*
X114742461Y-82685674D01*
X114825317Y-82716818D01*
X114923000Y-82756491D01*
X115015077Y-82796381D01*
X115019434Y-82798353D01*
X115169407Y-82866420D01*
X115501498Y-82639639D01*
X115603374Y-82570504D01*
X115695657Y-82508697D01*
X115773003Y-82457733D01*
X115830064Y-82421127D01*
X115861495Y-82402394D01*
X115864479Y-82401004D01*
X115887321Y-82407190D01*
X115929982Y-82437035D01*
X115994128Y-82491947D01*
X116081421Y-82573334D01*
X116170535Y-82659922D01*
X116256441Y-82745247D01*
X116333327Y-82823108D01*
X116396564Y-82888697D01*
X116441523Y-82937205D01*
X116463576Y-82963825D01*
X116464396Y-82965195D01*
X116466834Y-82983463D01*
X116457650Y-83013295D01*
X116434574Y-83058721D01*
X116395337Y-83123770D01*
X116337670Y-83212470D01*
X116260795Y-83326657D01*
X116192570Y-83427162D01*
X116131582Y-83517303D01*
X116081356Y-83591849D01*
X116045416Y-83645565D01*
X116027287Y-83673218D01*
X116026146Y-83675095D01*
X116028359Y-83701590D01*
X116045138Y-83753086D01*
X116073142Y-83819851D01*
X116083122Y-83841172D01*
X116126672Y-83936159D01*
X116173134Y-84043937D01*
X116210877Y-84137192D01*
X116238073Y-84206406D01*
X116259675Y-84259006D01*
X116272158Y-84286497D01*
X116273709Y-84288616D01*
X116296668Y-84292124D01*
X116350786Y-84301738D01*
X116428868Y-84316089D01*
X116523719Y-84333807D01*
X116628143Y-84353525D01*
X116734944Y-84373874D01*
X116836926Y-84393486D01*
X116926894Y-84410991D01*
X116997653Y-84425022D01*
X117042006Y-84434209D01*
X117052885Y-84436807D01*
X117064122Y-84443218D01*
X117072605Y-84457697D01*
X117078714Y-84485133D01*
X117082832Y-84530411D01*
X117085341Y-84598420D01*
X117086621Y-84694047D01*
X117087054Y-84822180D01*
X117087077Y-84874701D01*
X117087077Y-85301845D01*
X116984500Y-85322091D01*
X116927431Y-85333070D01*
X116842269Y-85349095D01*
X116739372Y-85368233D01*
X116629096Y-85388551D01*
X116598615Y-85394132D01*
X116496855Y-85413917D01*
X116408205Y-85433373D01*
X116340108Y-85450697D01*
X116300004Y-85464088D01*
X116293323Y-85468079D01*
X116276919Y-85496342D01*
X116253399Y-85551109D01*
X116227316Y-85621588D01*
X116222142Y-85636769D01*
X116187956Y-85730896D01*
X116145523Y-85837101D01*
X116103997Y-85932473D01*
X116103792Y-85932916D01*
X116034640Y-86082525D01*
X116489512Y-86751617D01*
X116197500Y-87044116D01*
X116109180Y-87131170D01*
X116028625Y-87207909D01*
X115960360Y-87270237D01*
X115908908Y-87314056D01*
X115878794Y-87335270D01*
X115874474Y-87336616D01*
X115849111Y-87326016D01*
X115797358Y-87296547D01*
X115724868Y-87251705D01*
X115637294Y-87194984D01*
X115542612Y-87131462D01*
X115446516Y-87066668D01*
X115360837Y-87010287D01*
X115291016Y-86965788D01*
X115242494Y-86936639D01*
X115220782Y-86926308D01*
X115194293Y-86935050D01*
X115144062Y-86958087D01*
X115080451Y-86990631D01*
X115073708Y-86994249D01*
X114988046Y-87037210D01*
X114929306Y-87058279D01*
X114892772Y-87058503D01*
X114873731Y-87038928D01*
X114873620Y-87038654D01*
X114864102Y-87015472D01*
X114841403Y-86960441D01*
X114807282Y-86877822D01*
X114763500Y-86771872D01*
X114711816Y-86646852D01*
X114653992Y-86507020D01*
X114597991Y-86371637D01*
X114536447Y-86222234D01*
X114479939Y-86083832D01*
X114430161Y-85960673D01*
X114388806Y-85857002D01*
X114357568Y-85777059D01*
X114338141Y-85725088D01*
X114332154Y-85705692D01*
X114347168Y-85683443D01*
X114386439Y-85647982D01*
X114438807Y-85608887D01*
X114587941Y-85485245D01*
X114704511Y-85343522D01*
X114787118Y-85186704D01*
X114834366Y-85017775D01*
X114844857Y-84839722D01*
X114837231Y-84757539D01*
X114795682Y-84587031D01*
X114724123Y-84436459D01*
X114626995Y-84307309D01*
X114508734Y-84201064D01*
X114373780Y-84119210D01*
X114226571Y-84063232D01*
X114071544Y-84034615D01*
X113913139Y-84034844D01*
X113755794Y-84065405D01*
X113603946Y-84127782D01*
X113462035Y-84223460D01*
X113402803Y-84277572D01*
X113289203Y-84416520D01*
X113210106Y-84568361D01*
X113164986Y-84728667D01*
X113153316Y-84893012D01*
X113174569Y-85056971D01*
X113228220Y-85216118D01*
X113313740Y-85366025D01*
X113430605Y-85502267D01*
X113561193Y-85608887D01*
X113615588Y-85649642D01*
X113654014Y-85684718D01*
X113667846Y-85705726D01*
X113660603Y-85728635D01*
X113640005Y-85783365D01*
X113607746Y-85865672D01*
X113565521Y-85971315D01*
X113515023Y-86096050D01*
X113457948Y-86235636D01*
X113401854Y-86371670D01*
X113339967Y-86521201D01*
X113282644Y-86659767D01*
X113231644Y-86783107D01*
X113188727Y-86886964D01*
X113155653Y-86967080D01*
X113134181Y-87019195D01*
X113126225Y-87038654D01*
X113107429Y-87058423D01*
X113071074Y-87058365D01*
X113012479Y-87037441D01*
X112926968Y-86994613D01*
X112926292Y-86994249D01*
X112861907Y-86961012D01*
X112809861Y-86936802D01*
X112780512Y-86926404D01*
X112779217Y-86926308D01*
X112757124Y-86936855D01*
X112708348Y-86966184D01*
X112638331Y-87010827D01*
X112552514Y-87067314D01*
X112457388Y-87131462D01*
X112360540Y-87196411D01*
X112273253Y-87252896D01*
X112201181Y-87297421D01*
X112149977Y-87326490D01*
X112125526Y-87336616D01*
X112103010Y-87323307D01*
X112057742Y-87286112D01*
X111994244Y-87229128D01*
X111917039Y-87156449D01*
X111830651Y-87072171D01*
X111802399Y-87044016D01*
X111510287Y-86751416D01*
X111732631Y-86425104D01*
X111800202Y-86324897D01*
X111859507Y-86234963D01*
X111907217Y-86160510D01*
X111940007Y-86106751D01*
X111954548Y-86078894D01*
X111954974Y-86076912D01*
X111947308Y-86050655D01*
X111926689Y-85997837D01*
X111896685Y-85927310D01*
X111875625Y-85880093D01*
X111836248Y-85789694D01*
X111799165Y-85698366D01*
X111770415Y-85621200D01*
X111762605Y-85597692D01*
X111740417Y-85534916D01*
X111718727Y-85486411D01*
X111706813Y-85468079D01*
X111680523Y-85456859D01*
X111623142Y-85440954D01*
X111542118Y-85422167D01*
X111444895Y-85402299D01*
X111401385Y-85394132D01*
X111290896Y-85373829D01*
X111184916Y-85354170D01*
X111093801Y-85337088D01*
X111027908Y-85324518D01*
X111015500Y-85322091D01*
X110912923Y-85301845D01*
X110912923Y-84874701D01*
X110913153Y-84734246D01*
X110914099Y-84627979D01*
X110916141Y-84551013D01*
X110919662Y-84498460D01*
X110925043Y-84465433D01*
X110932666Y-84447045D01*
X110942912Y-84438408D01*
X110947115Y-84436807D01*
X110972470Y-84431127D01*
X111028484Y-84419795D01*
X111107964Y-84404179D01*
X111203712Y-84385647D01*
X111308533Y-84365569D01*
X111415232Y-84345312D01*
X111516613Y-84326246D01*
X111605479Y-84309739D01*
X111674637Y-84297159D01*
X111716889Y-84289875D01*
X111726290Y-84288616D01*
X111734807Y-84271763D01*
X111753660Y-84226870D01*
X111779324Y-84162430D01*
X111789123Y-84137192D01*
X111828648Y-84039686D01*
X111875192Y-83931959D01*
X111916877Y-83841172D01*
X111947550Y-83771753D01*
X111967956Y-83714710D01*
X111974768Y-83679777D01*
X111973682Y-83675095D01*
X111959285Y-83652991D01*
X111926412Y-83603831D01*
X111878590Y-83532848D01*
X111819348Y-83445278D01*
X111752215Y-83346357D01*
X111738941Y-83326830D01*
X111661046Y-83211140D01*
X111603787Y-83123044D01*
X111564881Y-83058486D01*
X111542044Y-83013411D01*
X111532994Y-82983763D01*
X111535448Y-82965485D01*
X111535511Y-82965369D01*
X111554827Y-82941361D01*
X111597551Y-82894947D01*
X111659051Y-82830937D01*
X111734698Y-82754145D01*
X111819861Y-82669382D01*
X111829465Y-82659922D01*
X111936790Y-82555989D01*
X112019615Y-82479675D01*
X112079605Y-82429571D01*
X112118423Y-82404270D01*
X112135520Y-82401004D01*
X112160473Y-82415250D01*
X112212255Y-82448156D01*
X112285520Y-82496208D01*
X112374920Y-82555890D01*
X112475111Y-82623688D01*
X112498501Y-82639639D01*
X112830593Y-82866420D01*
X112980565Y-82798353D01*
X113071770Y-82758685D01*
X113169669Y-82718791D01*
X113253831Y-82686983D01*
X113257538Y-82685674D01*
X113323369Y-82661576D01*
X113374116Y-82641200D01*
X113398842Y-82628936D01*
X113398884Y-82628901D01*
X113406729Y-82606734D01*
X113420066Y-82552217D01*
X113437570Y-82471480D01*
X113457917Y-82370650D01*
X113479782Y-82255856D01*
X113481571Y-82246178D01*
X113503504Y-82127904D01*
X113523640Y-82020542D01*
X113540680Y-81930917D01*
X113553328Y-81865851D01*
X113560284Y-81832168D01*
X113560406Y-81831654D01*
X113564639Y-81817325D01*
X113572871Y-81806507D01*
X113590033Y-81798706D01*
X113621058Y-81793429D01*
X113670878Y-81790182D01*
X113744424Y-81788472D01*
X113846629Y-81787807D01*
X113982425Y-81787693D01*
X114000000Y-81787692D01*
X114139878Y-81787776D01*
G37*
D12*
%TO.C,J1*%
X150090000Y-134440000D02*
X150090000Y-140560000D01*
X150090000Y-140560000D02*
X154810000Y-140560000D01*
X150700000Y-135050000D02*
X150700000Y-139950000D01*
X150700000Y-137400000D02*
X151200000Y-137400000D01*
X150700000Y-137500000D02*
X151200000Y-137500000D01*
X150700000Y-139950000D02*
X154200000Y-139950000D01*
X151200000Y-137400000D02*
X151200000Y-137600000D01*
X151200000Y-137600000D02*
X150700000Y-137600000D01*
X152200000Y-134440000D02*
X152200000Y-135050000D01*
X152200000Y-140560000D02*
X152200000Y-139950000D01*
X153500000Y-134440000D02*
X153500000Y-135050000D01*
X153500000Y-140560000D02*
X153500000Y-139950000D01*
X154200000Y-135050000D02*
X150700000Y-135050000D01*
X154200000Y-137000000D02*
X154200000Y-135050000D01*
X154200000Y-138000000D02*
X154810000Y-138000000D01*
X154200000Y-139950000D02*
X154200000Y-138000000D01*
X154810000Y-134440000D02*
X150090000Y-134440000D01*
X154810000Y-136200000D02*
X155010000Y-136200000D01*
X154810000Y-137000000D02*
X154200000Y-137000000D01*
X154810000Y-140560000D02*
X154810000Y-134440000D01*
X154910000Y-136200000D02*
X154910000Y-135900000D01*
X155010000Y-135900000D02*
X154810000Y-135900000D01*
X155010000Y-136200000D02*
X155010000Y-135900000D01*
X155110000Y-134140000D02*
X153860000Y-134140000D01*
X155110000Y-135390000D02*
X155110000Y-134140000D01*
%TO.C,R4*%
X104460000Y-141000000D02*
X105230000Y-141000000D01*
X105230000Y-139630000D02*
X105230000Y-142370000D01*
X105230000Y-142370000D02*
X111770000Y-142370000D01*
X111770000Y-139630000D02*
X105230000Y-139630000D01*
X111770000Y-142370000D02*
X111770000Y-139630000D01*
X112540000Y-141000000D02*
X111770000Y-141000000D01*
%TO.C,J3*%
X93890000Y-114110000D02*
X93890000Y-115360000D01*
X93890000Y-115360000D02*
X95140000Y-115360000D01*
X93990000Y-113300000D02*
X93990000Y-113600000D01*
X93990000Y-113600000D02*
X94190000Y-113600000D01*
X94090000Y-113300000D02*
X94090000Y-113600000D01*
X94190000Y-104940000D02*
X94190000Y-115060000D01*
X94190000Y-112500000D02*
X94800000Y-112500000D01*
X94190000Y-113300000D02*
X93990000Y-113300000D01*
X94190000Y-115060000D02*
X98910000Y-115060000D01*
X94800000Y-105550000D02*
X94800000Y-107500000D01*
X94800000Y-107500000D02*
X94190000Y-107500000D01*
X94800000Y-112500000D02*
X94800000Y-114450000D01*
X94800000Y-114450000D02*
X98300000Y-114450000D01*
X95500000Y-104940000D02*
X95500000Y-105550000D01*
X95500000Y-115060000D02*
X95500000Y-114450000D01*
X96800000Y-104940000D02*
X96800000Y-105550000D01*
X96800000Y-115060000D02*
X96800000Y-114450000D01*
X97800000Y-107900000D02*
X98300000Y-107900000D01*
X97800000Y-108100000D02*
X97800000Y-107900000D01*
X97800000Y-109900000D02*
X98300000Y-109900000D01*
X97800000Y-110100000D02*
X97800000Y-109900000D01*
X97800000Y-111900000D02*
X98300000Y-111900000D01*
X97800000Y-112100000D02*
X97800000Y-111900000D01*
X98300000Y-105550000D02*
X94800000Y-105550000D01*
X98300000Y-108000000D02*
X97800000Y-108000000D01*
X98300000Y-108100000D02*
X97800000Y-108100000D01*
X98300000Y-110000000D02*
X97800000Y-110000000D01*
X98300000Y-110100000D02*
X97800000Y-110100000D01*
X98300000Y-112000000D02*
X97800000Y-112000000D01*
X98300000Y-112100000D02*
X97800000Y-112100000D01*
X98300000Y-114450000D02*
X98300000Y-105550000D01*
X98910000Y-104940000D02*
X94190000Y-104940000D01*
X98910000Y-115060000D02*
X98910000Y-104940000D01*
%TD*%
D14*
X95500000Y-140000000D03*
X95500000Y-138000000D03*
X95500000Y-136000000D03*
X95500000Y-134000000D03*
X125500000Y-83500000D03*
X128000000Y-83500000D03*
X130500000Y-83500000D03*
X133000000Y-83500000D03*
X137500000Y-142680000D03*
X137500000Y-140140000D03*
X137500000Y-137600000D03*
X137500000Y-135060000D03*
X137500000Y-132520000D03*
X137500000Y-129980000D03*
X137500000Y-127440000D03*
X137500000Y-124900000D03*
X137500000Y-122360000D03*
X137500000Y-119820000D03*
X137500000Y-117280000D03*
X137500000Y-114740000D03*
X137500000Y-112200000D03*
X137500000Y-109660000D03*
X137500000Y-107120000D03*
X137500000Y-104580000D03*
X137500000Y-102040000D03*
X137500000Y-99500000D03*
X137500000Y-96960000D03*
X137500000Y-94420000D03*
X119720000Y-94420000D03*
X119720000Y-96960000D03*
X119720000Y-99500000D03*
X119720000Y-102040000D03*
X119720000Y-104580000D03*
X119720000Y-107120000D03*
X119720000Y-109660000D03*
X119720000Y-112200000D03*
X119720000Y-114740000D03*
X119720000Y-117280000D03*
X119720000Y-119820000D03*
X119720000Y-122360000D03*
X119720000Y-124900000D03*
X119720000Y-127440000D03*
X119720000Y-129980000D03*
X119720000Y-132520000D03*
X119720000Y-135060000D03*
X119720000Y-137600000D03*
X119720000Y-140140000D03*
X119720000Y-142680000D03*
X147500000Y-93500000D03*
X150843720Y-93491318D03*
X154000000Y-93500000D03*
X147500000Y-98000000D03*
X150785115Y-98031636D03*
X154000000Y-98000000D03*
X104420000Y-114000000D03*
X114580000Y-114000000D03*
X103340000Y-133000000D03*
X113500000Y-133000000D03*
X112000000Y-124500000D03*
X108656280Y-124508682D03*
X105500000Y-124500000D03*
X112000000Y-120000000D03*
X108714885Y-119968364D03*
X105500000Y-120000000D03*
X114580000Y-99000000D03*
X104420000Y-99000000D03*
X103750000Y-88000000D03*
X97250000Y-88000000D03*
X147500000Y-116500000D03*
X150843720Y-116491318D03*
X154000000Y-116500000D03*
X147500000Y-121000000D03*
X150785115Y-121031636D03*
X154000000Y-121000000D03*
X147500000Y-105000000D03*
X150843720Y-104991318D03*
X154000000Y-105000000D03*
X147500000Y-109500000D03*
X150785115Y-109531636D03*
X154000000Y-109500000D03*
X104420000Y-106000000D03*
X114580000Y-106000000D03*
X153000000Y-136500000D03*
X153000000Y-138500000D03*
X103420000Y-141000000D03*
X113580000Y-141000000D03*
X96000000Y-113000000D03*
X96000000Y-111000000D03*
X96000000Y-109000000D03*
X96000000Y-107000000D03*
M02*
