%TF.GenerationSoftware,KiCad,Pcbnew,8.0.7*%
%TF.CreationDate,2025-03-22T07:57:52+02:00*%
%TF.ProjectId,Open_Source_Chronograph-with_TCRT5000,4f70656e-5f53-46f7-9572-63655f436872,rev?*%
%TF.SameCoordinates,Original*%
%TF.FileFunction,Profile,NP*%
%FSLAX46Y46*%
G04 Gerber Fmt 4.6, Leading zero omitted, Abs format (unit mm)*
G04 Created by KiCad (PCBNEW 8.0.7) date 2025-03-22 07:57:52*
%MOMM*%
%LPD*%
G01*
G04 APERTURE LIST*
%TA.AperFunction,Profile*%
%ADD10C,0.050000*%
%TD*%
%ADD11C,0.350000*%
G04 APERTURE END LIST*
D10*
X91000000Y-79500000D02*
X160500000Y-79500000D01*
X160500000Y-146500000D01*
X91000000Y-146500000D01*
X91000000Y-79500000D01*
D11*
X95500000Y-140000000D03*
X95500000Y-138000000D03*
X95500000Y-136000000D03*
X95500000Y-134000000D03*
X125500000Y-83500000D03*
X128000000Y-83500000D03*
X130500000Y-83500000D03*
X133000000Y-83500000D03*
X137500000Y-142680000D03*
X137500000Y-140140000D03*
X137500000Y-137600000D03*
X137500000Y-135060000D03*
X137500000Y-132520000D03*
X137500000Y-129980000D03*
X137500000Y-127440000D03*
X137500000Y-124900000D03*
X137500000Y-122360000D03*
X137500000Y-119820000D03*
X137500000Y-117280000D03*
X137500000Y-114740000D03*
X137500000Y-112200000D03*
X137500000Y-109660000D03*
X137500000Y-107120000D03*
X137500000Y-104580000D03*
X137500000Y-102040000D03*
X137500000Y-99500000D03*
X137500000Y-96960000D03*
X137500000Y-94420000D03*
X119720000Y-94420000D03*
X119720000Y-96960000D03*
X119720000Y-99500000D03*
X119720000Y-102040000D03*
X119720000Y-104580000D03*
X119720000Y-107120000D03*
X119720000Y-109660000D03*
X119720000Y-112200000D03*
X119720000Y-114740000D03*
X119720000Y-117280000D03*
X119720000Y-119820000D03*
X119720000Y-122360000D03*
X119720000Y-124900000D03*
X119720000Y-127440000D03*
X119720000Y-129980000D03*
X119720000Y-132520000D03*
X119720000Y-135060000D03*
X119720000Y-137600000D03*
X119720000Y-140140000D03*
X119720000Y-142680000D03*
X147500000Y-93500000D03*
X150843720Y-93491318D03*
X154000000Y-93500000D03*
X147500000Y-98000000D03*
X150785115Y-98031636D03*
X154000000Y-98000000D03*
X104420000Y-114000000D03*
X114580000Y-114000000D03*
X103340000Y-133000000D03*
X113500000Y-133000000D03*
X112000000Y-124500000D03*
X108656280Y-124508682D03*
X105500000Y-124500000D03*
X112000000Y-120000000D03*
X108714885Y-119968364D03*
X105500000Y-120000000D03*
X114580000Y-99000000D03*
X104420000Y-99000000D03*
X103750000Y-88000000D03*
X97250000Y-88000000D03*
X147500000Y-116500000D03*
X150843720Y-116491318D03*
X154000000Y-116500000D03*
X147500000Y-121000000D03*
X150785115Y-121031636D03*
X154000000Y-121000000D03*
X147500000Y-105000000D03*
X150843720Y-104991318D03*
X154000000Y-105000000D03*
X147500000Y-109500000D03*
X150785115Y-109531636D03*
X154000000Y-109500000D03*
X104420000Y-106000000D03*
X114580000Y-106000000D03*
X153000000Y-136500000D03*
X153000000Y-138500000D03*
X103420000Y-141000000D03*
X113580000Y-141000000D03*
X96000000Y-113000000D03*
X96000000Y-111000000D03*
X96000000Y-109000000D03*
X96000000Y-107000000D03*
M02*
