M48
; DRILL file {KiCad 8.0.7} date 2025-03-22T07:57:52+0200
; FORMAT={-:-/ absolute / metric / decimal}
; #@! TF.CreationDate,2025-03-22T07:57:52+02:00
; #@! TF.GenerationSoftware,Kicad,Pcbnew,8.0.7
; #@! TF.FileFunction,Plated,1,2,PTH
FMAT,2
METRIC
; #@! TA.AperFunction,Plated,PTH,ViaDrill
T1C0.300
; #@! TA.AperFunction,Plated,PTH,ComponentDrill
T2C0.750
; #@! TA.AperFunction,Plated,PTH,ComponentDrill
T3C0.800
; #@! TA.AperFunction,Plated,PTH,ComponentDrill
T4C0.950
; #@! TA.AperFunction,Plated,PTH,ComponentDrill
T5C1.000
; #@! TA.AperFunction,Plated,PTH,ComponentDrill
T6C1.100
%
G90
G05
T1
X121.883Y-108.322
X135.381Y-113.47
T2
X95.5Y-134.0
X95.5Y-136.0
X95.5Y-138.0
X95.5Y-140.0
X96.0Y-107.0
X96.0Y-109.0
X96.0Y-111.0
X96.0Y-113.0
X153.0Y-136.5
X153.0Y-138.5
T3
X103.34Y-133.0
X103.42Y-141.0
X104.42Y-99.0
X104.42Y-106.0
X104.42Y-114.0
X113.5Y-133.0
X113.58Y-141.0
X114.58Y-99.0
X114.58Y-106.0
X114.58Y-114.0
T4
X125.5Y-83.5
X128.0Y-83.5
X130.5Y-83.5
X133.0Y-83.5
T5
X97.25Y-88.0
X103.75Y-88.0
X119.72Y-94.42
X119.72Y-96.96
X119.72Y-99.5
X119.72Y-102.04
X119.72Y-104.58
X119.72Y-107.12
X119.72Y-109.66
X119.72Y-112.2
X119.72Y-114.74
X119.72Y-117.28
X119.72Y-119.82
X119.72Y-122.36
X119.72Y-124.9
X119.72Y-127.44
X119.72Y-129.98
X119.72Y-132.52
X119.72Y-135.06
X119.72Y-137.6
X119.72Y-140.14
X119.72Y-142.68
X137.5Y-94.42
X137.5Y-96.96
X137.5Y-99.5
X137.5Y-102.04
X137.5Y-104.58
X137.5Y-107.12
X137.5Y-109.66
X137.5Y-112.2
X137.5Y-114.74
X137.5Y-117.28
X137.5Y-119.82
X137.5Y-122.36
X137.5Y-124.9
X137.5Y-127.44
X137.5Y-129.98
X137.5Y-132.52
X137.5Y-135.06
X137.5Y-137.6
X137.5Y-140.14
X137.5Y-142.68
T6
X105.5Y-120.0
X105.5Y-124.5
X108.656Y-124.509
X108.715Y-119.968
X112.0Y-120.0
X112.0Y-124.5
X147.5Y-93.5
X147.5Y-98.0
X147.5Y-105.0
X147.5Y-109.5
X147.5Y-116.5
X147.5Y-121.0
X150.785Y-98.032
X150.785Y-109.532
X150.785Y-121.032
X150.844Y-93.491
X150.844Y-104.991
X150.844Y-116.491
X154.0Y-93.5
X154.0Y-98.0
X154.0Y-105.0
X154.0Y-109.5
X154.0Y-116.5
X154.0Y-121.0
M30
