%TF.GenerationSoftware,KiCad,Pcbnew,8.0.7*%
%TF.CreationDate,2025-03-22T07:57:53+02:00*%
%TF.ProjectId,Open_Source_Chronograph-with_TCRT5000,4f70656e-5f53-46f7-9572-63655f436872,rev?*%
%TF.SameCoordinates,Original*%
%TF.FileFunction,Legend,Bot*%
%TF.FilePolarity,Positive*%
%FSLAX46Y46*%
G04 Gerber Fmt 4.6, Leading zero omitted, Abs format (unit mm)*
G04 Created by KiCad (PCBNEW 8.0.7) date 2025-03-22 07:57:53*
%MOMM*%
%LPD*%
G01*
G04 APERTURE LIST*
%ADD10C,0.100000*%
%ADD11C,0.300000*%
%ADD12C,0.000000*%
%ADD13C,0.350000*%
G04 APERTURE END LIST*
D10*
G36*
X129829692Y-131281297D02*
G01*
X129730946Y-131289923D01*
X129636325Y-131318507D01*
X129605478Y-131333565D01*
X129522695Y-131391582D01*
X129453866Y-131467631D01*
X129445743Y-131479133D01*
X129395921Y-131568064D01*
X129360709Y-131663704D01*
X129350000Y-131703837D01*
X129330949Y-131805869D01*
X129321209Y-131906158D01*
X129318736Y-131993020D01*
X129321507Y-132090853D01*
X129324598Y-132135170D01*
X129333837Y-132234212D01*
X129338276Y-132271457D01*
X129352742Y-132368498D01*
X129357327Y-132394067D01*
X129378894Y-132489716D01*
X129381263Y-132498603D01*
X129620132Y-132498603D01*
X129589544Y-132403554D01*
X129566835Y-132306588D01*
X129559560Y-132267061D01*
X129546165Y-132165761D01*
X129539317Y-132064213D01*
X129537578Y-131974946D01*
X129541549Y-131871849D01*
X129555652Y-131773690D01*
X129587378Y-131677740D01*
X129609874Y-131637891D01*
X129682002Y-131568906D01*
X129697801Y-131560710D01*
X129795612Y-131537359D01*
X129816015Y-131536775D01*
X129913101Y-131559581D01*
X129940090Y-131577319D01*
X130008719Y-131648724D01*
X130032414Y-131683809D01*
X130080232Y-131773492D01*
X130106175Y-131834262D01*
X130142539Y-131925017D01*
X130175540Y-132006698D01*
X130215464Y-132099156D01*
X130253210Y-132179133D01*
X130305262Y-132268332D01*
X130352372Y-132329587D01*
X130427130Y-132398942D01*
X130486217Y-132436077D01*
X130581770Y-132468861D01*
X130668911Y-132476621D01*
X130771453Y-132464411D01*
X130850139Y-132438031D01*
X130939467Y-132385034D01*
X131008897Y-132318352D01*
X131068023Y-132232242D01*
X131109716Y-132141291D01*
X131120760Y-132110257D01*
X131146658Y-132008133D01*
X131159897Y-131902450D01*
X131163258Y-131807396D01*
X131158862Y-131709210D01*
X131148100Y-131609004D01*
X131147138Y-131602232D01*
X131131852Y-131505158D01*
X131130041Y-131495253D01*
X131110684Y-131399426D01*
X131110013Y-131396579D01*
X130890683Y-131396579D01*
X130915857Y-131495956D01*
X130934590Y-131595332D01*
X130936601Y-131608582D01*
X130947821Y-131705998D01*
X130952217Y-131806595D01*
X130952233Y-131812769D01*
X130947836Y-131911077D01*
X130929976Y-132014384D01*
X130890409Y-132109639D01*
X130881891Y-132122469D01*
X130811179Y-132189922D01*
X130715079Y-132220276D01*
X130693335Y-132221143D01*
X130595699Y-132198337D01*
X130568283Y-132180599D01*
X130498952Y-132109194D01*
X130474982Y-132074109D01*
X130426553Y-131984426D01*
X130400244Y-131923655D01*
X130363880Y-131832900D01*
X130330879Y-131751220D01*
X130290923Y-131658762D01*
X130252233Y-131578784D01*
X130202667Y-131494233D01*
X130151605Y-131428331D01*
X130075343Y-131358975D01*
X130014829Y-131321841D01*
X129917782Y-131289057D01*
X129829692Y-131281297D01*
G37*
G36*
X129389078Y-129821701D02*
G01*
X129358060Y-129916345D01*
X129336322Y-130013676D01*
X129323133Y-130113327D01*
X129318736Y-130215909D01*
X129323125Y-130314513D01*
X129339978Y-130423140D01*
X129369470Y-130521188D01*
X129419853Y-130622207D01*
X129487440Y-130708828D01*
X129498499Y-130720027D01*
X129585069Y-130788738D01*
X129671886Y-130834202D01*
X129770347Y-130867266D01*
X129880451Y-130887932D01*
X129981098Y-130895681D01*
X130023621Y-130896370D01*
X130124371Y-130891409D01*
X130228144Y-130874491D01*
X130324528Y-130845567D01*
X130420516Y-130801398D01*
X130505512Y-130745825D01*
X130556071Y-130702441D01*
X130622062Y-130628481D01*
X130675689Y-130544355D01*
X130704570Y-130482623D01*
X130736421Y-130382994D01*
X130752704Y-130285272D01*
X130756838Y-130200766D01*
X130752686Y-130097207D01*
X130740230Y-130000487D01*
X130717036Y-129903561D01*
X130686496Y-129821701D01*
X130459839Y-129821701D01*
X130502093Y-129911949D01*
X130531158Y-130003907D01*
X130548691Y-130104174D01*
X130553628Y-130195393D01*
X130542191Y-130295857D01*
X130517480Y-130369294D01*
X130467317Y-130454886D01*
X130414410Y-130512909D01*
X130334757Y-130571136D01*
X130250279Y-130610606D01*
X130154022Y-130636201D01*
X130054112Y-130645952D01*
X130031437Y-130646265D01*
X129925813Y-130640445D01*
X129820155Y-130619539D01*
X129720485Y-130577847D01*
X129648953Y-130524632D01*
X129581977Y-130439405D01*
X129542907Y-130346957D01*
X129523931Y-130239593D01*
X129521946Y-130187089D01*
X129528564Y-130085459D01*
X129545394Y-129998533D01*
X129576924Y-129903132D01*
X129615736Y-129821701D01*
X129389078Y-129821701D01*
G37*
G36*
X130404320Y-128263285D02*
G01*
X130503314Y-128292253D01*
X130572504Y-128330908D01*
X130644975Y-128398743D01*
X130694312Y-128475923D01*
X130728995Y-128568736D01*
X130733971Y-128587731D01*
X130751509Y-128689275D01*
X130756838Y-128793927D01*
X130756411Y-128828060D01*
X130750000Y-128929726D01*
X130746987Y-128958962D01*
X130732414Y-129059175D01*
X130728972Y-129078266D01*
X130707501Y-129176412D01*
X130705729Y-129183333D01*
X130678681Y-129277528D01*
X130459839Y-129277528D01*
X130473382Y-129239861D01*
X130503906Y-129143714D01*
X130529204Y-129043055D01*
X130534928Y-129014670D01*
X130548953Y-128914478D01*
X130553628Y-128812978D01*
X130550984Y-128755614D01*
X130529826Y-128658298D01*
X130478401Y-128574109D01*
X130463946Y-128560054D01*
X130378401Y-128510516D01*
X130278611Y-128495463D01*
X130155024Y-128495463D01*
X130155024Y-128781227D01*
X130153989Y-128836625D01*
X130145712Y-128939642D01*
X130125593Y-129046719D01*
X130088804Y-129151804D01*
X130037299Y-129238449D01*
X129990141Y-129290908D01*
X129907426Y-129349246D01*
X129810336Y-129383163D01*
X129711967Y-129392811D01*
X129655925Y-129389809D01*
X129556629Y-129367410D01*
X129513820Y-129348719D01*
X129432065Y-129287786D01*
X129392909Y-129238894D01*
X129349023Y-129150034D01*
X129325391Y-129051112D01*
X129318736Y-128947800D01*
X129320185Y-128909210D01*
X129521946Y-128909210D01*
X129522009Y-128917012D01*
X129538066Y-129016188D01*
X129583007Y-129087996D01*
X129647487Y-129127563D01*
X129723691Y-129139775D01*
X129730850Y-129139699D01*
X129827250Y-129120236D01*
X129906385Y-129059175D01*
X129918292Y-129042798D01*
X129957187Y-128953174D01*
X129968201Y-128901310D01*
X129975261Y-128799301D01*
X129975261Y-128495463D01*
X129730530Y-128495463D01*
X129685867Y-128546620D01*
X129622246Y-128631708D01*
X129571772Y-128720166D01*
X129537712Y-128808763D01*
X129521946Y-128909210D01*
X129320185Y-128909210D01*
X129320522Y-128900236D01*
X129336646Y-128800126D01*
X129369539Y-128704046D01*
X129403139Y-128638921D01*
X129463566Y-128552928D01*
X129534647Y-128474946D01*
X129350000Y-128469573D01*
X129350000Y-128255128D01*
X130302547Y-128255128D01*
X130404320Y-128263285D01*
G37*
G36*
X130725575Y-127817933D02*
G01*
X130725575Y-127604953D01*
X130503803Y-127595184D01*
X130578352Y-127528826D01*
X130625436Y-127478924D01*
X130685112Y-127398731D01*
X130703105Y-127368038D01*
X130740521Y-127275147D01*
X130744626Y-127257640D01*
X130756540Y-127159237D01*
X130756838Y-127140403D01*
X130748961Y-127040416D01*
X130721269Y-126943477D01*
X130667116Y-126855073D01*
X130630809Y-126818491D01*
X130539638Y-126760789D01*
X130436375Y-126727129D01*
X130327717Y-126711742D01*
X130251744Y-126709071D01*
X129350000Y-126709071D01*
X129350000Y-126948429D01*
X130234647Y-126948429D01*
X130336714Y-126955586D01*
X130431293Y-126982500D01*
X130475471Y-127009001D01*
X130536455Y-127089659D01*
X130553628Y-127188763D01*
X130540439Y-127274737D01*
X130495010Y-127361687D01*
X130430324Y-127437441D01*
X130407083Y-127460362D01*
X130331890Y-127527659D01*
X130269330Y-127579064D01*
X129350000Y-127579064D01*
X129350000Y-127817933D01*
X130725575Y-127817933D01*
G37*
G36*
X131076308Y-123518282D02*
G01*
X131095671Y-123619974D01*
X131109753Y-123723357D01*
X131116207Y-123825398D01*
X131116364Y-123842636D01*
X131104823Y-123952368D01*
X131062188Y-124051695D01*
X130988136Y-124120119D01*
X130882669Y-124157642D01*
X130788101Y-124165526D01*
X130553628Y-124165526D01*
X130553628Y-123560780D01*
X130350418Y-123560780D01*
X130350418Y-124165526D01*
X129350000Y-124165526D01*
X129350000Y-124408791D01*
X130350418Y-124408791D01*
X130350418Y-124852336D01*
X130553628Y-124852336D01*
X130553628Y-124408791D01*
X130773935Y-124408791D01*
X130901819Y-124399815D01*
X131012652Y-124372888D01*
X131106434Y-124328008D01*
X131183164Y-124265177D01*
X131242843Y-124184393D01*
X131285471Y-124085658D01*
X131311048Y-123968971D01*
X131319041Y-123869675D01*
X131319574Y-123834332D01*
X131315591Y-123732412D01*
X131305058Y-123633646D01*
X131287942Y-123529061D01*
X131285868Y-123518282D01*
X131076308Y-123518282D01*
G37*
G36*
X130152368Y-122008222D02*
G01*
X130257232Y-122022700D01*
X130352861Y-122047452D01*
X130401141Y-122064945D01*
X130495143Y-122112275D01*
X130574633Y-122172504D01*
X130601519Y-122198879D01*
X130665633Y-122282120D01*
X130710432Y-122371806D01*
X130732865Y-122440186D01*
X130751355Y-122538933D01*
X130756838Y-122637054D01*
X130752627Y-122721843D01*
X130736039Y-122818442D01*
X130703593Y-122915002D01*
X130682115Y-122959510D01*
X130625210Y-123047106D01*
X130554117Y-123122609D01*
X130503864Y-123162634D01*
X130419554Y-123213398D01*
X130324528Y-123253034D01*
X130229498Y-123278621D01*
X130127772Y-123293586D01*
X130029483Y-123297975D01*
X129925317Y-123293777D01*
X129819771Y-123279462D01*
X129723691Y-123254988D01*
X129675543Y-123237345D01*
X129581473Y-123189929D01*
X129501430Y-123129936D01*
X129469253Y-123097925D01*
X129410023Y-123020084D01*
X129365143Y-122930634D01*
X129342710Y-122862018D01*
X129324220Y-122763076D01*
X129318736Y-122664897D01*
X129319416Y-122651220D01*
X129521946Y-122651220D01*
X129527267Y-122723883D01*
X129554187Y-122818770D01*
X129583198Y-122871367D01*
X129651395Y-122945288D01*
X129718929Y-122988680D01*
X129812595Y-123025400D01*
X129837386Y-123032040D01*
X129939052Y-123049056D01*
X130038276Y-123053732D01*
X130132407Y-123048795D01*
X130234159Y-123031262D01*
X130311736Y-123006217D01*
X130398290Y-122959454D01*
X130451083Y-122915250D01*
X130511130Y-122834402D01*
X130543004Y-122750505D01*
X130553628Y-122651220D01*
X130548227Y-122579109D01*
X130520900Y-122484158D01*
X130492186Y-122431264D01*
X130424180Y-122357151D01*
X130356753Y-122313410D01*
X130263468Y-122276551D01*
X130238898Y-122269911D01*
X130137655Y-122252895D01*
X130038276Y-122248219D01*
X129937159Y-122253959D01*
X129840928Y-122271178D01*
X129763590Y-122295888D01*
X129676796Y-122342497D01*
X129624239Y-122386701D01*
X129563956Y-122467549D01*
X129532449Y-122551569D01*
X129521946Y-122651220D01*
X129319416Y-122651220D01*
X129322948Y-122580147D01*
X129339535Y-122483700D01*
X129371981Y-122387438D01*
X129393442Y-122342781D01*
X129450192Y-122255099D01*
X129520969Y-122179831D01*
X129571497Y-122139623D01*
X129656333Y-122088813D01*
X129752023Y-122049405D01*
X129847946Y-122023541D01*
X129950333Y-122008413D01*
X130049023Y-122003976D01*
X130152368Y-122008222D01*
G37*
G36*
X130725575Y-121610745D02*
G01*
X130725575Y-121391904D01*
X130468632Y-121385065D01*
X130547440Y-121316642D01*
X130619415Y-121241251D01*
X130679635Y-121159093D01*
X130688450Y-121144241D01*
X130730124Y-121054871D01*
X130753566Y-120957279D01*
X130756838Y-120904395D01*
X130747984Y-120803675D01*
X130716858Y-120705912D01*
X130655988Y-120616592D01*
X130615177Y-120579552D01*
X130524597Y-120526607D01*
X130425785Y-120495374D01*
X130325200Y-120480267D01*
X130211432Y-120476567D01*
X130194103Y-120476970D01*
X130194103Y-120718770D01*
X130292210Y-120721402D01*
X130389764Y-120737737D01*
X130468143Y-120772015D01*
X130534845Y-120847248D01*
X130553628Y-120938589D01*
X130535554Y-121035798D01*
X130487469Y-121123046D01*
X130477913Y-121135937D01*
X130413328Y-121209695D01*
X130376796Y-121245358D01*
X130299207Y-121312832D01*
X130227320Y-121368945D01*
X129350000Y-121368945D01*
X129350000Y-121610745D01*
X130725575Y-121610745D01*
G37*
G36*
X127459364Y-133575714D02*
G01*
X127506368Y-133664459D01*
X127543086Y-133755447D01*
X127551688Y-133781855D01*
X127574061Y-133877919D01*
X127583905Y-133981463D01*
X127584417Y-134012421D01*
X127577273Y-134115003D01*
X127553409Y-134216211D01*
X127533614Y-134266433D01*
X127481121Y-134357154D01*
X127412546Y-134434411D01*
X127390000Y-134454012D01*
X127308698Y-134510042D01*
X127214820Y-134554302D01*
X127167250Y-134570760D01*
X127065882Y-134595467D01*
X126966081Y-134608097D01*
X126879532Y-134611304D01*
X126779984Y-134608108D01*
X126678195Y-134597209D01*
X126584487Y-134578576D01*
X126485362Y-134545540D01*
X126393038Y-134496440D01*
X126363691Y-134475505D01*
X126292752Y-134406569D01*
X126238082Y-134322861D01*
X126225450Y-134296231D01*
X126194455Y-134200232D01*
X126179869Y-134099024D01*
X126177578Y-134034403D01*
X126180020Y-133978227D01*
X126187348Y-133917654D01*
X126199071Y-133859525D01*
X126213726Y-133809211D01*
X126771577Y-133809211D01*
X126771577Y-134176063D01*
X126974787Y-134176063D01*
X126974787Y-133567410D01*
X126066203Y-133567410D01*
X126029030Y-133659061D01*
X126019797Y-133686112D01*
X125993327Y-133781550D01*
X125986092Y-133814095D01*
X125969422Y-133911548D01*
X125965575Y-133944033D01*
X125959064Y-134042100D01*
X125958736Y-134068597D01*
X125963296Y-134169327D01*
X125979057Y-134274542D01*
X126006077Y-134372697D01*
X126016378Y-134400767D01*
X126062586Y-134497051D01*
X126121956Y-134583062D01*
X126187348Y-134652337D01*
X126271841Y-134717877D01*
X126360074Y-134767642D01*
X126459183Y-134808056D01*
X126469692Y-134811583D01*
X126568976Y-134838266D01*
X126676683Y-134856217D01*
X126779494Y-134864842D01*
X126860969Y-134866782D01*
X126968711Y-134862935D01*
X127070652Y-134851395D01*
X127166792Y-134832161D01*
X127257131Y-134805233D01*
X127351525Y-134766395D01*
X127437417Y-134719675D01*
X127522883Y-134658519D01*
X127554131Y-134631332D01*
X127624475Y-134556981D01*
X127683465Y-134473757D01*
X127731102Y-134381661D01*
X127739267Y-134362176D01*
X127773012Y-134260720D01*
X127792697Y-134164026D01*
X127802259Y-134062231D01*
X127803258Y-134015352D01*
X127798583Y-133911688D01*
X127784559Y-133812699D01*
X127778834Y-133785275D01*
X127749954Y-133684732D01*
X127711379Y-133594572D01*
X127701653Y-133575714D01*
X127459364Y-133575714D01*
G37*
G36*
X127170181Y-132730146D02*
G01*
X127170181Y-133138031D01*
X127365575Y-133138031D01*
X127365575Y-132488345D01*
X126193210Y-132488345D01*
X126193210Y-132077529D01*
X125990000Y-132077529D01*
X125990000Y-133183460D01*
X126193210Y-133183460D01*
X126193210Y-132730146D01*
X127170181Y-132730146D01*
G37*
G36*
X127928311Y-132646615D02*
G01*
X127913656Y-132572365D01*
X127873600Y-132512281D01*
X127814005Y-132472714D01*
X127740732Y-132458059D01*
X127667948Y-132472714D01*
X127607864Y-132512281D01*
X127567320Y-132572365D01*
X127553154Y-132646615D01*
X127567320Y-132720865D01*
X127607864Y-132780460D01*
X127667948Y-132820516D01*
X127740732Y-132834682D01*
X127814005Y-132820516D01*
X127873600Y-132780460D01*
X127913656Y-132720865D01*
X127928311Y-132646615D01*
G37*
G36*
X125990000Y-130551011D02*
G01*
X125973549Y-130649198D01*
X125966064Y-130718562D01*
X125960139Y-130816759D01*
X125958736Y-130894416D01*
X125964370Y-131001610D01*
X125984604Y-131108718D01*
X126024957Y-131209581D01*
X126076461Y-131281786D01*
X126152926Y-131343416D01*
X126249328Y-131384877D01*
X126351758Y-131404798D01*
X126438918Y-131409280D01*
X127162365Y-131409280D01*
X127162365Y-131795673D01*
X127365575Y-131795673D01*
X127365575Y-131409280D01*
X127741709Y-131409280D01*
X127803258Y-131170411D01*
X127365575Y-131170411D01*
X127365575Y-130551011D01*
X127162365Y-130551011D01*
X127162365Y-131170411D01*
X126458457Y-131170411D01*
X126357295Y-131159351D01*
X126266013Y-131118492D01*
X126235708Y-131091765D01*
X126182764Y-131001154D01*
X126163747Y-130905018D01*
X126161946Y-130858757D01*
X126165732Y-130757651D01*
X126169274Y-130714654D01*
X126182287Y-130613865D01*
X126193210Y-130551011D01*
X125990000Y-130551011D01*
G37*
G36*
X125990000Y-128948289D02*
G01*
X125990000Y-129193021D01*
X126802840Y-129193021D01*
X126802840Y-129947243D01*
X125990000Y-129947243D01*
X125990000Y-130191974D01*
X127771995Y-130191974D01*
X127771995Y-129947243D01*
X127013866Y-129947243D01*
X127013866Y-129193021D01*
X127771995Y-129193021D01*
X127771995Y-128948289D01*
X125990000Y-128948289D01*
G37*
G36*
X125990000Y-127477948D02*
G01*
X125990000Y-127692393D01*
X126211772Y-127700697D01*
X126137223Y-127768085D01*
X126090139Y-127817934D01*
X126030211Y-127897732D01*
X126011981Y-127928820D01*
X125975042Y-128021839D01*
X125970949Y-128039218D01*
X125959035Y-128137711D01*
X125958736Y-128156943D01*
X125966552Y-128256899D01*
X125994030Y-128353731D01*
X126047763Y-128441925D01*
X126083789Y-128478366D01*
X126174702Y-128535553D01*
X126277815Y-128568913D01*
X126386404Y-128584163D01*
X126462365Y-128586810D01*
X127365575Y-128586810D01*
X127365575Y-128347941D01*
X126480439Y-128347941D01*
X126372201Y-128339526D01*
X126274228Y-128308437D01*
X126199581Y-128244858D01*
X126164746Y-128151358D01*
X126161946Y-128108583D01*
X126175136Y-128023098D01*
X126220565Y-127935170D01*
X126284953Y-127858785D01*
X126308004Y-127836008D01*
X126383713Y-127768710D01*
X126447222Y-127717306D01*
X127365575Y-127717306D01*
X127365575Y-127477948D01*
X125990000Y-127477948D01*
G37*
G36*
X126785462Y-125872737D02*
G01*
X126884989Y-125882172D01*
X126985533Y-125900627D01*
X127024903Y-125910831D01*
X127118558Y-125944282D01*
X127205352Y-125991486D01*
X127211021Y-125995269D01*
X127286318Y-126058897D01*
X127346524Y-126140962D01*
X127355516Y-126157977D01*
X127387208Y-126250648D01*
X127396838Y-126348569D01*
X127394812Y-126398360D01*
X127376517Y-126502235D01*
X127339197Y-126600627D01*
X127289756Y-126679553D01*
X127220690Y-126755132D01*
X127140872Y-126820934D01*
X127395373Y-126810188D01*
X127928311Y-126810188D01*
X127928311Y-127049057D01*
X126056434Y-127049057D01*
X126035516Y-126994230D01*
X126005749Y-126899696D01*
X125982184Y-126796510D01*
X125974215Y-126748722D01*
X125962606Y-126646596D01*
X125958736Y-126546405D01*
X125959584Y-126528331D01*
X126154131Y-126528331D01*
X126155705Y-126570215D01*
X126170251Y-126667061D01*
X126182719Y-126716812D01*
X126214214Y-126810188D01*
X126892233Y-126810188D01*
X126955587Y-126759881D01*
X127031939Y-126690997D01*
X127058654Y-126663520D01*
X127122309Y-126585484D01*
X127126507Y-126579210D01*
X127171158Y-126488764D01*
X127185812Y-126396440D01*
X127183492Y-126360628D01*
X127148688Y-126268945D01*
X127125800Y-126240266D01*
X127046594Y-126181018D01*
X126984270Y-126154317D01*
X126889302Y-126130704D01*
X126786626Y-126118126D01*
X126687557Y-126114584D01*
X126632322Y-126115769D01*
X126532259Y-126125249D01*
X126433056Y-126148289D01*
X126351391Y-126182270D01*
X126268925Y-126239148D01*
X126227411Y-126284485D01*
X126180509Y-126371039D01*
X126164435Y-126428192D01*
X126154131Y-126528331D01*
X125959584Y-126528331D01*
X125962755Y-126460715D01*
X125978581Y-126362803D01*
X126009539Y-126264549D01*
X126030153Y-126218994D01*
X126085538Y-126129482D01*
X126155596Y-126052546D01*
X126205819Y-126011330D01*
X126290884Y-125958894D01*
X126387627Y-125917724D01*
X126396242Y-125914809D01*
X126495727Y-125888850D01*
X126593682Y-125874968D01*
X126698792Y-125870341D01*
X126785462Y-125872737D01*
G37*
G36*
X127365575Y-123917375D02*
G01*
X127365575Y-123698534D01*
X127108632Y-123691695D01*
X127187440Y-123623272D01*
X127259415Y-123547881D01*
X127319635Y-123465723D01*
X127328450Y-123450871D01*
X127370124Y-123361501D01*
X127393566Y-123263909D01*
X127396838Y-123211025D01*
X127387984Y-123110305D01*
X127356858Y-123012542D01*
X127295988Y-122923222D01*
X127255177Y-122886182D01*
X127164597Y-122833237D01*
X127065785Y-122802004D01*
X126965200Y-122786897D01*
X126851432Y-122783197D01*
X126834103Y-122783600D01*
X126834103Y-123025400D01*
X126932210Y-123028032D01*
X127029764Y-123044367D01*
X127108143Y-123078645D01*
X127174845Y-123153878D01*
X127193628Y-123245219D01*
X127175554Y-123342428D01*
X127127469Y-123429676D01*
X127117913Y-123442567D01*
X127053328Y-123516325D01*
X127016796Y-123551988D01*
X126939207Y-123619462D01*
X126867320Y-123675575D01*
X125990000Y-123675575D01*
X125990000Y-123917375D01*
X127365575Y-123917375D01*
G37*
G36*
X126825413Y-121272630D02*
G01*
X126925739Y-121284537D01*
X127025589Y-121309839D01*
X127054463Y-121320188D01*
X127146747Y-121365549D01*
X127225380Y-121425121D01*
X127245309Y-121444722D01*
X127305803Y-121521979D01*
X127351898Y-121612700D01*
X127369409Y-121662992D01*
X127390519Y-121764703D01*
X127396838Y-121868178D01*
X127393205Y-121940443D01*
X127374131Y-122041399D01*
X127338709Y-122133426D01*
X127315467Y-122175935D01*
X127255214Y-122259320D01*
X127181416Y-122330774D01*
X127136703Y-122363999D01*
X127045480Y-122416030D01*
X126951828Y-122452895D01*
X126877188Y-122473203D01*
X126773702Y-122489941D01*
X126674856Y-122494905D01*
X126572961Y-122491089D01*
X126468811Y-122478075D01*
X126372972Y-122455826D01*
X126324406Y-122439677D01*
X126229077Y-122394438D01*
X126147292Y-122335170D01*
X126109194Y-122297093D01*
X126049480Y-122214842D01*
X126007096Y-122125610D01*
X125979563Y-122031791D01*
X125963459Y-121926313D01*
X125958736Y-121820306D01*
X125959423Y-121771173D01*
X125965625Y-121666958D01*
X125978276Y-121565805D01*
X125982043Y-121542947D01*
X126002345Y-121442182D01*
X126029078Y-121345010D01*
X126224473Y-121345010D01*
X126200537Y-121440753D01*
X126198539Y-121450413D01*
X126180997Y-121548220D01*
X126178333Y-121565882D01*
X126166831Y-121664968D01*
X126165171Y-121687682D01*
X126161946Y-121786112D01*
X126164809Y-121853029D01*
X126181295Y-121949527D01*
X126217359Y-122042542D01*
X126279183Y-122126587D01*
X126318300Y-122160642D01*
X126411418Y-122211437D01*
X126512191Y-122237412D01*
X126615261Y-122244800D01*
X126802840Y-122244800D01*
X126873450Y-122235616D01*
X126967948Y-122209141D01*
X127012818Y-122189411D01*
X127096420Y-122133914D01*
X127124713Y-122106145D01*
X127179462Y-122022539D01*
X127196427Y-121976315D01*
X127209260Y-121879413D01*
X127205001Y-121814429D01*
X127178974Y-121720167D01*
X127160083Y-121683240D01*
X127094954Y-121605373D01*
X127059577Y-121579011D01*
X126966971Y-121537473D01*
X126904063Y-121523886D01*
X126802840Y-121519399D01*
X126802840Y-122244800D01*
X126615261Y-122244800D01*
X126615261Y-121276133D01*
X126678764Y-121272225D01*
X126763272Y-121270760D01*
X126825413Y-121272630D01*
G37*
G36*
X126785462Y-119721725D02*
G01*
X126884989Y-119731160D01*
X126985533Y-119749615D01*
X127024903Y-119759819D01*
X127118558Y-119793270D01*
X127205352Y-119840474D01*
X127211021Y-119844258D01*
X127286318Y-119907885D01*
X127346524Y-119989950D01*
X127355516Y-120006965D01*
X127387208Y-120099636D01*
X127396838Y-120197557D01*
X127394778Y-120247812D01*
X127376173Y-120352102D01*
X127338220Y-120450104D01*
X127288039Y-120528752D01*
X127217425Y-120604168D01*
X127135498Y-120669922D01*
X127365575Y-120685065D01*
X127365575Y-120898045D01*
X125427264Y-120898045D01*
X125427264Y-120659176D01*
X126003677Y-120659176D01*
X125992350Y-120625623D01*
X125968995Y-120526796D01*
X125964507Y-120494037D01*
X125958736Y-120395393D01*
X125959467Y-120377319D01*
X126154131Y-120377319D01*
X126155705Y-120421312D01*
X126170251Y-120520446D01*
X126181471Y-120565268D01*
X126214214Y-120659176D01*
X126892233Y-120659176D01*
X126955587Y-120608869D01*
X127031939Y-120539985D01*
X127058654Y-120512508D01*
X127122309Y-120434472D01*
X127126507Y-120428198D01*
X127171158Y-120337752D01*
X127185812Y-120245428D01*
X127183492Y-120209616D01*
X127148688Y-120117934D01*
X127125800Y-120089254D01*
X127046594Y-120030006D01*
X126984270Y-120003305D01*
X126889302Y-119979692D01*
X126786626Y-119967114D01*
X126687557Y-119963572D01*
X126576894Y-119968831D01*
X126466222Y-119987722D01*
X126372402Y-120020351D01*
X126286999Y-120073481D01*
X126263254Y-120094828D01*
X126200972Y-120176649D01*
X126164641Y-120274881D01*
X126154131Y-120377319D01*
X125959467Y-120377319D01*
X125961606Y-120324410D01*
X125976673Y-120222859D01*
X126004654Y-120127215D01*
X126023487Y-120082038D01*
X126075369Y-119992166D01*
X126142407Y-119913258D01*
X126197774Y-119865280D01*
X126283137Y-119811047D01*
X126372972Y-119771109D01*
X126390560Y-119764839D01*
X126493907Y-119737584D01*
X126597577Y-119723425D01*
X126698792Y-119719329D01*
X126785462Y-119721725D01*
G37*
G36*
X126792368Y-118163840D02*
G01*
X126897232Y-118178318D01*
X126992861Y-118203070D01*
X127041141Y-118220564D01*
X127135143Y-118267893D01*
X127214633Y-118328122D01*
X127241519Y-118354497D01*
X127305633Y-118437738D01*
X127350432Y-118527424D01*
X127372865Y-118595804D01*
X127391355Y-118694551D01*
X127396838Y-118792672D01*
X127392627Y-118877461D01*
X127376039Y-118974060D01*
X127343593Y-119070620D01*
X127322115Y-119115128D01*
X127265210Y-119202724D01*
X127194117Y-119278227D01*
X127143864Y-119318252D01*
X127059554Y-119369016D01*
X126964528Y-119408652D01*
X126869498Y-119434239D01*
X126767772Y-119449204D01*
X126669483Y-119453593D01*
X126565317Y-119449395D01*
X126459771Y-119435080D01*
X126363691Y-119410606D01*
X126315543Y-119392964D01*
X126221473Y-119345547D01*
X126141430Y-119285554D01*
X126109253Y-119253543D01*
X126050023Y-119175702D01*
X126005143Y-119086252D01*
X125982710Y-119017636D01*
X125964220Y-118918695D01*
X125958736Y-118820516D01*
X125959416Y-118806838D01*
X126161946Y-118806838D01*
X126167267Y-118879501D01*
X126194187Y-118974389D01*
X126223198Y-119026985D01*
X126291395Y-119100906D01*
X126358929Y-119144298D01*
X126452595Y-119181018D01*
X126477386Y-119187658D01*
X126579052Y-119204674D01*
X126678276Y-119209350D01*
X126772407Y-119204413D01*
X126874159Y-119186880D01*
X126951736Y-119161835D01*
X127038290Y-119115072D01*
X127091083Y-119070868D01*
X127151130Y-118990020D01*
X127183004Y-118906123D01*
X127193628Y-118806838D01*
X127188227Y-118734727D01*
X127160900Y-118639776D01*
X127132186Y-118586882D01*
X127064180Y-118512770D01*
X126996753Y-118469028D01*
X126903468Y-118432169D01*
X126878898Y-118425529D01*
X126777655Y-118408513D01*
X126678276Y-118403837D01*
X126577159Y-118409577D01*
X126480928Y-118426796D01*
X126403590Y-118451507D01*
X126316796Y-118498115D01*
X126264239Y-118542319D01*
X126203956Y-118623167D01*
X126172449Y-118707187D01*
X126161946Y-118806838D01*
X125959416Y-118806838D01*
X125962948Y-118735765D01*
X125979535Y-118639318D01*
X126011981Y-118543056D01*
X126033442Y-118498399D01*
X126090192Y-118410717D01*
X126160969Y-118335449D01*
X126211497Y-118295241D01*
X126296333Y-118244431D01*
X126392023Y-118205024D01*
X126487946Y-118179159D01*
X126590333Y-118164031D01*
X126689023Y-118159594D01*
X126792368Y-118163840D01*
G37*
D11*
X129821427Y-105749757D02*
X129964285Y-105678328D01*
X129964285Y-105678328D02*
X130178570Y-105678328D01*
X130178570Y-105678328D02*
X130392856Y-105749757D01*
X130392856Y-105749757D02*
X130535713Y-105892614D01*
X130535713Y-105892614D02*
X130607142Y-106035471D01*
X130607142Y-106035471D02*
X130678570Y-106321185D01*
X130678570Y-106321185D02*
X130678570Y-106535471D01*
X130678570Y-106535471D02*
X130607142Y-106821185D01*
X130607142Y-106821185D02*
X130535713Y-106964042D01*
X130535713Y-106964042D02*
X130392856Y-107106900D01*
X130392856Y-107106900D02*
X130178570Y-107178328D01*
X130178570Y-107178328D02*
X130035713Y-107178328D01*
X130035713Y-107178328D02*
X129821427Y-107106900D01*
X129821427Y-107106900D02*
X129749999Y-107035471D01*
X129749999Y-107035471D02*
X129749999Y-106535471D01*
X129749999Y-106535471D02*
X130035713Y-106535471D01*
X128892856Y-105678328D02*
X128892856Y-106035471D01*
X129249999Y-105892614D02*
X128892856Y-106035471D01*
X128892856Y-106035471D02*
X128535713Y-105892614D01*
X129107142Y-106321185D02*
X128892856Y-106035471D01*
X128892856Y-106035471D02*
X128678570Y-106321185D01*
X127749999Y-105678328D02*
X127749999Y-106035471D01*
X128107142Y-105892614D02*
X127749999Y-106035471D01*
X127749999Y-106035471D02*
X127392856Y-105892614D01*
X127964285Y-106321185D02*
X127749999Y-106035471D01*
X127749999Y-106035471D02*
X127535713Y-106321185D01*
X126607142Y-105678328D02*
X126607142Y-106035471D01*
X126964285Y-105892614D02*
X126607142Y-106035471D01*
X126607142Y-106035471D02*
X126249999Y-105892614D01*
X126821428Y-106321185D02*
X126607142Y-106035471D01*
X126607142Y-106035471D02*
X126392856Y-106321185D01*
D12*
%TO.C,G\u002A\u002A\u002A*%
G36*
X122233334Y-104600000D02*
G01*
X122233334Y-104833333D01*
X121533334Y-104833333D01*
X120833334Y-104833333D01*
X120833334Y-104600000D01*
X120833334Y-104366666D01*
X121533334Y-104366666D01*
X122233334Y-104366666D01*
X122233334Y-104600000D01*
G37*
G36*
X123166667Y-100400000D02*
G01*
X123166667Y-101100000D01*
X122466667Y-101100000D01*
X121766667Y-101100000D01*
X121766667Y-100400000D01*
X121766667Y-99700000D01*
X122466667Y-99700000D01*
X123166667Y-99700000D01*
X123166667Y-100400000D01*
G37*
G36*
X126433334Y-106700000D02*
G01*
X126433334Y-107166666D01*
X125966667Y-107166666D01*
X125500000Y-107166666D01*
X125500000Y-106700000D01*
X125500000Y-106233333D01*
X125966667Y-106233333D01*
X126433334Y-106233333D01*
X126433334Y-106700000D01*
G37*
G36*
X128766667Y-111833333D02*
G01*
X128766667Y-112300000D01*
X128300000Y-112300000D01*
X127833334Y-112300000D01*
X127833334Y-111833333D01*
X127833334Y-111366666D01*
X128300000Y-111366666D01*
X128766667Y-111366666D01*
X128766667Y-111833333D01*
G37*
G36*
X135300000Y-100400000D02*
G01*
X135300000Y-101100000D01*
X134600000Y-101100000D01*
X133900000Y-101100000D01*
X133900000Y-100400000D01*
X133900000Y-99700000D01*
X134600000Y-99700000D01*
X135300000Y-99700000D01*
X135300000Y-100400000D01*
G37*
G36*
X135300000Y-112533333D02*
G01*
X135300000Y-113233333D01*
X134600000Y-113233333D01*
X133900000Y-113233333D01*
X133900000Y-112533333D01*
X133900000Y-111833333D01*
X134600000Y-111833333D01*
X135300000Y-111833333D01*
X135300000Y-112533333D01*
G37*
G36*
X121084427Y-109966695D02*
G01*
X121231455Y-109979476D01*
X121289680Y-110043612D01*
X121300000Y-110200000D01*
X121299971Y-110217760D01*
X121287190Y-110364787D01*
X121223055Y-110423013D01*
X121066667Y-110433333D01*
X121048907Y-110433304D01*
X120901879Y-110420523D01*
X120843654Y-110356387D01*
X120833334Y-110200000D01*
X120833363Y-110182239D01*
X120846144Y-110035212D01*
X120910280Y-109976986D01*
X121066667Y-109966666D01*
X121084427Y-109966695D01*
G37*
G36*
X123884427Y-110900029D02*
G01*
X124031455Y-110912810D01*
X124089680Y-110976945D01*
X124100000Y-111133333D01*
X124099971Y-111151093D01*
X124087190Y-111298121D01*
X124023055Y-111356346D01*
X123866667Y-111366666D01*
X123848907Y-111366637D01*
X123701879Y-111353856D01*
X123643654Y-111289720D01*
X123633334Y-111133333D01*
X123633363Y-111115573D01*
X123646144Y-110968545D01*
X123710280Y-110910320D01*
X123866667Y-110900000D01*
X123884427Y-110900029D01*
G37*
G36*
X125751094Y-107633362D02*
G01*
X125898122Y-107646143D01*
X125956347Y-107710279D01*
X125966667Y-107866666D01*
X125966638Y-107884426D01*
X125953857Y-108031454D01*
X125889721Y-108089679D01*
X125733334Y-108100000D01*
X125715574Y-108099970D01*
X125568546Y-108087189D01*
X125510321Y-108023054D01*
X125500000Y-107866666D01*
X125500030Y-107848906D01*
X125512811Y-107701878D01*
X125576946Y-107643653D01*
X125733334Y-107633333D01*
X125751094Y-107633362D01*
G37*
G36*
X129951094Y-100633362D02*
G01*
X130098122Y-100646143D01*
X130156347Y-100710279D01*
X130166667Y-100866666D01*
X130166638Y-100884426D01*
X130153857Y-101031454D01*
X130089721Y-101089679D01*
X129933334Y-101100000D01*
X129915574Y-101099970D01*
X129768546Y-101087189D01*
X129710321Y-101023054D01*
X129700000Y-100866666D01*
X129700030Y-100848906D01*
X129712811Y-100701878D01*
X129776946Y-100643653D01*
X129933334Y-100633333D01*
X129951094Y-100633362D01*
G37*
G36*
X133217761Y-105300029D02*
G01*
X133364788Y-105312810D01*
X133423014Y-105376945D01*
X133433334Y-105533333D01*
X133433305Y-105551093D01*
X133420524Y-105698121D01*
X133356388Y-105756346D01*
X133200000Y-105766666D01*
X133182240Y-105766637D01*
X133035213Y-105753856D01*
X132976987Y-105689720D01*
X132966667Y-105533333D01*
X132966696Y-105515573D01*
X132979477Y-105368545D01*
X133043613Y-105310320D01*
X133200000Y-105300000D01*
X133217761Y-105300029D01*
G37*
G36*
X133217761Y-108100029D02*
G01*
X133364788Y-108112810D01*
X133423014Y-108176945D01*
X133433334Y-108333333D01*
X133433305Y-108351093D01*
X133420524Y-108498121D01*
X133356388Y-108556346D01*
X133200000Y-108566666D01*
X133182240Y-108566637D01*
X133035213Y-108553856D01*
X132976987Y-108489720D01*
X132966667Y-108333333D01*
X132966696Y-108315573D01*
X132979477Y-108168545D01*
X133043613Y-108110320D01*
X133200000Y-108100000D01*
X133217761Y-108100029D01*
G37*
G36*
X133217761Y-109966695D02*
G01*
X133364788Y-109979476D01*
X133423014Y-110043612D01*
X133433334Y-110200000D01*
X133433305Y-110217760D01*
X133420524Y-110364787D01*
X133356388Y-110423013D01*
X133200000Y-110433333D01*
X133182240Y-110433304D01*
X133035213Y-110420523D01*
X132976987Y-110356387D01*
X132966667Y-110200000D01*
X132966696Y-110182239D01*
X132979477Y-110035212D01*
X133043613Y-109976986D01*
X133200000Y-109966666D01*
X133217761Y-109966695D01*
G37*
G36*
X124100000Y-102033333D02*
G01*
X122466667Y-102033333D01*
X120833334Y-102033333D01*
X120833334Y-100400000D01*
X120833334Y-99233333D01*
X121300000Y-99233333D01*
X121300000Y-100400000D01*
X121300000Y-101566666D01*
X122466667Y-101566666D01*
X123633334Y-101566666D01*
X123633334Y-100400000D01*
X123633334Y-99233333D01*
X122466667Y-99233333D01*
X121300000Y-99233333D01*
X120833334Y-99233333D01*
X120833334Y-98766666D01*
X122466667Y-98766666D01*
X124100000Y-98766666D01*
X124100000Y-100400000D01*
X124100000Y-102033333D01*
G37*
G36*
X136233334Y-102033333D02*
G01*
X134600000Y-102033333D01*
X132966667Y-102033333D01*
X132966667Y-100400000D01*
X132966667Y-99233333D01*
X133433334Y-99233333D01*
X133433334Y-100400000D01*
X133433334Y-101566666D01*
X134600000Y-101566666D01*
X135766667Y-101566666D01*
X135766667Y-100400000D01*
X135766667Y-99233333D01*
X134600000Y-99233333D01*
X133433334Y-99233333D01*
X132966667Y-99233333D01*
X132966667Y-98766666D01*
X134600000Y-98766666D01*
X136233334Y-98766666D01*
X136233334Y-100400000D01*
X136233334Y-102033333D01*
G37*
G36*
X136233334Y-114166666D02*
G01*
X134600000Y-114166666D01*
X132966667Y-114166666D01*
X132966667Y-112533333D01*
X132966667Y-111366666D01*
X133433334Y-111366666D01*
X133433334Y-112533333D01*
X133433334Y-113700000D01*
X134600000Y-113700000D01*
X135766667Y-113700000D01*
X135766667Y-112533333D01*
X135766667Y-111366666D01*
X134600000Y-111366666D01*
X133433334Y-111366666D01*
X132966667Y-111366666D01*
X132966667Y-110900000D01*
X134600000Y-110900000D01*
X136233334Y-110900000D01*
X136233334Y-112533333D01*
X136233334Y-114166666D01*
G37*
G36*
X121551094Y-105300029D02*
G01*
X121698122Y-105312810D01*
X121756347Y-105376945D01*
X121766667Y-105533333D01*
X121766638Y-105551093D01*
X121753857Y-105698121D01*
X121689721Y-105756346D01*
X121533334Y-105766666D01*
X121300000Y-105766666D01*
X121300000Y-106233333D01*
X121300000Y-106700000D01*
X121533334Y-106700000D01*
X121551094Y-106700029D01*
X121698122Y-106712810D01*
X121756347Y-106776945D01*
X121766667Y-106933333D01*
X121766667Y-107166666D01*
X121300000Y-107166666D01*
X120833334Y-107166666D01*
X120833334Y-106466666D01*
X120833334Y-105766666D01*
X121066667Y-105766666D01*
X121084427Y-105766637D01*
X121231455Y-105753856D01*
X121289680Y-105689720D01*
X121300000Y-105533333D01*
X121300030Y-105515573D01*
X121312811Y-105368545D01*
X121376946Y-105310320D01*
X121533334Y-105300000D01*
X121551094Y-105300029D01*
G37*
G36*
X122233334Y-102733333D02*
G01*
X122233305Y-102751093D01*
X122220524Y-102898121D01*
X122156388Y-102956346D01*
X122000000Y-102966666D01*
X121982240Y-102966695D01*
X121835213Y-102979476D01*
X121776987Y-103043612D01*
X121766667Y-103200000D01*
X121766638Y-103217760D01*
X121753857Y-103364787D01*
X121689721Y-103423013D01*
X121533334Y-103433333D01*
X121515574Y-103433362D01*
X121368546Y-103446143D01*
X121310321Y-103510279D01*
X121300000Y-103666666D01*
X121299971Y-103684426D01*
X121287190Y-103831454D01*
X121223055Y-103889679D01*
X121066667Y-103900000D01*
X121048907Y-103899970D01*
X120901879Y-103887189D01*
X120843654Y-103823054D01*
X120833334Y-103666666D01*
X120833363Y-103648906D01*
X120846144Y-103501878D01*
X120910280Y-103443653D01*
X121066667Y-103433333D01*
X121300000Y-103433333D01*
X121300000Y-102966666D01*
X121300000Y-102500000D01*
X121766667Y-102500000D01*
X122233334Y-102500000D01*
X122233334Y-102733333D01*
G37*
G36*
X134151094Y-105300029D02*
G01*
X134298122Y-105312810D01*
X134356347Y-105376945D01*
X134366667Y-105533333D01*
X134366696Y-105551093D01*
X134379477Y-105698121D01*
X134443613Y-105756346D01*
X134600000Y-105766666D01*
X134617761Y-105766637D01*
X134764788Y-105753856D01*
X134823014Y-105689720D01*
X134833334Y-105533333D01*
X134833363Y-105515573D01*
X134846144Y-105368545D01*
X134910280Y-105310320D01*
X135066667Y-105300000D01*
X135300000Y-105300000D01*
X135300000Y-105766666D01*
X135300000Y-106233333D01*
X135533334Y-106233333D01*
X135551094Y-106233362D01*
X135698122Y-106246143D01*
X135756347Y-106310279D01*
X135766667Y-106466666D01*
X135766667Y-106700000D01*
X135300000Y-106700000D01*
X134833334Y-106700000D01*
X134833334Y-106466666D01*
X134833334Y-106233333D01*
X134366667Y-106233333D01*
X133900000Y-106233333D01*
X133900000Y-105766666D01*
X133900000Y-105300000D01*
X134133334Y-105300000D01*
X134151094Y-105300029D01*
G37*
G36*
X128300000Y-109033333D02*
G01*
X128300000Y-109500000D01*
X128533334Y-109500000D01*
X128766667Y-109500000D01*
X128766667Y-109966666D01*
X128766667Y-110433333D01*
X129000000Y-110433333D01*
X129017761Y-110433362D01*
X129164788Y-110446143D01*
X129223014Y-110510279D01*
X129233334Y-110666666D01*
X129233363Y-110684426D01*
X129246144Y-110831454D01*
X129310280Y-110889679D01*
X129466667Y-110900000D01*
X129484427Y-110899970D01*
X129631455Y-110887189D01*
X129689680Y-110823054D01*
X129700000Y-110666666D01*
X129700030Y-110648906D01*
X129712811Y-110501878D01*
X129776946Y-110443653D01*
X129933334Y-110433333D01*
X130166667Y-110433333D01*
X130166667Y-110900000D01*
X130166667Y-111366666D01*
X129700000Y-111366666D01*
X129233334Y-111366666D01*
X129233334Y-111133333D01*
X129233334Y-110900000D01*
X128066667Y-110900000D01*
X126900000Y-110900000D01*
X126900000Y-110666666D01*
X126900000Y-110433333D01*
X127366667Y-110433333D01*
X127833334Y-110433333D01*
X127833334Y-109500000D01*
X127833334Y-108566666D01*
X128066667Y-108566666D01*
X128300000Y-108566666D01*
X128300000Y-109033333D01*
G37*
G36*
X130884427Y-101100029D02*
G01*
X131031455Y-101112810D01*
X131089680Y-101176945D01*
X131100000Y-101333333D01*
X131100030Y-101351093D01*
X131112811Y-101498121D01*
X131176946Y-101556346D01*
X131333334Y-101566666D01*
X131351094Y-101566695D01*
X131498122Y-101579476D01*
X131556347Y-101643612D01*
X131566667Y-101800000D01*
X131566638Y-101817760D01*
X131553857Y-101964787D01*
X131489721Y-102023013D01*
X131333334Y-102033333D01*
X131315574Y-102033304D01*
X131168546Y-102020523D01*
X131110321Y-101956387D01*
X131100000Y-101800000D01*
X131099971Y-101782239D01*
X131087190Y-101635212D01*
X131023055Y-101576986D01*
X130866667Y-101566666D01*
X130633334Y-101566666D01*
X130633334Y-102033333D01*
X130633334Y-102500000D01*
X130166667Y-102500000D01*
X129700000Y-102500000D01*
X129700000Y-102733333D01*
X129700030Y-102751093D01*
X129712811Y-102898121D01*
X129776946Y-102956346D01*
X129933334Y-102966666D01*
X129951094Y-102966695D01*
X130098122Y-102979476D01*
X130156347Y-103043612D01*
X130166667Y-103200000D01*
X130166667Y-103433333D01*
X129700000Y-103433333D01*
X129233334Y-103433333D01*
X129233334Y-102966666D01*
X129233334Y-102500000D01*
X129466667Y-102500000D01*
X129484427Y-102499970D01*
X129631455Y-102487189D01*
X129689680Y-102423054D01*
X129700000Y-102266666D01*
X129699971Y-102248906D01*
X129687190Y-102101878D01*
X129623055Y-102043653D01*
X129466667Y-102033333D01*
X129448907Y-102033304D01*
X129301879Y-102020523D01*
X129243654Y-101956387D01*
X129233334Y-101800000D01*
X129233305Y-101782239D01*
X129220524Y-101635212D01*
X129156388Y-101576986D01*
X129000000Y-101566666D01*
X128982240Y-101566695D01*
X128835213Y-101579476D01*
X128776987Y-101643612D01*
X128766667Y-101800000D01*
X128766638Y-101817760D01*
X128753857Y-101964787D01*
X128689721Y-102023013D01*
X128533334Y-102033333D01*
X128515574Y-102033304D01*
X128368546Y-102020523D01*
X128310321Y-101956387D01*
X128300000Y-101800000D01*
X128300030Y-101782239D01*
X128312811Y-101635212D01*
X128376946Y-101576986D01*
X128533334Y-101566666D01*
X128551094Y-101566637D01*
X128698122Y-101553856D01*
X128756347Y-101489720D01*
X128766667Y-101333333D01*
X128766696Y-101315573D01*
X128779477Y-101168545D01*
X128843613Y-101110320D01*
X129000000Y-101100000D01*
X129017761Y-101100029D01*
X129164788Y-101112810D01*
X129223014Y-101176945D01*
X129233334Y-101333333D01*
X129233363Y-101351093D01*
X129246144Y-101498121D01*
X129310280Y-101556346D01*
X129466667Y-101566666D01*
X129484427Y-101566695D01*
X129631455Y-101579476D01*
X129689680Y-101643612D01*
X129700000Y-101800000D01*
X129700030Y-101817760D01*
X129712811Y-101964787D01*
X129776946Y-102023013D01*
X129933334Y-102033333D01*
X129951094Y-102033304D01*
X130098122Y-102020523D01*
X130156347Y-101956387D01*
X130166667Y-101800000D01*
X130166696Y-101782239D01*
X130179477Y-101635212D01*
X130243613Y-101576986D01*
X130400000Y-101566666D01*
X130417761Y-101566637D01*
X130564788Y-101553856D01*
X130623014Y-101489720D01*
X130633334Y-101333333D01*
X130633363Y-101315573D01*
X130646144Y-101168545D01*
X130710280Y-101110320D01*
X130866667Y-101100000D01*
X130884427Y-101100029D01*
G37*
G36*
X134833334Y-107166666D02*
G01*
X135300000Y-107166666D01*
X135300000Y-107400000D01*
X135299971Y-107417760D01*
X135287190Y-107564787D01*
X135223055Y-107623013D01*
X135066667Y-107633333D01*
X134833334Y-107633333D01*
X134833334Y-108100000D01*
X134833334Y-108566666D01*
X135066667Y-108566666D01*
X135084427Y-108566637D01*
X135231455Y-108553856D01*
X135289680Y-108489720D01*
X135300000Y-108333333D01*
X135300030Y-108315573D01*
X135312811Y-108168545D01*
X135376946Y-108110320D01*
X135533334Y-108100000D01*
X135551094Y-108100029D01*
X135698122Y-108112810D01*
X135756347Y-108176945D01*
X135766667Y-108333333D01*
X135766638Y-108351093D01*
X135753857Y-108498121D01*
X135689721Y-108556346D01*
X135533334Y-108566666D01*
X135515574Y-108566695D01*
X135368546Y-108579476D01*
X135310321Y-108643612D01*
X135300000Y-108800000D01*
X135300000Y-109033333D01*
X135766667Y-109033333D01*
X136233334Y-109033333D01*
X136233334Y-109266666D01*
X136233305Y-109284426D01*
X136220524Y-109431454D01*
X136156388Y-109489679D01*
X136000000Y-109500000D01*
X135982240Y-109500029D01*
X135835213Y-109512810D01*
X135776987Y-109576945D01*
X135766667Y-109733333D01*
X135766696Y-109751093D01*
X135779477Y-109898121D01*
X135843613Y-109956346D01*
X136000000Y-109966666D01*
X136017761Y-109966695D01*
X136164788Y-109979476D01*
X136223014Y-110043612D01*
X136233334Y-110200000D01*
X136233305Y-110217760D01*
X136220524Y-110364787D01*
X136156388Y-110423013D01*
X136000000Y-110433333D01*
X135982240Y-110433304D01*
X135835213Y-110420523D01*
X135776987Y-110356387D01*
X135766667Y-110200000D01*
X135766638Y-110182239D01*
X135753857Y-110035212D01*
X135689721Y-109976986D01*
X135533334Y-109966666D01*
X135515574Y-109966695D01*
X135368546Y-109979476D01*
X135310321Y-110043612D01*
X135300000Y-110200000D01*
X135299971Y-110217760D01*
X135287190Y-110364787D01*
X135223055Y-110423013D01*
X135066667Y-110433333D01*
X135048907Y-110433304D01*
X134901879Y-110420523D01*
X134843654Y-110356387D01*
X134833334Y-110200000D01*
X134833363Y-110182239D01*
X134846144Y-110035212D01*
X134910280Y-109976986D01*
X135066667Y-109966666D01*
X135084427Y-109966637D01*
X135231455Y-109953856D01*
X135289680Y-109889720D01*
X135300000Y-109733333D01*
X135300000Y-109500000D01*
X134833334Y-109500000D01*
X134366667Y-109500000D01*
X134366667Y-109966666D01*
X134366667Y-110433333D01*
X134133334Y-110433333D01*
X133900000Y-110433333D01*
X133900000Y-109966666D01*
X133900000Y-109500000D01*
X134133334Y-109500000D01*
X134151094Y-109499970D01*
X134298122Y-109487189D01*
X134356347Y-109423054D01*
X134366667Y-109266666D01*
X134366696Y-109248906D01*
X134379477Y-109101878D01*
X134443613Y-109043653D01*
X134600000Y-109033333D01*
X134617761Y-109033304D01*
X134764788Y-109020523D01*
X134823014Y-108956387D01*
X134833334Y-108800000D01*
X134833334Y-108566666D01*
X134366667Y-108566666D01*
X133900000Y-108566666D01*
X133900000Y-108100000D01*
X133900000Y-107633333D01*
X134133334Y-107633333D01*
X134151094Y-107633304D01*
X134298122Y-107620523D01*
X134356347Y-107556387D01*
X134366667Y-107400000D01*
X134366667Y-107166666D01*
X134833334Y-107166666D01*
G37*
G36*
X133900000Y-106466666D02*
G01*
X133900030Y-106484426D01*
X133912811Y-106631454D01*
X133976946Y-106689679D01*
X134133334Y-106700000D01*
X134151094Y-106700029D01*
X134298122Y-106712810D01*
X134356347Y-106776945D01*
X134366667Y-106933333D01*
X134366667Y-107166666D01*
X133900000Y-107166666D01*
X133433334Y-107166666D01*
X133433334Y-106933333D01*
X133433305Y-106915573D01*
X133420524Y-106768545D01*
X133356388Y-106710320D01*
X133200000Y-106700000D01*
X133182240Y-106699970D01*
X133035213Y-106687189D01*
X132976987Y-106623054D01*
X132966667Y-106466666D01*
X132966667Y-106233333D01*
X133433334Y-106233333D01*
X133900000Y-106233333D01*
X133900000Y-106466666D01*
G37*
G36*
X132500000Y-109500000D02*
G01*
X132033334Y-109500000D01*
X131566667Y-109500000D01*
X131566667Y-109733333D01*
X131566667Y-109966666D01*
X132033334Y-109966666D01*
X132500000Y-109966666D01*
X132500000Y-110200000D01*
X132500000Y-110666666D01*
X132500000Y-111366666D01*
X132266667Y-111366666D01*
X132248907Y-111366637D01*
X132101879Y-111353856D01*
X132043654Y-111289720D01*
X132033334Y-111133333D01*
X132033305Y-111115573D01*
X132020524Y-110968545D01*
X131956388Y-110910320D01*
X131800000Y-110900000D01*
X131566667Y-110900000D01*
X131566667Y-111366666D01*
X131566667Y-111833333D01*
X131800000Y-111833333D01*
X131817761Y-111833362D01*
X131964788Y-111846143D01*
X132023014Y-111910279D01*
X132033334Y-112066666D01*
X132033363Y-112084426D01*
X132046144Y-112231454D01*
X132110280Y-112289679D01*
X132266667Y-112300000D01*
X132284427Y-112300029D01*
X132431455Y-112312810D01*
X132489680Y-112376945D01*
X132500000Y-112533333D01*
X132500000Y-112766666D01*
X132033334Y-112766666D01*
X131566667Y-112766666D01*
X131566667Y-112533333D01*
X131566638Y-112515573D01*
X131553857Y-112368545D01*
X131489721Y-112310320D01*
X131333334Y-112300000D01*
X131315574Y-112299970D01*
X131168546Y-112287189D01*
X131110321Y-112223054D01*
X131100000Y-112066666D01*
X131099971Y-112048906D01*
X131087190Y-111901878D01*
X131023055Y-111843653D01*
X130866667Y-111833333D01*
X130633334Y-111833333D01*
X130633334Y-110900000D01*
X130633334Y-110200000D01*
X131100000Y-110200000D01*
X131100030Y-110217760D01*
X131112811Y-110364787D01*
X131176946Y-110423013D01*
X131333334Y-110433333D01*
X131351094Y-110433304D01*
X131498122Y-110420523D01*
X131556347Y-110356387D01*
X131566667Y-110200000D01*
X131566638Y-110182239D01*
X131553857Y-110035212D01*
X131489721Y-109976986D01*
X131333334Y-109966666D01*
X131315574Y-109966695D01*
X131168546Y-109979476D01*
X131110321Y-110043612D01*
X131100000Y-110200000D01*
X130633334Y-110200000D01*
X130633334Y-109966666D01*
X130166667Y-109966666D01*
X129700000Y-109966666D01*
X129700000Y-110200000D01*
X129699971Y-110217760D01*
X129687190Y-110364787D01*
X129623055Y-110423013D01*
X129466667Y-110433333D01*
X129233334Y-110433333D01*
X129233334Y-109966666D01*
X129233334Y-109500000D01*
X129000000Y-109500000D01*
X128766667Y-109500000D01*
X128766667Y-109266666D01*
X131100000Y-109266666D01*
X131100030Y-109284426D01*
X131112811Y-109431454D01*
X131176946Y-109489679D01*
X131333334Y-109500000D01*
X131351094Y-109499970D01*
X131498122Y-109487189D01*
X131556347Y-109423054D01*
X131566667Y-109266666D01*
X131566638Y-109248906D01*
X131553857Y-109101878D01*
X131489721Y-109043653D01*
X131333334Y-109033333D01*
X131315574Y-109033362D01*
X131168546Y-109046143D01*
X131110321Y-109110279D01*
X131100000Y-109266666D01*
X128766667Y-109266666D01*
X128766667Y-109033333D01*
X128766667Y-108566666D01*
X129000000Y-108566666D01*
X129017761Y-108566695D01*
X129164788Y-108579476D01*
X129223014Y-108643612D01*
X129233334Y-108800000D01*
X129233363Y-108817760D01*
X129246144Y-108964787D01*
X129310280Y-109023013D01*
X129466667Y-109033333D01*
X129484427Y-109033304D01*
X129631455Y-109020523D01*
X129689680Y-108956387D01*
X129700000Y-108800000D01*
X129699971Y-108782239D01*
X129687190Y-108635212D01*
X129623055Y-108576986D01*
X129466667Y-108566666D01*
X129448907Y-108566637D01*
X129301879Y-108553856D01*
X129243654Y-108489720D01*
X129233334Y-108333333D01*
X129233363Y-108315573D01*
X129246144Y-108168545D01*
X129310280Y-108110320D01*
X129466667Y-108100000D01*
X129700000Y-108100000D01*
X129700000Y-107400000D01*
X129700000Y-106700000D01*
X129466667Y-106700000D01*
X129448907Y-106699970D01*
X129301879Y-106687189D01*
X129243654Y-106623054D01*
X129233334Y-106466666D01*
X129233334Y-106233333D01*
X129700000Y-106233333D01*
X130166667Y-106233333D01*
X130166667Y-107166666D01*
X130166667Y-108100000D01*
X130400000Y-108100000D01*
X130417761Y-108099970D01*
X130564788Y-108087189D01*
X130623014Y-108023054D01*
X130633334Y-107866666D01*
X130633363Y-107848906D01*
X130646144Y-107701878D01*
X130710280Y-107643653D01*
X130866667Y-107633333D01*
X131100000Y-107633333D01*
X131100000Y-108100000D01*
X131100000Y-108566666D01*
X131333334Y-108566666D01*
X131566667Y-108566666D01*
X131566667Y-107633333D01*
X131566667Y-106700000D01*
X132266667Y-106700000D01*
X132966667Y-106700000D01*
X132966667Y-106933333D01*
X132966696Y-106951093D01*
X132979477Y-107098121D01*
X133043613Y-107156346D01*
X133200000Y-107166666D01*
X133217761Y-107166695D01*
X133364788Y-107179476D01*
X133423014Y-107243612D01*
X133433334Y-107400000D01*
X133433334Y-107633333D01*
X132966667Y-107633333D01*
X132500000Y-107633333D01*
X132500000Y-107400000D01*
X132499971Y-107382239D01*
X132487190Y-107235212D01*
X132423055Y-107176986D01*
X132266667Y-107166666D01*
X132248907Y-107166695D01*
X132101879Y-107179476D01*
X132043654Y-107243612D01*
X132033334Y-107400000D01*
X132033363Y-107417760D01*
X132046144Y-107564787D01*
X132110280Y-107623013D01*
X132266667Y-107633333D01*
X132500000Y-107633333D01*
X132500000Y-108100000D01*
X132500000Y-108566666D01*
X132266667Y-108566666D01*
X132248907Y-108566695D01*
X132101879Y-108579476D01*
X132043654Y-108643612D01*
X132033334Y-108800000D01*
X132033363Y-108817760D01*
X132046144Y-108964787D01*
X132110280Y-109023013D01*
X132266667Y-109033333D01*
X132284427Y-109033304D01*
X132431455Y-109020523D01*
X132489680Y-108956387D01*
X132500000Y-108800000D01*
X132500030Y-108782239D01*
X132512811Y-108635212D01*
X132576946Y-108576986D01*
X132733334Y-108566666D01*
X132751094Y-108566695D01*
X132898122Y-108579476D01*
X132956347Y-108643612D01*
X132966667Y-108800000D01*
X132966696Y-108817760D01*
X132979477Y-108964787D01*
X133043613Y-109023013D01*
X133200000Y-109033333D01*
X133217761Y-109033304D01*
X133364788Y-109020523D01*
X133423014Y-108956387D01*
X133433334Y-108800000D01*
X133433363Y-108782239D01*
X133446144Y-108635212D01*
X133510280Y-108576986D01*
X133666667Y-108566666D01*
X133900000Y-108566666D01*
X133900000Y-108800000D01*
X133899971Y-108817760D01*
X133887190Y-108964787D01*
X133823055Y-109023013D01*
X133666667Y-109033333D01*
X133648907Y-109033362D01*
X133501879Y-109046143D01*
X133443654Y-109110279D01*
X133433334Y-109266666D01*
X133433305Y-109284426D01*
X133420524Y-109431454D01*
X133356388Y-109489679D01*
X133200000Y-109500000D01*
X133182240Y-109499970D01*
X133035213Y-109487189D01*
X132976987Y-109423054D01*
X132966667Y-109266666D01*
X132966638Y-109248906D01*
X132953857Y-109101878D01*
X132889721Y-109043653D01*
X132733334Y-109033333D01*
X132715574Y-109033362D01*
X132568546Y-109046143D01*
X132510321Y-109110279D01*
X132500000Y-109266666D01*
X132500000Y-109500000D01*
G37*
G36*
X128766667Y-107166666D02*
G01*
X129000000Y-107166666D01*
X129017761Y-107166695D01*
X129164788Y-107179476D01*
X129223014Y-107243612D01*
X129233334Y-107400000D01*
X129233305Y-107417760D01*
X129220524Y-107564787D01*
X129156388Y-107623013D01*
X129000000Y-107633333D01*
X128766667Y-107633333D01*
X128766667Y-108100000D01*
X128766667Y-108566666D01*
X128533334Y-108566666D01*
X128300000Y-108566666D01*
X128300000Y-108100000D01*
X128300000Y-107633333D01*
X128066667Y-107633333D01*
X128048907Y-107633304D01*
X127901879Y-107620523D01*
X127843654Y-107556387D01*
X127833334Y-107400000D01*
X127833334Y-107166666D01*
X127366667Y-107166666D01*
X126900000Y-107166666D01*
X126900000Y-106933333D01*
X127833334Y-106933333D01*
X127833363Y-106951093D01*
X127846144Y-107098121D01*
X127910280Y-107156346D01*
X128066667Y-107166666D01*
X128084427Y-107166637D01*
X128231455Y-107153856D01*
X128289680Y-107089720D01*
X128300000Y-106933333D01*
X128299971Y-106915573D01*
X128287190Y-106768545D01*
X128223055Y-106710320D01*
X128066667Y-106700000D01*
X128048907Y-106700029D01*
X127901879Y-106712810D01*
X127843654Y-106776945D01*
X127833334Y-106933333D01*
X126900000Y-106933333D01*
X126900000Y-106700000D01*
X126900000Y-106233333D01*
X127133334Y-106233333D01*
X127151094Y-106233362D01*
X127298122Y-106246143D01*
X127356347Y-106310279D01*
X127366667Y-106466666D01*
X127366696Y-106484426D01*
X127379477Y-106631454D01*
X127443613Y-106689679D01*
X127600000Y-106700000D01*
X127617761Y-106699970D01*
X127764788Y-106687189D01*
X127823014Y-106623054D01*
X127833334Y-106466666D01*
X127833363Y-106448906D01*
X127846144Y-106301878D01*
X127910280Y-106243653D01*
X128066667Y-106233333D01*
X128084427Y-106233304D01*
X128231455Y-106220523D01*
X128289680Y-106156387D01*
X128300000Y-106000000D01*
X128300030Y-105982239D01*
X128312811Y-105835212D01*
X128376946Y-105776986D01*
X128533334Y-105766666D01*
X128766667Y-105766666D01*
X128766667Y-106466666D01*
X128766667Y-106933333D01*
X128766667Y-107166666D01*
G37*
G36*
X128766667Y-104833333D02*
G01*
X129000000Y-104833333D01*
X129233334Y-104833333D01*
X129233334Y-104366666D01*
X129700000Y-104366666D01*
X129700000Y-104833333D01*
X129700000Y-105300000D01*
X129933334Y-105300000D01*
X130166667Y-105300000D01*
X130166667Y-104833333D01*
X130166667Y-104366666D01*
X129933334Y-104366666D01*
X129700000Y-104366666D01*
X129233334Y-104366666D01*
X129233334Y-103900000D01*
X129700000Y-103900000D01*
X130166667Y-103900000D01*
X130166667Y-104133333D01*
X130166696Y-104151093D01*
X130179477Y-104298121D01*
X130243613Y-104356346D01*
X130400000Y-104366666D01*
X130417761Y-104366695D01*
X130564788Y-104379476D01*
X130623014Y-104443612D01*
X130633334Y-104600000D01*
X130633334Y-104833333D01*
X131333334Y-104833333D01*
X132033334Y-104833333D01*
X132033334Y-105300000D01*
X132033334Y-105766666D01*
X132266667Y-105766666D01*
X132284427Y-105766695D01*
X132431455Y-105779476D01*
X132489680Y-105843612D01*
X132500000Y-106000000D01*
X132500000Y-106233333D01*
X132033334Y-106233333D01*
X131566667Y-106233333D01*
X131566667Y-106000000D01*
X131566638Y-105982239D01*
X131553857Y-105835212D01*
X131489721Y-105776986D01*
X131333334Y-105766666D01*
X131315574Y-105766637D01*
X131168546Y-105753856D01*
X131110321Y-105689720D01*
X131100000Y-105533333D01*
X131099971Y-105515573D01*
X131087190Y-105368545D01*
X131023055Y-105310320D01*
X130866667Y-105300000D01*
X130633334Y-105300000D01*
X130633334Y-105766666D01*
X130633334Y-106233333D01*
X130866667Y-106233333D01*
X130884427Y-106233362D01*
X131031455Y-106246143D01*
X131089680Y-106310279D01*
X131100000Y-106466666D01*
X131099971Y-106484426D01*
X131087190Y-106631454D01*
X131023055Y-106689679D01*
X130866667Y-106700000D01*
X130848907Y-106699970D01*
X130701879Y-106687189D01*
X130643654Y-106623054D01*
X130633334Y-106466666D01*
X130633305Y-106448906D01*
X130620524Y-106301878D01*
X130556388Y-106243653D01*
X130400000Y-106233333D01*
X130382240Y-106233304D01*
X130235213Y-106220523D01*
X130176987Y-106156387D01*
X130166667Y-106000000D01*
X130166667Y-105766666D01*
X129700000Y-105766666D01*
X129233334Y-105766666D01*
X129233334Y-105533333D01*
X129233305Y-105515573D01*
X129220524Y-105368545D01*
X129156388Y-105310320D01*
X129000000Y-105300000D01*
X128982240Y-105299970D01*
X128835213Y-105287189D01*
X128776987Y-105223054D01*
X128766667Y-105066666D01*
X128766638Y-105048906D01*
X128753857Y-104901878D01*
X128689721Y-104843653D01*
X128533334Y-104833333D01*
X128515574Y-104833362D01*
X128368546Y-104846143D01*
X128310321Y-104910279D01*
X128300000Y-105066666D01*
X128299971Y-105084426D01*
X128287190Y-105231454D01*
X128223055Y-105289679D01*
X128066667Y-105300000D01*
X128048907Y-105299970D01*
X127901879Y-105287189D01*
X127843654Y-105223054D01*
X127833334Y-105066666D01*
X127833305Y-105048906D01*
X127820524Y-104901878D01*
X127756388Y-104843653D01*
X127600000Y-104833333D01*
X127582240Y-104833362D01*
X127435213Y-104846143D01*
X127376987Y-104910279D01*
X127366667Y-105066666D01*
X127366638Y-105084426D01*
X127353857Y-105231454D01*
X127289721Y-105289679D01*
X127133334Y-105300000D01*
X126900000Y-105300000D01*
X126900000Y-105766666D01*
X126900000Y-106233333D01*
X126666667Y-106233333D01*
X126433334Y-106233333D01*
X126433334Y-106000000D01*
X126433334Y-105766666D01*
X125733334Y-105766666D01*
X125033334Y-105766666D01*
X125033334Y-105533333D01*
X125033363Y-105515573D01*
X125046144Y-105368545D01*
X125110280Y-105310320D01*
X125266667Y-105300000D01*
X125284427Y-105299970D01*
X125431455Y-105287189D01*
X125489680Y-105223054D01*
X125500000Y-105066666D01*
X126433334Y-105066666D01*
X126433363Y-105084426D01*
X126446144Y-105231454D01*
X126510280Y-105289679D01*
X126666667Y-105300000D01*
X126684427Y-105299970D01*
X126831455Y-105287189D01*
X126889680Y-105223054D01*
X126900000Y-105066666D01*
X126899971Y-105048906D01*
X126887190Y-104901878D01*
X126823055Y-104843653D01*
X126666667Y-104833333D01*
X126648907Y-104833362D01*
X126501879Y-104846143D01*
X126443654Y-104910279D01*
X126433334Y-105066666D01*
X125500000Y-105066666D01*
X125500000Y-104833333D01*
X125966667Y-104833333D01*
X126433334Y-104833333D01*
X126433334Y-104600000D01*
X126433363Y-104582239D01*
X126446144Y-104435212D01*
X126510280Y-104376986D01*
X126666667Y-104366666D01*
X126684427Y-104366695D01*
X126831455Y-104379476D01*
X126889680Y-104443612D01*
X126900000Y-104600000D01*
X126900030Y-104617760D01*
X126912811Y-104764787D01*
X126976946Y-104823013D01*
X127133334Y-104833333D01*
X127366667Y-104833333D01*
X127366667Y-104366666D01*
X127366667Y-104133333D01*
X127833334Y-104133333D01*
X127833363Y-104151093D01*
X127846144Y-104298121D01*
X127910280Y-104356346D01*
X128066667Y-104366666D01*
X128084427Y-104366637D01*
X128231455Y-104353856D01*
X128289680Y-104289720D01*
X128300000Y-104133333D01*
X128299971Y-104115573D01*
X128287190Y-103968545D01*
X128223055Y-103910320D01*
X128066667Y-103900000D01*
X128048907Y-103900029D01*
X127901879Y-103912810D01*
X127843654Y-103976945D01*
X127833334Y-104133333D01*
X127366667Y-104133333D01*
X127366667Y-103900000D01*
X126900000Y-103900000D01*
X126433334Y-103900000D01*
X126433334Y-103666666D01*
X126433305Y-103648906D01*
X126420524Y-103501878D01*
X126356388Y-103443653D01*
X126200000Y-103433333D01*
X126182240Y-103433304D01*
X126035213Y-103420523D01*
X125976987Y-103356387D01*
X125966667Y-103200000D01*
X125966696Y-103182239D01*
X125979477Y-103035212D01*
X126043613Y-102976986D01*
X126200000Y-102966666D01*
X126217761Y-102966695D01*
X126364788Y-102979476D01*
X126423014Y-103043612D01*
X126433334Y-103200000D01*
X126433334Y-103433333D01*
X126900000Y-103433333D01*
X127366667Y-103433333D01*
X127366667Y-103666666D01*
X127366696Y-103684426D01*
X127379477Y-103831454D01*
X127443613Y-103889679D01*
X127600000Y-103900000D01*
X127833334Y-103900000D01*
X127833334Y-103433333D01*
X127833334Y-102966666D01*
X127600000Y-102966666D01*
X127582240Y-102966637D01*
X127435213Y-102953856D01*
X127376987Y-102889720D01*
X127366667Y-102733333D01*
X127366667Y-102500000D01*
X128066667Y-102500000D01*
X128766667Y-102500000D01*
X128766667Y-102733333D01*
X128766638Y-102751093D01*
X128753857Y-102898121D01*
X128689721Y-102956346D01*
X128533334Y-102966666D01*
X128515574Y-102966695D01*
X128368546Y-102979476D01*
X128310321Y-103043612D01*
X128300000Y-103200000D01*
X128300030Y-103217760D01*
X128312811Y-103364787D01*
X128376946Y-103423013D01*
X128533334Y-103433333D01*
X128766667Y-103433333D01*
X128766667Y-104133333D01*
X128766667Y-104833333D01*
G37*
G36*
X129233334Y-100166666D02*
G01*
X129466667Y-100166666D01*
X129700000Y-100166666D01*
X129700000Y-99700000D01*
X129700000Y-99233333D01*
X129933334Y-99233333D01*
X129951094Y-99233304D01*
X130098122Y-99220523D01*
X130156347Y-99156387D01*
X130166667Y-99000000D01*
X130166696Y-98982239D01*
X130179477Y-98835212D01*
X130243613Y-98776986D01*
X130400000Y-98766666D01*
X130417761Y-98766695D01*
X130564788Y-98779476D01*
X130623014Y-98843612D01*
X130633334Y-99000000D01*
X130633363Y-99017760D01*
X130646144Y-99164787D01*
X130710280Y-99223013D01*
X130866667Y-99233333D01*
X130884427Y-99233362D01*
X131031455Y-99246143D01*
X131089680Y-99310279D01*
X131100000Y-99466666D01*
X131100000Y-99700000D01*
X131566667Y-99700000D01*
X132033334Y-99700000D01*
X132033334Y-99466666D01*
X132033305Y-99448906D01*
X132020524Y-99301878D01*
X131956388Y-99243653D01*
X131800000Y-99233333D01*
X131782240Y-99233304D01*
X131635213Y-99220523D01*
X131576987Y-99156387D01*
X131566667Y-99000000D01*
X131566696Y-98982239D01*
X131579477Y-98835212D01*
X131643613Y-98776986D01*
X131800000Y-98766666D01*
X131817761Y-98766695D01*
X131964788Y-98779476D01*
X132023014Y-98843612D01*
X132033334Y-99000000D01*
X132033363Y-99017760D01*
X132046144Y-99164787D01*
X132110280Y-99223013D01*
X132266667Y-99233333D01*
X132500000Y-99233333D01*
X132500000Y-99700000D01*
X132500000Y-100166666D01*
X132266667Y-100166666D01*
X132248907Y-100166695D01*
X132101879Y-100179476D01*
X132043654Y-100243612D01*
X132033334Y-100400000D01*
X132033363Y-100417760D01*
X132046144Y-100564787D01*
X132110280Y-100623013D01*
X132266667Y-100633333D01*
X132500000Y-100633333D01*
X132500000Y-101566666D01*
X132500000Y-102500000D01*
X132033334Y-102500000D01*
X131566667Y-102500000D01*
X131566667Y-102266666D01*
X131566696Y-102248906D01*
X131579477Y-102101878D01*
X131643613Y-102043653D01*
X131800000Y-102033333D01*
X131817761Y-102033304D01*
X131964788Y-102020523D01*
X132023014Y-101956387D01*
X132033334Y-101800000D01*
X132033305Y-101782239D01*
X132020524Y-101635212D01*
X131956388Y-101576986D01*
X131800000Y-101566666D01*
X131782240Y-101566637D01*
X131635213Y-101553856D01*
X131576987Y-101489720D01*
X131566667Y-101333333D01*
X131566696Y-101315573D01*
X131579477Y-101168545D01*
X131643613Y-101110320D01*
X131800000Y-101100000D01*
X131817761Y-101099970D01*
X131964788Y-101087189D01*
X132023014Y-101023054D01*
X132033334Y-100866666D01*
X132033334Y-100633333D01*
X131333334Y-100633333D01*
X130633334Y-100633333D01*
X130633334Y-100400000D01*
X130633334Y-100166666D01*
X130166667Y-100166666D01*
X129700000Y-100166666D01*
X129700000Y-100400000D01*
X129700000Y-100633333D01*
X129233334Y-100633333D01*
X128766667Y-100633333D01*
X128766667Y-100866666D01*
X128766638Y-100884426D01*
X128753857Y-101031454D01*
X128689721Y-101089679D01*
X128533334Y-101100000D01*
X128300000Y-101100000D01*
X128300000Y-100633333D01*
X128300000Y-100166666D01*
X127833334Y-100166666D01*
X127366667Y-100166666D01*
X127366667Y-100633333D01*
X127366667Y-100866666D01*
X127366667Y-101100000D01*
X127833334Y-101100000D01*
X128300000Y-101100000D01*
X128300000Y-101333333D01*
X128299971Y-101351093D01*
X128287190Y-101498121D01*
X128223055Y-101556346D01*
X128066667Y-101566666D01*
X128048907Y-101566695D01*
X127901879Y-101579476D01*
X127843654Y-101643612D01*
X127833334Y-101800000D01*
X127833305Y-101817760D01*
X127820524Y-101964787D01*
X127756388Y-102023013D01*
X127600000Y-102033333D01*
X127582240Y-102033304D01*
X127435213Y-102020523D01*
X127376987Y-101956387D01*
X127366667Y-101800000D01*
X127366638Y-101782239D01*
X127353857Y-101635212D01*
X127289721Y-101576986D01*
X127133334Y-101566666D01*
X127115574Y-101566695D01*
X126968546Y-101579476D01*
X126910321Y-101643612D01*
X126900000Y-101800000D01*
X126900030Y-101817760D01*
X126912811Y-101964787D01*
X126976946Y-102023013D01*
X127133334Y-102033333D01*
X127151094Y-102033362D01*
X127298122Y-102046143D01*
X127356347Y-102110279D01*
X127366667Y-102266666D01*
X127366638Y-102284426D01*
X127353857Y-102431454D01*
X127289721Y-102489679D01*
X127133334Y-102500000D01*
X127115574Y-102500029D01*
X126968546Y-102512810D01*
X126910321Y-102576945D01*
X126900000Y-102733333D01*
X126899971Y-102751093D01*
X126887190Y-102898121D01*
X126823055Y-102956346D01*
X126666667Y-102966666D01*
X126433334Y-102966666D01*
X126433334Y-102266666D01*
X126433334Y-101566666D01*
X126200000Y-101566666D01*
X125966667Y-101566666D01*
X125966667Y-102033333D01*
X125966667Y-102500000D01*
X125733334Y-102500000D01*
X125500000Y-102500000D01*
X125500000Y-102966666D01*
X125500000Y-103433333D01*
X125733334Y-103433333D01*
X125751094Y-103433362D01*
X125898122Y-103446143D01*
X125956347Y-103510279D01*
X125966667Y-103666666D01*
X125966696Y-103684426D01*
X125979477Y-103831454D01*
X126043613Y-103889679D01*
X126200000Y-103900000D01*
X126217761Y-103900029D01*
X126364788Y-103912810D01*
X126423014Y-103976945D01*
X126433334Y-104133333D01*
X126433334Y-104366666D01*
X125733334Y-104366666D01*
X125033334Y-104366666D01*
X125033334Y-104600000D01*
X125033334Y-104833333D01*
X124566667Y-104833333D01*
X124100000Y-104833333D01*
X124100000Y-105066666D01*
X124099971Y-105084426D01*
X124087190Y-105231454D01*
X124023055Y-105289679D01*
X123866667Y-105300000D01*
X123848907Y-105299970D01*
X123701879Y-105287189D01*
X123643654Y-105223054D01*
X123633334Y-105066666D01*
X123633305Y-105048906D01*
X123620524Y-104901878D01*
X123556388Y-104843653D01*
X123400000Y-104833333D01*
X123382240Y-104833362D01*
X123235213Y-104846143D01*
X123176987Y-104910279D01*
X123166667Y-105066666D01*
X123166696Y-105084426D01*
X123179477Y-105231454D01*
X123243613Y-105289679D01*
X123400000Y-105300000D01*
X123417761Y-105300029D01*
X123564788Y-105312810D01*
X123623014Y-105376945D01*
X123633334Y-105533333D01*
X123633363Y-105551093D01*
X123646144Y-105698121D01*
X123710280Y-105756346D01*
X123866667Y-105766666D01*
X123884427Y-105766637D01*
X124031455Y-105753856D01*
X124089680Y-105689720D01*
X124100000Y-105533333D01*
X124100030Y-105515573D01*
X124112811Y-105368545D01*
X124176946Y-105310320D01*
X124333334Y-105300000D01*
X124351094Y-105300029D01*
X124498122Y-105312810D01*
X124556347Y-105376945D01*
X124566667Y-105533333D01*
X124566696Y-105551093D01*
X124579477Y-105698121D01*
X124643613Y-105756346D01*
X124800000Y-105766666D01*
X124817761Y-105766695D01*
X124964788Y-105779476D01*
X125023014Y-105843612D01*
X125033334Y-106000000D01*
X125033305Y-106017760D01*
X125020524Y-106164787D01*
X124956388Y-106223013D01*
X124800000Y-106233333D01*
X124782240Y-106233362D01*
X124635213Y-106246143D01*
X124576987Y-106310279D01*
X124566667Y-106466666D01*
X124566667Y-106700000D01*
X124100000Y-106700000D01*
X123633334Y-106700000D01*
X123633334Y-106933333D01*
X123633334Y-107166666D01*
X123166667Y-107166666D01*
X122700000Y-107166666D01*
X122700000Y-107400000D01*
X122700030Y-107417760D01*
X122712811Y-107564787D01*
X122776946Y-107623013D01*
X122933334Y-107633333D01*
X123166667Y-107633333D01*
X123166667Y-108100000D01*
X123166667Y-108566666D01*
X122933334Y-108566666D01*
X122915574Y-108566695D01*
X122768546Y-108579476D01*
X122710321Y-108643612D01*
X122700000Y-108800000D01*
X122700000Y-109033333D01*
X123166667Y-109033333D01*
X123633334Y-109033333D01*
X123633334Y-108100000D01*
X123633334Y-107866666D01*
X124100000Y-107866666D01*
X124100030Y-107884426D01*
X124112811Y-108031454D01*
X124176946Y-108089679D01*
X124333334Y-108100000D01*
X124351094Y-108099970D01*
X124498122Y-108087189D01*
X124556347Y-108023054D01*
X124566667Y-107866666D01*
X124566638Y-107848906D01*
X124553857Y-107701878D01*
X124489721Y-107643653D01*
X124333334Y-107633333D01*
X124315574Y-107633362D01*
X124168546Y-107646143D01*
X124110321Y-107710279D01*
X124100000Y-107866666D01*
X123633334Y-107866666D01*
X123633334Y-107166666D01*
X124333334Y-107166666D01*
X125033334Y-107166666D01*
X125033334Y-107633333D01*
X125033334Y-107866666D01*
X125033334Y-108100000D01*
X125266667Y-108100000D01*
X125284427Y-108100029D01*
X125431455Y-108112810D01*
X125489680Y-108176945D01*
X125500000Y-108333333D01*
X125499971Y-108351093D01*
X125487190Y-108498121D01*
X125423055Y-108556346D01*
X125266667Y-108566666D01*
X125248907Y-108566695D01*
X125101879Y-108579476D01*
X125043654Y-108643612D01*
X125033334Y-108800000D01*
X125033363Y-108817760D01*
X125046144Y-108964787D01*
X125110280Y-109023013D01*
X125266667Y-109033333D01*
X125284427Y-109033304D01*
X125431455Y-109020523D01*
X125489680Y-108956387D01*
X125500000Y-108800000D01*
X125500030Y-108782239D01*
X125512811Y-108635212D01*
X125576946Y-108576986D01*
X125733334Y-108566666D01*
X125751094Y-108566637D01*
X125898122Y-108553856D01*
X125956347Y-108489720D01*
X125966667Y-108333333D01*
X125966696Y-108315573D01*
X125979477Y-108168545D01*
X126043613Y-108110320D01*
X126200000Y-108100000D01*
X126217761Y-108099970D01*
X126364788Y-108087189D01*
X126423014Y-108023054D01*
X126433334Y-107866666D01*
X126433334Y-107633333D01*
X126900000Y-107633333D01*
X127366667Y-107633333D01*
X127366667Y-107866666D01*
X127366638Y-107884426D01*
X127353857Y-108031454D01*
X127289721Y-108089679D01*
X127133334Y-108100000D01*
X126900000Y-108100000D01*
X126900000Y-108800000D01*
X126900000Y-109500000D01*
X126666667Y-109500000D01*
X126648907Y-109500029D01*
X126501879Y-109512810D01*
X126443654Y-109576945D01*
X126433334Y-109733333D01*
X126433305Y-109751093D01*
X126420524Y-109898121D01*
X126356388Y-109956346D01*
X126200000Y-109966666D01*
X126182240Y-109966695D01*
X126035213Y-109979476D01*
X125976987Y-110043612D01*
X125966667Y-110200000D01*
X125966696Y-110217760D01*
X125979477Y-110364787D01*
X126043613Y-110423013D01*
X126200000Y-110433333D01*
X126217761Y-110433362D01*
X126364788Y-110446143D01*
X126423014Y-110510279D01*
X126433334Y-110666666D01*
X126433363Y-110684426D01*
X126446144Y-110831454D01*
X126510280Y-110889679D01*
X126666667Y-110900000D01*
X126684427Y-110900029D01*
X126831455Y-110912810D01*
X126889680Y-110976945D01*
X126900000Y-111133333D01*
X126900030Y-111151093D01*
X126912811Y-111298121D01*
X126976946Y-111356346D01*
X127133334Y-111366666D01*
X127366667Y-111366666D01*
X127366667Y-111833333D01*
X127366667Y-112300000D01*
X127600000Y-112300000D01*
X127617761Y-112300029D01*
X127764788Y-112312810D01*
X127823014Y-112376945D01*
X127833334Y-112533333D01*
X127833305Y-112551093D01*
X127820524Y-112698121D01*
X127756388Y-112756346D01*
X127600000Y-112766666D01*
X127582240Y-112766695D01*
X127435213Y-112779476D01*
X127376987Y-112843612D01*
X127366667Y-113000000D01*
X127366696Y-113017760D01*
X127379477Y-113164787D01*
X127443613Y-113223013D01*
X127600000Y-113233333D01*
X127617761Y-113233304D01*
X127764788Y-113220523D01*
X127823014Y-113156387D01*
X127833334Y-113000000D01*
X127833334Y-112766666D01*
X128300000Y-112766666D01*
X128766667Y-112766666D01*
X128766667Y-112533333D01*
X128766667Y-112300000D01*
X129233334Y-112300000D01*
X129700000Y-112300000D01*
X129700000Y-112066666D01*
X129700000Y-111833333D01*
X130166667Y-111833333D01*
X130633334Y-111833333D01*
X130633334Y-112300000D01*
X130633334Y-112766666D01*
X130866667Y-112766666D01*
X130884427Y-112766695D01*
X131031455Y-112779476D01*
X131089680Y-112843612D01*
X131100000Y-113000000D01*
X131100000Y-113233333D01*
X131800000Y-113233333D01*
X132500000Y-113233333D01*
X132500000Y-113700000D01*
X132500000Y-114166666D01*
X132033334Y-114166666D01*
X131566667Y-114166666D01*
X131566667Y-113933333D01*
X131566638Y-113915573D01*
X131553857Y-113768545D01*
X131489721Y-113710320D01*
X131333334Y-113700000D01*
X131315574Y-113699970D01*
X131168546Y-113687189D01*
X131110321Y-113623054D01*
X131100000Y-113466666D01*
X131099971Y-113448906D01*
X131087190Y-113301878D01*
X131023055Y-113243653D01*
X130866667Y-113233333D01*
X130848907Y-113233362D01*
X130701879Y-113246143D01*
X130643654Y-113310279D01*
X130633334Y-113466666D01*
X130633305Y-113484426D01*
X130620524Y-113631454D01*
X130556388Y-113689679D01*
X130400000Y-113700000D01*
X130166667Y-113700000D01*
X130166667Y-113233333D01*
X130166667Y-112766666D01*
X129933334Y-112766666D01*
X129700000Y-112766666D01*
X129700000Y-113233333D01*
X129700000Y-113700000D01*
X129466667Y-113700000D01*
X129233334Y-113700000D01*
X129233334Y-113233333D01*
X129233334Y-112766666D01*
X129000000Y-112766666D01*
X128982240Y-112766695D01*
X128835213Y-112779476D01*
X128776987Y-112843612D01*
X128766667Y-113000000D01*
X128766638Y-113017760D01*
X128753857Y-113164787D01*
X128689721Y-113223013D01*
X128533334Y-113233333D01*
X128515574Y-113233362D01*
X128368546Y-113246143D01*
X128310321Y-113310279D01*
X128300000Y-113466666D01*
X128300030Y-113484426D01*
X128312811Y-113631454D01*
X128376946Y-113689679D01*
X128533334Y-113700000D01*
X128551094Y-113700029D01*
X128698122Y-113712810D01*
X128756347Y-113776945D01*
X128766667Y-113933333D01*
X128766638Y-113951093D01*
X128753857Y-114098121D01*
X128689721Y-114156346D01*
X128533334Y-114166666D01*
X128515574Y-114166637D01*
X128368546Y-114153856D01*
X128310321Y-114089720D01*
X128300000Y-113933333D01*
X128299971Y-113915573D01*
X128287190Y-113768545D01*
X128223055Y-113710320D01*
X128066667Y-113700000D01*
X128048907Y-113700029D01*
X127901879Y-113712810D01*
X127843654Y-113776945D01*
X127833334Y-113933333D01*
X127833305Y-113951093D01*
X127820524Y-114098121D01*
X127756388Y-114156346D01*
X127600000Y-114166666D01*
X127582240Y-114166637D01*
X127435213Y-114153856D01*
X127376987Y-114089720D01*
X127366667Y-113933333D01*
X127366638Y-113915573D01*
X127353857Y-113768545D01*
X127289721Y-113710320D01*
X127133334Y-113700000D01*
X127115574Y-113699970D01*
X126968546Y-113687189D01*
X126910321Y-113623054D01*
X126900000Y-113466666D01*
X126900000Y-113233333D01*
X126433334Y-113233333D01*
X125966667Y-113233333D01*
X125966667Y-113466666D01*
X125966696Y-113484426D01*
X125979477Y-113631454D01*
X126043613Y-113689679D01*
X126200000Y-113700000D01*
X126217761Y-113700029D01*
X126364788Y-113712810D01*
X126423014Y-113776945D01*
X126433334Y-113933333D01*
X126433305Y-113951093D01*
X126420524Y-114098121D01*
X126356388Y-114156346D01*
X126200000Y-114166666D01*
X126182240Y-114166637D01*
X126035213Y-114153856D01*
X125976987Y-114089720D01*
X125966667Y-113933333D01*
X125966638Y-113915573D01*
X125953857Y-113768545D01*
X125889721Y-113710320D01*
X125733334Y-113700000D01*
X125715574Y-113699970D01*
X125568546Y-113687189D01*
X125510321Y-113623054D01*
X125500000Y-113466666D01*
X125499971Y-113448906D01*
X125487190Y-113301878D01*
X125423055Y-113243653D01*
X125266667Y-113233333D01*
X125248907Y-113233362D01*
X125101879Y-113246143D01*
X125043654Y-113310279D01*
X125033334Y-113466666D01*
X125033305Y-113484426D01*
X125020524Y-113631454D01*
X124956388Y-113689679D01*
X124800000Y-113700000D01*
X124782240Y-113699970D01*
X124635213Y-113687189D01*
X124576987Y-113623054D01*
X124566667Y-113466666D01*
X124566667Y-113233333D01*
X124100000Y-113233333D01*
X123633334Y-113233333D01*
X123633334Y-113466666D01*
X123633363Y-113484426D01*
X123646144Y-113631454D01*
X123710280Y-113689679D01*
X123866667Y-113700000D01*
X123884427Y-113700029D01*
X124031455Y-113712810D01*
X124089680Y-113776945D01*
X124100000Y-113933333D01*
X124100000Y-114166666D01*
X123400000Y-114166666D01*
X122700000Y-114166666D01*
X122700000Y-113933333D01*
X122700030Y-113915573D01*
X122712811Y-113768545D01*
X122776946Y-113710320D01*
X122933334Y-113700000D01*
X122951094Y-113699970D01*
X123098122Y-113687189D01*
X123156347Y-113623054D01*
X123166667Y-113466666D01*
X123166696Y-113448906D01*
X123179477Y-113301878D01*
X123243613Y-113243653D01*
X123400000Y-113233333D01*
X123417761Y-113233304D01*
X123564788Y-113220523D01*
X123623014Y-113156387D01*
X123633334Y-113000000D01*
X125500000Y-113000000D01*
X125500030Y-113017760D01*
X125512811Y-113164787D01*
X125576946Y-113223013D01*
X125733334Y-113233333D01*
X125751094Y-113233304D01*
X125898122Y-113220523D01*
X125956347Y-113156387D01*
X125966667Y-113000000D01*
X125966638Y-112982239D01*
X125953857Y-112835212D01*
X125889721Y-112776986D01*
X125733334Y-112766666D01*
X125715574Y-112766695D01*
X125568546Y-112779476D01*
X125510321Y-112843612D01*
X125500000Y-113000000D01*
X123633334Y-113000000D01*
X123633334Y-112766666D01*
X124566667Y-112766666D01*
X125500000Y-112766666D01*
X125500000Y-112300000D01*
X125500000Y-111833333D01*
X125733334Y-111833333D01*
X125751094Y-111833362D01*
X125898122Y-111846143D01*
X125956347Y-111910279D01*
X125966667Y-112066666D01*
X125966696Y-112084426D01*
X125979477Y-112231454D01*
X126043613Y-112289679D01*
X126200000Y-112300000D01*
X126217761Y-112300029D01*
X126364788Y-112312810D01*
X126423014Y-112376945D01*
X126433334Y-112533333D01*
X126433363Y-112551093D01*
X126446144Y-112698121D01*
X126510280Y-112756346D01*
X126666667Y-112766666D01*
X126900000Y-112766666D01*
X126900000Y-112300000D01*
X126900000Y-111833333D01*
X126433334Y-111833333D01*
X125966667Y-111833333D01*
X125966667Y-111366666D01*
X125966667Y-110900000D01*
X125733334Y-110900000D01*
X125500000Y-110900000D01*
X125500000Y-111133333D01*
X125500000Y-111366666D01*
X125500000Y-111833333D01*
X125266667Y-111833333D01*
X125248907Y-111833362D01*
X125101879Y-111846143D01*
X125043654Y-111910279D01*
X125033334Y-112066666D01*
X125033334Y-112300000D01*
X123866667Y-112300000D01*
X122700000Y-112300000D01*
X122700000Y-112533333D01*
X122699971Y-112551093D01*
X122687190Y-112698121D01*
X122623055Y-112756346D01*
X122466667Y-112766666D01*
X122233334Y-112766666D01*
X122233334Y-112300000D01*
X122233334Y-111833333D01*
X122000000Y-111833333D01*
X121982240Y-111833362D01*
X121835213Y-111846143D01*
X121776987Y-111910279D01*
X121766667Y-112066666D01*
X121766638Y-112084426D01*
X121753857Y-112231454D01*
X121689721Y-112289679D01*
X121533334Y-112300000D01*
X121300000Y-112300000D01*
X121300000Y-112766666D01*
X121300000Y-113233333D01*
X121533334Y-113233333D01*
X121766667Y-113233333D01*
X121766667Y-113700000D01*
X121766667Y-114166666D01*
X121533334Y-114166666D01*
X121515574Y-114166637D01*
X121368546Y-114153856D01*
X121310321Y-114089720D01*
X121300000Y-113933333D01*
X121299971Y-113915573D01*
X121287190Y-113768545D01*
X121223055Y-113710320D01*
X121066667Y-113700000D01*
X120833334Y-113700000D01*
X120833334Y-113000000D01*
X120833334Y-112300000D01*
X121066667Y-112300000D01*
X121084427Y-112299970D01*
X121231455Y-112287189D01*
X121289680Y-112223054D01*
X121300000Y-112066666D01*
X121299971Y-112048906D01*
X121287190Y-111901878D01*
X121223055Y-111843653D01*
X121066667Y-111833333D01*
X121048907Y-111833304D01*
X120901879Y-111820523D01*
X120843654Y-111756387D01*
X120833334Y-111600000D01*
X122233334Y-111600000D01*
X122233363Y-111617760D01*
X122246144Y-111764787D01*
X122310280Y-111823013D01*
X122466667Y-111833333D01*
X123166667Y-111833333D01*
X123866667Y-111833333D01*
X124566667Y-111833333D01*
X124566667Y-111133333D01*
X124566667Y-110433333D01*
X125033334Y-110433333D01*
X125033334Y-110900000D01*
X125266667Y-110900000D01*
X125500000Y-110900000D01*
X125500000Y-110433333D01*
X125500000Y-109966666D01*
X125266667Y-109966666D01*
X125033334Y-109966666D01*
X125033334Y-110433333D01*
X124566667Y-110433333D01*
X123866667Y-110433333D01*
X123166667Y-110433333D01*
X123166667Y-111133333D01*
X123166667Y-111600000D01*
X123166667Y-111833333D01*
X122466667Y-111833333D01*
X122484427Y-111833304D01*
X122631455Y-111820523D01*
X122689680Y-111756387D01*
X122700000Y-111600000D01*
X122699971Y-111582239D01*
X122687190Y-111435212D01*
X122623055Y-111376986D01*
X122466667Y-111366666D01*
X122448907Y-111366695D01*
X122301879Y-111379476D01*
X122243654Y-111443612D01*
X122233334Y-111600000D01*
X120833334Y-111600000D01*
X120833363Y-111582239D01*
X120846144Y-111435212D01*
X120910280Y-111376986D01*
X121066667Y-111366666D01*
X121084427Y-111366637D01*
X121231455Y-111353856D01*
X121289680Y-111289720D01*
X121300000Y-111133333D01*
X121300030Y-111115573D01*
X121312811Y-110968545D01*
X121376946Y-110910320D01*
X121533334Y-110900000D01*
X121551094Y-110900029D01*
X121698122Y-110912810D01*
X121756347Y-110976945D01*
X121766667Y-111133333D01*
X121766696Y-111151093D01*
X121779477Y-111298121D01*
X121843613Y-111356346D01*
X122000000Y-111366666D01*
X122233334Y-111366666D01*
X122233334Y-110666666D01*
X122233334Y-109966666D01*
X122000000Y-109966666D01*
X121982240Y-109966637D01*
X121835213Y-109953856D01*
X121776987Y-109889720D01*
X121766667Y-109733333D01*
X121766667Y-109500000D01*
X122233334Y-109500000D01*
X122700000Y-109500000D01*
X122700000Y-109733333D01*
X122700000Y-109966666D01*
X123400000Y-109966666D01*
X124100000Y-109966666D01*
X124100000Y-109733333D01*
X124100030Y-109715573D01*
X124112811Y-109568545D01*
X124176946Y-109510320D01*
X124333334Y-109500000D01*
X124566667Y-109500000D01*
X124566667Y-109033333D01*
X124566667Y-108566666D01*
X124333334Y-108566666D01*
X124100000Y-108566666D01*
X124100000Y-109033333D01*
X124100000Y-109500000D01*
X123400000Y-109500000D01*
X122700000Y-109500000D01*
X122700000Y-109266666D01*
X122699971Y-109248906D01*
X122687190Y-109101878D01*
X122623055Y-109043653D01*
X122466667Y-109033333D01*
X122233334Y-109033333D01*
X122233334Y-108566666D01*
X122233334Y-108100000D01*
X122000000Y-108100000D01*
X121982240Y-108100029D01*
X121835213Y-108112810D01*
X121776987Y-108176945D01*
X121766667Y-108333333D01*
X121766638Y-108351093D01*
X121753857Y-108498121D01*
X121689721Y-108556346D01*
X121533334Y-108566666D01*
X121515574Y-108566695D01*
X121368546Y-108579476D01*
X121310321Y-108643612D01*
X121300000Y-108800000D01*
X121299971Y-108817760D01*
X121287190Y-108964787D01*
X121223055Y-109023013D01*
X121066667Y-109033333D01*
X121048907Y-109033304D01*
X120901879Y-109020523D01*
X120843654Y-108956387D01*
X120833334Y-108800000D01*
X120833363Y-108782239D01*
X120846144Y-108635212D01*
X120910280Y-108576986D01*
X121066667Y-108566666D01*
X121084427Y-108566637D01*
X121231455Y-108553856D01*
X121289680Y-108489720D01*
X121300000Y-108333333D01*
X121299971Y-108315573D01*
X121287190Y-108168545D01*
X121223055Y-108110320D01*
X121066667Y-108100000D01*
X121048907Y-108099970D01*
X120901879Y-108087189D01*
X120843654Y-108023054D01*
X120833334Y-107866666D01*
X120833363Y-107848906D01*
X120846144Y-107701878D01*
X120910280Y-107643653D01*
X121066667Y-107633333D01*
X121084427Y-107633362D01*
X121231455Y-107646143D01*
X121289680Y-107710279D01*
X121300000Y-107866666D01*
X121300030Y-107884426D01*
X121312811Y-108031454D01*
X121376946Y-108089679D01*
X121533334Y-108100000D01*
X121551094Y-108099970D01*
X121698122Y-108087189D01*
X121756347Y-108023054D01*
X121766667Y-107866666D01*
X121766696Y-107848906D01*
X121779477Y-107701878D01*
X121843613Y-107643653D01*
X122000000Y-107633333D01*
X122017761Y-107633304D01*
X122164788Y-107620523D01*
X122223014Y-107556387D01*
X122233334Y-107400000D01*
X122233363Y-107382239D01*
X122246144Y-107235212D01*
X122310280Y-107176986D01*
X122466667Y-107166666D01*
X122484427Y-107166637D01*
X122631455Y-107153856D01*
X122689680Y-107089720D01*
X122700000Y-106933333D01*
X122699971Y-106915573D01*
X122687190Y-106768545D01*
X122623055Y-106710320D01*
X122466667Y-106700000D01*
X122233334Y-106700000D01*
X122233334Y-106233333D01*
X122233334Y-105766666D01*
X122466667Y-105766666D01*
X122700000Y-105766666D01*
X122700000Y-106233333D01*
X122700000Y-106700000D01*
X123166667Y-106700000D01*
X123633334Y-106700000D01*
X123633334Y-106233333D01*
X123633334Y-105766666D01*
X123400000Y-105766666D01*
X123382240Y-105766637D01*
X123235213Y-105753856D01*
X123176987Y-105689720D01*
X123166667Y-105533333D01*
X123166638Y-105515573D01*
X123153857Y-105368545D01*
X123089721Y-105310320D01*
X122933334Y-105300000D01*
X122700000Y-105300000D01*
X122700000Y-104833333D01*
X122700000Y-104366666D01*
X123166667Y-104366666D01*
X123633334Y-104366666D01*
X123633334Y-104600000D01*
X123633363Y-104617760D01*
X123646144Y-104764787D01*
X123710280Y-104823013D01*
X123866667Y-104833333D01*
X124100000Y-104833333D01*
X124100000Y-104366666D01*
X124100000Y-103900000D01*
X123866667Y-103900000D01*
X123848907Y-103899970D01*
X123701879Y-103887189D01*
X123643654Y-103823054D01*
X123633334Y-103666666D01*
X123633305Y-103648906D01*
X123620524Y-103501878D01*
X123556388Y-103443653D01*
X123400000Y-103433333D01*
X123382240Y-103433362D01*
X123235213Y-103446143D01*
X123176987Y-103510279D01*
X123166667Y-103666666D01*
X123166667Y-103900000D01*
X122700000Y-103900000D01*
X122233334Y-103900000D01*
X122233334Y-103666666D01*
X122233334Y-103433333D01*
X122700000Y-103433333D01*
X123166667Y-103433333D01*
X123166667Y-103200000D01*
X123166638Y-103182239D01*
X123153857Y-103035212D01*
X123089721Y-102976986D01*
X122933334Y-102966666D01*
X122915574Y-102966637D01*
X122768546Y-102953856D01*
X122710321Y-102889720D01*
X122700000Y-102733333D01*
X122700000Y-102500000D01*
X123400000Y-102500000D01*
X124100000Y-102500000D01*
X124100000Y-102733333D01*
X124100030Y-102751093D01*
X124112811Y-102898121D01*
X124176946Y-102956346D01*
X124333334Y-102966666D01*
X124566667Y-102966666D01*
X124566667Y-103433333D01*
X124566667Y-103900000D01*
X124800000Y-103900000D01*
X125033334Y-103900000D01*
X125033334Y-103433333D01*
X125033334Y-102966666D01*
X124800000Y-102966666D01*
X124566667Y-102966666D01*
X124566667Y-102033333D01*
X124566667Y-101100000D01*
X124800000Y-101100000D01*
X125033334Y-101100000D01*
X125033334Y-101800000D01*
X125033334Y-102500000D01*
X125266667Y-102500000D01*
X125500000Y-102500000D01*
X125500000Y-101566666D01*
X125500000Y-100633333D01*
X125966667Y-100633333D01*
X125966667Y-100866666D01*
X125966667Y-101100000D01*
X126433334Y-101100000D01*
X126900000Y-101100000D01*
X126900000Y-100866666D01*
X126900000Y-100633333D01*
X126433334Y-100633333D01*
X125966667Y-100633333D01*
X125500000Y-100633333D01*
X125033334Y-100633333D01*
X124566667Y-100633333D01*
X124566667Y-100400000D01*
X124566667Y-100166666D01*
X125033334Y-100166666D01*
X125500000Y-100166666D01*
X125500000Y-99933333D01*
X125500000Y-99700000D01*
X125033334Y-99700000D01*
X124566667Y-99700000D01*
X124566667Y-99233333D01*
X124566667Y-98766666D01*
X125033334Y-98766666D01*
X125500000Y-98766666D01*
X125500000Y-99000000D01*
X125500030Y-99017760D01*
X125512811Y-99164787D01*
X125576946Y-99223013D01*
X125733334Y-99233333D01*
X125751094Y-99233362D01*
X125898122Y-99246143D01*
X125956347Y-99310279D01*
X125966667Y-99466666D01*
X125966696Y-99484426D01*
X125979477Y-99631454D01*
X126043613Y-99689679D01*
X126200000Y-99700000D01*
X126217761Y-99700029D01*
X126364788Y-99712810D01*
X126423014Y-99776945D01*
X126433334Y-99933333D01*
X126433363Y-99951093D01*
X126446144Y-100098121D01*
X126510280Y-100156346D01*
X126666667Y-100166666D01*
X126900000Y-100166666D01*
X126900000Y-99933333D01*
X128300000Y-99933333D01*
X128300000Y-100166666D01*
X128533334Y-100166666D01*
X128551094Y-100166637D01*
X128698122Y-100153856D01*
X128756347Y-100089720D01*
X128766667Y-99933333D01*
X128766638Y-99915573D01*
X128753857Y-99768545D01*
X128689721Y-99710320D01*
X128533334Y-99700000D01*
X128515574Y-99700029D01*
X128368546Y-99712810D01*
X128310321Y-99776945D01*
X128300000Y-99933333D01*
X126900000Y-99933333D01*
X126900000Y-99700000D01*
X126900000Y-99233333D01*
X128066667Y-99233333D01*
X129233334Y-99233333D01*
X129233334Y-99700000D01*
X129233334Y-99933333D01*
X129233334Y-100166666D01*
G37*
G36*
X131566667Y-102966666D02*
G01*
X131566667Y-103433333D01*
X131800000Y-103433333D01*
X131817761Y-103433304D01*
X131964788Y-103420523D01*
X132023014Y-103356387D01*
X132033334Y-103200000D01*
X132033363Y-103182239D01*
X132046144Y-103035212D01*
X132110280Y-102976986D01*
X132266667Y-102966666D01*
X132284427Y-102966637D01*
X132431455Y-102953856D01*
X132489680Y-102889720D01*
X132500000Y-102733333D01*
X132500000Y-102500000D01*
X132966667Y-102500000D01*
X133433334Y-102500000D01*
X133433334Y-102733333D01*
X133433363Y-102751093D01*
X133446144Y-102898121D01*
X133510280Y-102956346D01*
X133666667Y-102966666D01*
X133684427Y-102966695D01*
X133831455Y-102979476D01*
X133889680Y-103043612D01*
X133900000Y-103200000D01*
X133900000Y-103433333D01*
X134366667Y-103433333D01*
X134833334Y-103433333D01*
X134833334Y-103200000D01*
X134833305Y-103182239D01*
X134820524Y-103035212D01*
X134756388Y-102976986D01*
X134600000Y-102966666D01*
X134582240Y-102966637D01*
X134435213Y-102953856D01*
X134376987Y-102889720D01*
X134366667Y-102733333D01*
X134366696Y-102715573D01*
X134379477Y-102568545D01*
X134443613Y-102510320D01*
X134600000Y-102500000D01*
X134617761Y-102500029D01*
X134764788Y-102512810D01*
X134823014Y-102576945D01*
X134833334Y-102733333D01*
X134833363Y-102751093D01*
X134846144Y-102898121D01*
X134910280Y-102956346D01*
X135066667Y-102966666D01*
X135084427Y-102966637D01*
X135231455Y-102953856D01*
X135289680Y-102889720D01*
X135300000Y-102733333D01*
X135300000Y-102500000D01*
X135766667Y-102500000D01*
X136233334Y-102500000D01*
X136233334Y-103666666D01*
X136233334Y-104833333D01*
X136000000Y-104833333D01*
X135982240Y-104833362D01*
X135835213Y-104846143D01*
X135776987Y-104910279D01*
X135766667Y-105066666D01*
X135766696Y-105084426D01*
X135779477Y-105231454D01*
X135843613Y-105289679D01*
X136000000Y-105300000D01*
X136017761Y-105300029D01*
X136164788Y-105312810D01*
X136223014Y-105376945D01*
X136233334Y-105533333D01*
X136233305Y-105551093D01*
X136220524Y-105698121D01*
X136156388Y-105756346D01*
X136000000Y-105766666D01*
X135982240Y-105766637D01*
X135835213Y-105753856D01*
X135776987Y-105689720D01*
X135766667Y-105533333D01*
X135766638Y-105515573D01*
X135753857Y-105368545D01*
X135689721Y-105310320D01*
X135533334Y-105300000D01*
X135300000Y-105300000D01*
X135300000Y-104366666D01*
X135300000Y-103433333D01*
X135533334Y-103433333D01*
X135551094Y-103433304D01*
X135698122Y-103420523D01*
X135756347Y-103356387D01*
X135766667Y-103200000D01*
X135766638Y-103182239D01*
X135753857Y-103035212D01*
X135689721Y-102976986D01*
X135533334Y-102966666D01*
X135515574Y-102966695D01*
X135368546Y-102979476D01*
X135310321Y-103043612D01*
X135300000Y-103200000D01*
X135299971Y-103217760D01*
X135287190Y-103364787D01*
X135223055Y-103423013D01*
X135066667Y-103433333D01*
X135048907Y-103433362D01*
X134901879Y-103446143D01*
X134843654Y-103510279D01*
X134833334Y-103666666D01*
X134833334Y-103900000D01*
X134366667Y-103900000D01*
X133900000Y-103900000D01*
X133900000Y-104133333D01*
X133900000Y-104366666D01*
X134366667Y-104366666D01*
X134833334Y-104366666D01*
X134833334Y-104833333D01*
X134833334Y-105300000D01*
X134600000Y-105300000D01*
X134582240Y-105299970D01*
X134435213Y-105287189D01*
X134376987Y-105223054D01*
X134366667Y-105066666D01*
X134366667Y-104833333D01*
X133666667Y-104833333D01*
X132966667Y-104833333D01*
X132966667Y-105066666D01*
X132966638Y-105084426D01*
X132953857Y-105231454D01*
X132889721Y-105289679D01*
X132733334Y-105300000D01*
X132715574Y-105299970D01*
X132568546Y-105287189D01*
X132510321Y-105223054D01*
X132500000Y-105066666D01*
X132499971Y-105048906D01*
X132487190Y-104901878D01*
X132423055Y-104843653D01*
X132266667Y-104833333D01*
X132248907Y-104833304D01*
X132101879Y-104820523D01*
X132043654Y-104756387D01*
X132033334Y-104600000D01*
X132033363Y-104582239D01*
X132046144Y-104435212D01*
X132110280Y-104376986D01*
X132266667Y-104366666D01*
X132284427Y-104366637D01*
X132431455Y-104353856D01*
X132489680Y-104289720D01*
X132500000Y-104133333D01*
X132500030Y-104115573D01*
X132512811Y-103968545D01*
X132576946Y-103910320D01*
X132733334Y-103900000D01*
X132751094Y-103900029D01*
X132898122Y-103912810D01*
X132956347Y-103976945D01*
X132966667Y-104133333D01*
X132966696Y-104151093D01*
X132979477Y-104298121D01*
X133043613Y-104356346D01*
X133200000Y-104366666D01*
X133217761Y-104366637D01*
X133364788Y-104353856D01*
X133423014Y-104289720D01*
X133433334Y-104133333D01*
X133433305Y-104115573D01*
X133420524Y-103968545D01*
X133356388Y-103910320D01*
X133200000Y-103900000D01*
X133182240Y-103899970D01*
X133035213Y-103887189D01*
X132976987Y-103823054D01*
X132966667Y-103666666D01*
X132966696Y-103648906D01*
X132979477Y-103501878D01*
X133043613Y-103443653D01*
X133200000Y-103433333D01*
X133217761Y-103433304D01*
X133364788Y-103420523D01*
X133423014Y-103356387D01*
X133433334Y-103200000D01*
X133433305Y-103182239D01*
X133420524Y-103035212D01*
X133356388Y-102976986D01*
X133200000Y-102966666D01*
X133182240Y-102966695D01*
X133035213Y-102979476D01*
X132976987Y-103043612D01*
X132966667Y-103200000D01*
X132966638Y-103217760D01*
X132953857Y-103364787D01*
X132889721Y-103423013D01*
X132733334Y-103433333D01*
X132715574Y-103433362D01*
X132568546Y-103446143D01*
X132510321Y-103510279D01*
X132500000Y-103666666D01*
X132500000Y-103900000D01*
X131800000Y-103900000D01*
X131100000Y-103900000D01*
X131100000Y-103666666D01*
X131099971Y-103648906D01*
X131087190Y-103501878D01*
X131023055Y-103443653D01*
X130866667Y-103433333D01*
X130848907Y-103433304D01*
X130701879Y-103420523D01*
X130643654Y-103356387D01*
X130633334Y-103200000D01*
X130633363Y-103182239D01*
X130646144Y-103035212D01*
X130710280Y-102976986D01*
X130866667Y-102966666D01*
X130884427Y-102966637D01*
X131031455Y-102953856D01*
X131089680Y-102889720D01*
X131100000Y-102733333D01*
X131100030Y-102715573D01*
X131112811Y-102568545D01*
X131176946Y-102510320D01*
X131333334Y-102500000D01*
X131566667Y-102500000D01*
X131566667Y-102966666D01*
G37*
%TD*%
D13*
X95500000Y-140000000D03*
X95500000Y-138000000D03*
X95500000Y-136000000D03*
X95500000Y-134000000D03*
X125500000Y-83500000D03*
X128000000Y-83500000D03*
X130500000Y-83500000D03*
X133000000Y-83500000D03*
X137500000Y-142680000D03*
X137500000Y-140140000D03*
X137500000Y-137600000D03*
X137500000Y-135060000D03*
X137500000Y-132520000D03*
X137500000Y-129980000D03*
X137500000Y-127440000D03*
X137500000Y-124900000D03*
X137500000Y-122360000D03*
X137500000Y-119820000D03*
X137500000Y-117280000D03*
X137500000Y-114740000D03*
X137500000Y-112200000D03*
X137500000Y-109660000D03*
X137500000Y-107120000D03*
X137500000Y-104580000D03*
X137500000Y-102040000D03*
X137500000Y-99500000D03*
X137500000Y-96960000D03*
X137500000Y-94420000D03*
X119720000Y-94420000D03*
X119720000Y-96960000D03*
X119720000Y-99500000D03*
X119720000Y-102040000D03*
X119720000Y-104580000D03*
X119720000Y-107120000D03*
X119720000Y-109660000D03*
X119720000Y-112200000D03*
X119720000Y-114740000D03*
X119720000Y-117280000D03*
X119720000Y-119820000D03*
X119720000Y-122360000D03*
X119720000Y-124900000D03*
X119720000Y-127440000D03*
X119720000Y-129980000D03*
X119720000Y-132520000D03*
X119720000Y-135060000D03*
X119720000Y-137600000D03*
X119720000Y-140140000D03*
X119720000Y-142680000D03*
X147500000Y-93500000D03*
X150843720Y-93491318D03*
X154000000Y-93500000D03*
X147500000Y-98000000D03*
X150785115Y-98031636D03*
X154000000Y-98000000D03*
X104420000Y-114000000D03*
X114580000Y-114000000D03*
X103340000Y-133000000D03*
X113500000Y-133000000D03*
X112000000Y-124500000D03*
X108656280Y-124508682D03*
X105500000Y-124500000D03*
X112000000Y-120000000D03*
X108714885Y-119968364D03*
X105500000Y-120000000D03*
X114580000Y-99000000D03*
X104420000Y-99000000D03*
X103750000Y-88000000D03*
X97250000Y-88000000D03*
X147500000Y-116500000D03*
X150843720Y-116491318D03*
X154000000Y-116500000D03*
X147500000Y-121000000D03*
X150785115Y-121031636D03*
X154000000Y-121000000D03*
X147500000Y-105000000D03*
X150843720Y-104991318D03*
X154000000Y-105000000D03*
X147500000Y-109500000D03*
X150785115Y-109531636D03*
X154000000Y-109500000D03*
X104420000Y-106000000D03*
X114580000Y-106000000D03*
X153000000Y-136500000D03*
X153000000Y-138500000D03*
X103420000Y-141000000D03*
X113580000Y-141000000D03*
X96000000Y-113000000D03*
X96000000Y-111000000D03*
X96000000Y-109000000D03*
X96000000Y-107000000D03*
M02*
