M48
METRIC,TZ
T1C0.300
T2C0.750
T3C0.800
T4C0.950
T5C1.000
T6C1.100
%
G90
G05
T1
X121883Y-108322
X135381Y-113470
T2
X95500Y-134000
X95500Y-136000
X95500Y-138000
X95500Y-140000
X96000Y-107000
X96000Y-109000
X96000Y-111000
X96000Y-113000
X153000Y-136500
X153000Y-138500
T3
X103340Y-133000
X103420Y-141000
X104420Y-99000
X104420Y-106000
X104420Y-114000
X113500Y-133000
X113580Y-141000
X114580Y-99000
X114580Y-106000
X114580Y-114000
T4
X125500Y-83500
X128000Y-83500
X130500Y-83500
X133000Y-83500
T5
X97250Y-88000
X103750Y-88000
X119720Y-94420
X119720Y-96960
X119720Y-99500
X119720Y-102040
X119720Y-104580
X119720Y-107120
X119720Y-109660
X119720Y-112200
X119720Y-114740
X119720Y-117280
X119720Y-119820
X119720Y-122360
X119720Y-124900
X119720Y-127440
X119720Y-129980
X119720Y-132520
X119720Y-135060
X119720Y-137600
X119720Y-140140
X119720Y-142680
X137500Y-94420
X137500Y-96960
X137500Y-99500
X137500Y-102040
X137500Y-104580
X137500Y-107120
X137500Y-109660
X137500Y-112200
X137500Y-114740
X137500Y-117280
X137500Y-119820
X137500Y-122360
X137500Y-124900
X137500Y-127440
X137500Y-129980
X137500Y-132520
X137500Y-135060
X137500Y-137600
X137500Y-140140
X137500Y-142680
T6
X105500Y-120000
X105500Y-124500
X108656Y-124509
X108715Y-119968
X112000Y-120000
X112000Y-124500
X147500Y-93500
X147500Y-98000
X147500Y-105000
X147500Y-109500
X147500Y-116500
X147500Y-121000
X150785Y-98032
X150785Y-109532
X150785Y-121032
X150844Y-93491
X150844Y-104991
X150844Y-116491
X154000Y-93500
X154000Y-98000
X154000Y-105000
X154000Y-109500
X154000Y-116500
X154000Y-121000
M30
